{"glyphs":{"0":{"ha":861,"x_min":163,"x_max":917,"o":"m 640 962 q 793 916 725 962 q 889 794 861 869 q 917 637 917 720 q 841 296 917 459 q 662 59 766 134 q 439 -16 557 -16 q 240 71 318 -16 q 163 311 163 159 q 239 656 163 494 q 426 891 315 819 q 640 962 538 962 m 633 890 q 512 852 574 890 q 404 735 451 815 q 318 527 357 656 q 278 272 278 398 q 296 166 278 218 q 354 83 314 115 q 446 52 394 52 q 607 122 534 52 q 732 334 680 192 q 796 674 796 504 q 750 834 796 779 q 633 890 705 890 z "},"1":{"ha":861,"x_min":236,"x_max":731,"o":"m 731 946 l 549 152 q 543 111 543 124 q 552 81 543 94 q 576 62 561 68 q 632 57 591 57 l 689 57 l 676 0 l 236 0 l 250 57 l 301 57 q 386 65 366 57 q 419 93 406 73 q 445 167 433 113 l 590 805 l 420 805 l 433 863 q 562 897 492 873 q 681 946 631 920 l 731 946 z "},"2":{"ha":861,"x_min":80,"x_max":902,"o":"m 295 590 l 230 586 q 229 612 229 604 q 317 848 229 749 q 597 962 420 962 q 761 929 694 962 q 865 836 828 897 q 902 704 902 775 q 883 606 902 652 q 803 478 856 538 q 617 328 750 419 q 256 97 448 212 l 606 97 q 681 103 659 97 q 710 121 696 108 q 739 174 723 135 l 757 214 l 818 214 l 717 -33 l 672 -33 l 672 0 l 80 0 l 94 57 l 275 174 q 461 305 331 210 q 656 465 591 400 q 754 600 722 530 q 777 698 777 650 q 750 789 777 745 q 675 856 723 832 q 564 880 628 880 q 384 817 457 880 q 295 590 293 738 z "},"3":{"ha":861,"x_min":113,"x_max":894,"o":"m 346 693 l 283 707 q 347 842 300 785 q 462 930 393 899 q 618 962 532 962 q 766 933 703 962 q 861 856 829 904 q 894 749 894 807 q 868 648 894 695 q 791 565 842 601 q 654 506 741 529 q 734 474 707 492 q 803 399 777 447 q 829 294 829 351 q 780 144 829 218 q 642 27 731 71 q 441 -16 553 -16 q 271 16 346 -16 q 150 107 197 48 q 113 195 113 153 q 131 249 113 230 q 176 269 148 269 q 218 253 201 269 q 242 195 234 237 q 275 111 252 141 q 341 62 299 80 q 438 44 383 44 q 628 118 552 44 q 704 294 704 191 q 672 400 704 356 q 595 459 641 444 q 473 475 550 475 l 433 475 l 446 541 l 494 541 q 647 565 589 541 q 736 633 705 589 q 767 724 767 677 q 745 802 767 766 q 680 858 722 838 q 581 878 637 878 q 476 857 524 878 q 397 797 429 835 q 346 693 366 760 z "},"4":{"ha":861,"x_min":129,"x_max":886,"o":"m 835 946 l 710 393 l 886 393 l 867 312 l 690 312 l 621 0 l 511 0 l 582 312 l 129 312 l 156 427 l 728 946 l 835 946 m 601 393 l 698 822 l 224 393 l 601 393 z "},"5":{"ha":861,"x_min":144,"x_max":944,"o":"m 406 946 l 831 946 q 870 947 865 946 q 884 955 880 949 q 893 976 888 959 l 944 976 l 915 842 l 450 842 l 382 607 q 501 618 446 618 q 744 557 657 618 q 857 339 857 477 q 764 111 857 210 q 451 -16 647 -16 q 288 14 357 -16 q 182 93 219 43 q 144 189 144 143 q 163 241 144 221 q 209 260 182 260 q 241 251 227 260 q 264 224 256 241 q 275 181 268 216 q 288 131 283 142 q 318 89 298 107 q 373 59 338 71 q 451 47 408 47 q 654 125 573 47 q 736 318 736 204 q 668 471 736 414 q 471 528 600 528 q 281 500 386 528 l 406 946 z "},"6":{"ha":861,"x_min":176,"x_max":924,"o":"m 924 962 l 908 894 q 722 878 802 895 q 583 832 642 862 q 474 757 524 803 q 392 655 425 711 q 332 511 358 598 q 415 581 379 558 q 493 614 450 603 q 588 626 535 626 q 794 547 715 626 q 873 347 873 469 q 822 164 873 251 q 687 31 771 78 q 491 -16 602 -16 q 324 23 392 -16 q 216 136 256 62 q 176 312 176 210 q 288 688 176 513 q 546 905 386 839 q 924 962 683 962 m 565 556 q 431 518 494 556 q 333 410 369 481 q 297 258 297 340 q 347 105 297 165 q 488 46 396 46 q 668 130 594 46 q 749 352 749 222 q 697 500 749 444 q 565 556 644 556 z "},"7":{"ha":861,"x_min":243,"x_max":1016,"o":"m 366 976 l 411 976 l 411 946 l 1016 946 l 1003 888 q 768 630 892 790 q 558 306 644 469 q 431 0 471 142 l 292 0 q 382 213 324 100 q 512 427 441 326 q 721 682 583 528 q 884 844 817 790 l 473 844 q 384 834 406 844 q 328 762 354 820 l 296 690 l 243 714 l 366 976 z "},"8":{"ha":861,"x_min":149,"x_max":894,"o":"m 664 503 q 781 424 746 457 q 832 354 817 391 q 848 265 848 316 q 804 127 848 191 q 675 23 760 63 q 477 -16 591 -16 q 299 16 372 -16 q 188 104 226 49 q 149 222 149 160 q 171 318 149 275 q 250 407 193 361 q 422 507 307 452 q 346 562 373 533 q 304 629 319 591 q 289 709 289 667 q 327 833 289 777 q 441 926 365 890 q 612 962 517 962 q 762 933 697 962 q 861 858 827 904 q 894 761 894 811 q 873 675 894 717 q 812 597 853 633 q 664 503 770 561 m 609 530 q 733 626 706 599 q 774 683 760 652 q 787 748 787 713 q 738 853 787 811 q 602 896 689 896 q 454 846 511 896 q 396 731 396 796 q 405 680 396 703 q 434 633 414 656 q 486 591 454 610 l 609 530 m 478 475 q 328 376 366 409 q 272 306 290 342 q 254 227 254 269 q 316 99 254 151 q 482 46 378 46 q 617 74 559 46 q 707 148 676 102 q 738 245 738 195 q 704 341 738 300 q 571 430 669 382 l 478 475 z "},"9":{"ha":861,"x_min":176,"x_max":924,"o":"m 176 -16 l 191 52 q 377 67 297 52 q 516 113 457 83 q 625 189 576 143 q 708 291 674 235 q 767 435 741 347 q 685 365 720 387 q 607 331 649 342 q 512 320 565 320 q 305 399 384 320 q 227 599 227 477 q 277 781 227 694 q 413 915 328 868 q 608 962 498 962 q 775 923 707 962 q 884 810 844 884 q 924 633 924 736 q 811 258 924 433 q 554 41 713 106 q 176 -16 416 -16 m 534 390 q 668 428 606 390 q 766 536 730 465 q 802 687 802 606 q 753 840 802 781 q 611 899 703 899 q 432 817 506 899 q 350 594 350 724 q 402 446 350 502 q 534 390 455 390 z "}," ":{"ha":416,"x_min":0,"x_max":0,"o":""},"!":{"ha":444,"x_min":155,"x_max":490,"o":"m 296 226 l 241 226 l 324 837 q 336 901 331 886 q 369 944 345 926 q 418 962 392 962 q 470 944 450 962 q 490 895 490 925 q 487 867 490 882 q 474 824 485 859 l 296 226 m 251 148 q 300 129 281 148 q 319 80 319 110 q 291 12 319 41 q 225 -16 263 -16 q 174 2 192 -16 q 155 53 155 20 q 183 120 155 92 q 251 148 211 148 z "},"\"":{"ha":500,"x_min":249,"x_max":607,"o":"m 469 614 l 492 851 q 519 936 498 910 q 568 962 540 962 q 597 952 587 962 q 607 922 607 942 q 590 853 607 899 l 498 614 l 469 614 m 249 614 l 272 851 q 298 936 277 910 q 347 962 319 962 q 376 952 366 962 q 387 922 387 942 q 369 853 387 899 l 277 614 l 249 614 z "},"#":{"ha":833,"x_min":78,"x_max":754,"o":"m 720 379 l 720 300 l 571 300 l 527 -1 l 446 -1 l 490 300 l 305 300 l 263 -1 l 180 -1 l 226 300 l 78 300 l 78 379 l 238 379 l 263 563 l 116 563 l 116 642 l 278 642 l 320 924 l 398 924 l 357 642 l 541 642 l 583 924 l 663 924 l 621 642 l 754 642 l 754 562 l 610 562 l 583 379 l 720 379 m 530 562 l 345 562 l 317 379 l 501 379 l 530 562 z "},"$":{"ha":861,"x_min":135,"x_max":924,"o":"m 657 1097 l 724 1097 l 686 932 q 761 906 732 922 q 826 858 789 891 l 869 927 l 918 927 l 924 645 l 859 637 q 818 751 843 708 q 760 823 793 795 q 672 869 726 850 l 595 537 q 770 453 724 486 q 840 372 815 420 q 864 271 864 325 q 823 141 864 203 q 705 40 783 79 q 537 1 628 1 q 474 4 513 1 l 435 -162 l 369 -162 l 411 16 q 308 61 345 38 q 233 125 271 84 l 183 16 l 135 16 l 151 350 l 215 350 q 259 223 230 277 q 328 135 289 170 q 425 81 368 101 l 511 457 q 329 553 380 507 q 259 705 259 618 q 297 822 259 766 q 408 913 335 879 q 575 947 481 947 q 621 946 591 947 l 657 1097 m 607 882 q 589 882 595 882 q 428 835 488 882 q 368 723 368 787 q 400 639 368 673 q 534 562 439 597 l 607 882 m 488 66 q 530 63 516 63 q 645 91 589 63 q 728 159 701 118 q 755 250 755 201 q 739 320 755 290 q 691 374 723 351 q 572 432 659 397 l 488 66 z "},"%":{"ha":1111,"x_min":178,"x_max":1147,"o":"m 467 962 q 590 918 541 962 q 639 792 639 873 q 595 620 639 703 q 488 495 552 536 q 350 453 425 453 q 225 500 272 453 q 178 625 178 548 q 219 795 178 715 q 328 919 260 876 q 467 962 396 962 m 463 916 q 375 883 417 916 q 297 766 332 850 q 262 606 262 683 q 288 527 262 556 q 355 497 314 497 q 442 531 399 497 q 518 646 485 566 q 551 810 551 727 q 527 889 551 861 q 463 916 503 916 m 1107 962 l 290 -8 l 218 -8 l 1035 962 l 1107 962 m 976 500 q 1098 456 1049 500 q 1147 330 1147 412 q 1104 158 1147 241 q 997 33 1061 75 q 859 -8 933 -8 q 733 39 781 -8 q 686 163 686 86 q 728 334 686 254 q 837 458 770 415 q 976 500 905 500 m 972 455 q 884 422 926 455 q 806 305 842 389 q 771 144 771 221 q 797 65 771 94 q 864 35 823 35 q 951 70 908 35 q 1027 185 994 104 q 1060 349 1060 265 q 1036 427 1060 399 q 972 455 1012 455 z "},"&":{"ha":1139,"x_min":132,"x_max":1160,"o":"m 842 597 l 1160 597 l 1147 540 l 1115 540 q 1041 525 1064 540 q 1000 465 1018 511 q 913 300 962 374 q 823 187 865 227 q 878 84 850 113 q 963 46 913 46 q 1033 73 1004 46 q 1062 137 1062 100 q 1058 164 1062 153 q 1039 197 1057 170 q 1020 230 1021 224 q 1016 258 1016 241 q 1034 303 1016 285 q 1080 321 1052 321 q 1134 291 1111 321 q 1156 207 1156 260 q 1128 93 1156 144 q 1049 13 1099 41 q 937 -16 998 -16 q 816 21 869 -16 q 742 107 775 49 q 588 12 661 41 q 435 -16 515 -16 q 277 19 345 -16 q 171 117 209 55 q 132 252 132 179 q 210 441 132 360 q 476 586 300 537 q 414 630 435 607 q 381 683 393 652 q 369 749 369 714 q 400 852 369 804 q 493 931 431 900 q 623 962 555 962 q 732 939 684 962 q 804 874 779 916 q 828 781 828 832 q 795 674 828 724 q 704 595 762 625 q 604 567 665 574 q 697 512 665 543 q 759 419 730 481 q 807 263 788 356 q 913 429 877 353 q 938 501 938 477 q 932 523 938 515 q 911 536 927 530 q 876 540 901 540 l 828 540 l 842 597 m 625 898 q 548 876 584 898 q 490 815 511 854 q 469 730 469 777 q 499 647 469 678 q 579 616 530 616 q 690 673 649 616 q 730 787 730 730 q 717 844 730 818 q 680 884 703 871 q 625 898 656 898 m 528 549 q 330 437 397 505 q 256 267 256 361 q 284 160 256 209 q 360 85 312 112 q 471 58 409 58 q 582 81 525 58 q 718 163 639 104 q 686 273 704 202 q 621 455 653 400 q 528 549 589 511 z "},"'":{"ha":278,"x_min":248,"x_max":386,"o":"m 248 614 l 271 851 q 298 936 277 910 q 347 962 319 962 q 376 952 366 962 q 386 922 386 942 q 368 853 386 899 l 276 614 l 248 614 z "},"(":{"ha":389,"x_min":146,"x_max":562,"o":"m 521 986 l 562 946 q 426 756 475 859 q 301 350 361 620 q 241 -62 241 81 q 256 -181 241 -123 q 303 -289 272 -239 l 258 -322 q 178 -173 203 -255 q 146 50 146 -69 q 181 345 146 177 q 270 640 216 513 q 385 849 323 767 q 521 986 446 932 z "},")":{"ha":389,"x_min":-1,"x_max":414,"o":"m 41 -322 l -1 -282 q 135 -93 86 -195 q 260 313 200 43 q 321 726 321 583 q 305 845 321 787 q 258 952 289 903 l 303 986 q 382 836 357 919 q 414 614 414 732 q 380 318 414 486 q 292 23 345 151 q 177 -186 239 -104 q 41 -322 115 -268 z "},"*":{"ha":611,"x_min":233,"x_max":730,"o":"m 465 759 l 446 868 q 444 891 444 879 q 460 943 444 924 q 500 962 476 962 q 549 947 531 962 q 568 902 568 932 q 551 850 568 877 l 496 753 l 521 728 l 619 780 q 672 794 646 794 q 714 777 698 794 q 730 730 730 760 q 712 687 730 703 q 659 671 694 671 q 634 673 648 671 l 526 696 l 509 665 l 589 588 q 620 523 620 557 q 600 481 620 498 q 553 464 580 464 q 514 484 533 464 q 492 541 496 505 l 480 651 l 446 657 l 397 557 q 366 518 384 532 q 330 504 347 504 q 286 524 306 504 q 266 564 266 544 q 280 603 266 584 q 322 635 294 623 l 423 680 l 418 715 l 309 731 q 252 754 272 736 q 233 793 233 772 q 251 840 233 819 q 288 861 269 861 q 359 826 327 861 l 433 743 l 465 759 z "},"+":{"ha":833,"x_min":182,"x_max":844,"o":"m 844 515 l 844 431 l 555 431 l 555 142 l 471 142 l 471 431 l 182 431 l 182 515 l 471 515 l 471 804 l 555 804 l 555 515 l 844 515 z "},",":{"ha":416,"x_min":53,"x_max":321,"o":"m 83 -237 l 53 -191 q 159 -120 117 -156 q 221 -53 201 -83 q 239 0 233 -35 q 207 -3 219 -3 q 160 18 179 -3 q 140 73 140 39 q 163 131 140 109 q 220 153 185 153 q 291 121 262 153 q 321 39 321 90 q 299 -52 321 -7 q 227 -143 277 -97 q 83 -237 176 -189 z "},"-":{"ha":444,"x_min":115,"x_max":488,"o":"m 134 382 l 488 382 l 470 307 l 115 307 l 134 382 z "},"­":{"ha":444,"x_min":115,"x_max":488,"o":"m 134 382 l 488 382 l 470 307 l 115 307 l 134 382 z "},".":{"ha":416,"x_min":142,"x_max":305,"o":"m 237 148 q 286 129 267 148 q 305 80 305 110 q 277 12 305 41 q 212 -16 250 -16 q 160 2 178 -16 q 142 53 142 20 q 170 120 142 92 q 237 148 197 148 z "},"/":{"ha":833,"x_min":31,"x_max":789,"o":"m 789 993 l 123 -168 l 31 -168 l 697 993 l 789 993 z "},":":{"ha":416,"x_min":142,"x_max":423,"o":"m 355 671 q 404 652 385 671 q 423 604 423 633 q 395 535 423 564 q 330 507 368 507 q 278 525 296 507 q 260 576 260 543 q 288 643 260 615 q 355 671 315 671 m 237 148 q 286 129 267 148 q 305 80 305 110 q 277 12 305 41 q 212 -16 250 -16 q 160 2 178 -16 q 142 53 142 20 q 170 120 142 92 q 237 148 197 148 z "},";":{"ha":416,"x_min":50,"x_max":422,"o":"m 355 671 q 404 652 385 671 q 422 604 422 633 q 395 535 422 564 q 329 507 367 507 q 277 525 296 507 q 259 576 259 543 q 287 643 259 615 q 355 671 315 671 m 78 -238 l 50 -191 q 187 -87 147 -133 q 235 5 227 -41 q 204 0 216 0 q 159 18 176 0 q 142 64 142 35 q 167 123 142 98 q 228 148 193 148 q 292 118 266 148 q 318 43 318 88 q 78 -238 318 -111 z "},";":{"ha":416,"x_min":50,"x_max":422,"o":"m 355 671 q 404 652 385 671 q 422 604 422 633 q 395 535 422 564 q 329 507 367 507 q 277 525 296 507 q 259 576 259 543 q 287 643 259 615 q 355 671 315 671 m 78 -238 l 50 -191 q 187 -87 147 -133 q 235 5 227 -41 q 204 0 216 0 q 159 18 176 0 q 142 64 142 35 q 167 123 142 98 q 228 148 193 148 q 292 118 266 148 q 318 43 318 88 q 78 -238 318 -111 z "},"<":{"ha":833,"x_min":195,"x_max":806,"o":"m 806 123 l 195 394 l 195 462 l 806 734 l 806 636 l 319 428 l 806 220 l 806 123 z "},"=":{"ha":833,"x_min":182,"x_max":844,"o":"m 844 621 l 844 538 l 182 538 l 182 621 l 844 621 m 844 408 l 844 325 l 182 325 l 182 408 l 844 408 z "},">":{"ha":833,"x_min":220,"x_max":831,"o":"m 220 734 l 831 462 l 831 394 l 220 123 l 220 220 l 707 428 l 220 636 l 220 734 z "},"?":{"ha":750,"x_min":205,"x_max":838,"o":"m 356 228 l 288 228 l 341 461 q 404 460 383 460 q 587 489 517 460 q 692 572 656 518 q 728 695 728 626 q 666 841 728 787 q 520 895 604 895 q 453 884 483 895 q 404 854 424 873 q 374 813 395 846 q 342 772 351 779 q 302 758 324 758 q 258 774 275 758 q 240 814 240 790 q 267 882 240 850 q 360 938 294 913 q 506 962 427 962 q 679 923 601 962 q 797 820 756 884 q 838 680 838 755 q 789 527 838 597 q 644 416 739 456 q 390 376 549 376 l 356 228 m 300 148 q 349 129 330 148 q 368 80 368 110 q 340 12 368 41 q 275 -16 313 -16 q 223 2 241 -16 q 205 53 205 20 q 233 120 205 92 q 300 148 260 148 z "},"@":{"ha":1083,"x_min":107,"x_max":1286,"o":"m 996 650 l 917 379 l 871 217 q 857 152 861 179 q 854 123 854 134 q 868 85 854 100 q 905 70 882 70 q 1028 123 960 70 q 1145 284 1097 176 q 1192 512 1192 393 q 1136 727 1192 631 q 980 876 1080 823 q 753 930 880 930 q 465 849 596 930 q 253 614 334 768 q 171 283 171 460 q 239 1 171 125 q 428 -190 307 -122 q 702 -258 549 -258 q 927 -215 823 -258 q 1113 -89 1031 -172 q 1247 117 1195 -6 l 1286 117 q 1236 0 1264 47 q 1102 -156 1185 -87 q 916 -262 1020 -224 q 699 -300 812 -300 q 396 -222 531 -300 q 184 -7 261 -144 q 107 301 107 130 q 193 638 107 486 q 427 877 278 790 q 749 964 576 964 q 1002 906 894 964 q 1172 741 1111 848 q 1233 500 1233 633 q 1172 243 1233 363 q 1030 72 1112 123 q 860 21 949 21 q 781 45 808 21 q 755 115 755 70 q 767 214 755 152 q 610 59 671 97 q 500 20 549 20 q 440 39 467 20 q 395 97 412 58 q 377 180 377 135 q 434 385 377 271 q 584 577 491 500 q 751 654 677 654 q 806 642 780 654 q 845 612 831 630 q 867 560 859 595 l 890 635 l 996 650 m 758 622 q 690 598 728 622 q 602 503 652 574 q 518 342 553 432 q 484 201 484 252 q 508 130 484 157 q 563 102 532 102 q 651 137 602 102 q 758 254 701 171 q 806 349 787 297 q 843 522 843 457 q 819 595 843 568 q 758 622 794 622 z "},"A":{"ha":972,"x_min":0,"x_max":985,"o":"m 625 946 l 741 946 l 880 155 q 899 89 889 106 q 925 64 909 71 q 985 57 940 58 l 972 0 l 625 0 l 641 57 l 679 57 q 743 73 725 57 q 762 115 762 88 q 757 161 762 130 l 724 352 l 362 352 l 240 138 q 225 93 225 112 q 239 66 225 76 q 298 57 253 57 l 330 57 l 316 0 l 0 0 l 14 57 q 78 65 59 58 q 112 88 97 73 q 161 161 127 104 l 625 946 m 713 418 l 644 838 l 401 418 l 713 418 z "},"B":{"ha":1000,"x_min":56,"x_max":1084,"o":"m 271 946 l 747 946 q 951 923 888 946 q 1049 852 1014 900 q 1084 742 1084 804 q 1048 622 1084 676 q 949 533 1013 567 q 822 491 903 508 q 918 460 886 478 q 990 394 964 436 q 1017 297 1017 351 q 999 206 1017 252 q 945 121 981 161 q 859 54 909 81 q 746 16 809 27 q 568 0 658 0 l 56 0 l 69 57 q 146 61 131 58 q 186 83 172 66 q 217 157 206 108 l 359 785 q 367 838 367 822 q 358 866 367 853 q 335 884 349 879 q 283 888 321 888 l 256 888 l 271 946 m 498 870 l 420 525 l 625 525 q 818 549 754 525 q 916 625 881 574 q 951 736 951 675 q 928 810 951 779 q 869 856 906 842 q 741 870 831 870 l 498 870 m 404 460 l 330 130 q 326 100 326 110 q 341 77 326 85 q 385 73 349 73 l 518 73 q 614 77 527 73 q 699 85 680 81 q 773 113 738 94 q 833 162 808 133 q 872 226 858 191 q 886 298 886 262 q 858 384 886 345 q 781 441 831 422 q 626 460 732 460 l 404 460 z "},"C":{"ha":1000,"x_min":165,"x_max":1087,"o":"m 1023 942 l 1075 942 l 1087 628 l 1023 620 q 957 779 994 726 q 863 859 919 831 q 736 887 807 887 q 531 824 628 887 q 371 636 434 760 q 307 376 307 513 q 345 214 307 286 q 450 103 383 142 q 599 64 517 64 q 723 83 659 64 q 839 135 787 102 q 998 264 892 168 l 1040 226 q 803 39 933 104 q 569 -16 694 -16 q 353 34 431 -16 q 219 166 274 84 q 165 379 165 249 q 242 669 165 534 q 451 884 320 805 q 731 962 583 962 q 848 947 790 962 q 926 916 891 937 q 983 871 951 902 l 1023 942 z "},"D":{"ha":1027,"x_min":56,"x_max":1095,"o":"m 271 946 l 650 946 q 907 901 810 946 q 1042 773 989 862 q 1095 572 1095 684 q 1064 386 1095 479 q 976 216 1032 292 q 852 94 919 139 q 697 28 785 49 q 450 0 583 0 l 56 0 l 68 57 q 144 60 134 58 q 172 73 159 63 q 199 105 190 87 q 219 172 208 122 l 359 787 q 367 836 367 821 q 358 866 367 853 q 337 884 349 880 q 283 888 324 888 l 258 888 l 271 946 m 499 870 l 331 132 q 326 98 326 108 q 336 79 326 85 q 382 73 346 73 l 437 73 q 617 89 529 73 q 714 125 666 98 q 807 198 763 152 q 887 307 851 243 q 941 439 922 370 q 959 576 959 507 q 920 738 959 673 q 812 837 881 803 q 618 870 744 870 l 499 870 z "},"E":{"ha":945,"x_min":54,"x_max":1028,"o":"m 268 946 l 950 946 l 1028 696 l 966 676 q 902 793 938 753 q 822 849 865 833 q 669 869 764 869 l 495 869 l 417 523 l 532 523 q 639 538 604 523 q 697 586 673 553 q 734 683 722 620 l 800 683 l 713 299 l 647 299 q 657 372 657 351 q 642 419 657 398 q 603 450 627 441 q 513 458 579 458 l 403 458 l 326 126 q 321 97 321 104 q 332 76 321 83 q 374 71 340 71 l 526 71 q 707 95 637 71 q 826 164 777 119 q 939 322 876 210 l 998 299 l 854 0 l 54 0 l 67 57 q 156 64 136 58 q 186 86 176 71 q 214 157 204 111 l 357 785 q 365 833 365 820 q 345 877 365 865 q 277 888 324 888 l 256 888 l 268 946 z "},"F":{"ha":861,"x_min":51,"x_max":1021,"o":"m 265 946 l 941 946 l 1021 697 l 959 677 q 893 794 931 751 q 809 852 855 836 q 666 869 764 869 l 492 869 l 408 507 l 513 507 q 611 517 578 507 q 667 547 644 526 q 703 601 690 568 q 722 668 709 614 l 789 668 l 701 283 l 635 283 l 640 304 q 646 351 646 332 q 632 401 646 381 q 592 431 618 422 q 503 441 567 441 l 395 441 l 330 157 q 323 112 323 129 q 342 71 323 85 q 408 57 360 57 l 436 57 l 424 0 l 51 0 l 64 57 l 92 57 q 157 65 138 57 q 188 93 175 73 q 212 157 201 113 l 354 788 q 361 836 361 821 q 340 878 361 861 q 286 888 325 888 l 252 888 l 265 946 z "},"G":{"ha":1055,"x_min":164,"x_max":1163,"o":"m 1069 941 l 1078 650 l 1012 644 q 911 824 986 760 q 732 888 837 888 q 529 825 625 888 q 371 639 433 762 q 308 381 308 517 q 342 211 308 282 q 438 100 376 140 q 568 60 500 60 q 686 77 625 60 q 793 121 748 94 q 844 166 827 142 q 873 244 861 191 l 893 329 q 899 370 899 357 q 890 398 899 385 q 868 415 882 410 q 815 420 854 420 l 772 420 l 785 477 l 1163 477 l 1151 420 l 1122 420 q 1066 412 1084 420 q 1036 384 1048 403 q 1012 311 1024 364 l 939 0 l 873 0 l 861 85 q 728 11 808 38 q 557 -16 648 -16 q 359 32 441 -16 q 216 176 269 85 q 164 381 164 267 q 242 670 164 534 q 452 884 320 806 q 734 962 583 962 q 868 942 811 962 q 979 876 925 922 l 1019 941 l 1069 941 z "},"H":{"ha":1111,"x_min":53,"x_max":1274,"o":"m 270 946 l 644 946 l 629 888 l 600 888 q 533 881 551 888 q 503 854 515 873 q 477 782 488 831 l 420 522 l 928 522 l 989 790 q 999 840 999 831 q 988 869 999 855 q 961 886 977 882 q 886 888 951 888 l 901 946 l 1274 946 l 1260 888 l 1227 888 q 1164 879 1184 888 q 1133 853 1144 870 q 1109 782 1121 836 l 964 153 q 958 110 958 125 q 980 67 958 82 q 1042 57 994 57 l 1071 57 l 1058 0 l 684 0 l 696 57 l 722 57 q 778 61 762 57 q 807 76 794 66 q 828 102 819 85 q 844 153 836 118 l 911 449 l 402 449 l 336 163 q 328 109 328 127 q 339 79 328 92 q 368 61 349 66 q 440 57 380 57 l 427 0 l 53 0 l 67 57 l 89 57 q 148 62 130 57 q 177 77 165 66 q 196 100 190 87 q 216 163 208 123 l 358 782 q 367 838 367 821 q 358 866 367 853 q 337 884 350 880 q 286 888 325 888 l 255 888 l 270 946 z "},"I":{"ha":444,"x_min":35,"x_max":623,"o":"m 249 946 l 623 946 l 610 888 l 588 888 q 517 880 537 888 q 484 853 496 871 q 459 782 471 834 l 319 167 q 310 108 310 123 q 332 67 310 82 q 390 57 347 57 l 422 57 l 408 0 l 35 0 l 47 57 l 75 57 q 141 66 120 57 q 173 93 161 75 q 197 159 185 110 l 340 789 q 347 836 347 821 q 339 866 347 854 q 316 883 331 878 q 261 888 301 888 l 237 888 l 249 946 z "},"J":{"ha":778,"x_min":52,"x_max":981,"o":"m 608 946 l 981 946 l 969 888 l 932 888 q 868 878 888 888 q 836 846 848 867 q 819 786 829 831 l 707 290 q 659 152 686 199 q 581 66 631 105 q 465 6 531 28 q 330 -16 399 -16 q 182 15 246 -16 q 84 97 117 45 q 52 212 52 149 q 81 308 52 270 q 146 345 110 345 q 189 328 172 345 q 205 285 205 311 q 184 228 205 261 q 164 176 164 194 q 209 92 164 129 q 326 54 253 54 q 429 74 383 54 q 510 131 475 94 q 565 222 545 168 q 591 316 579 258 l 700 786 q 707 838 707 817 q 697 868 707 855 q 672 885 687 881 q 595 888 657 888 l 608 946 z "},"K":{"ha":1000,"x_min":56,"x_max":1169,"o":"m 271 946 l 640 946 l 630 888 l 597 888 q 535 880 553 888 q 504 852 516 871 q 479 779 491 832 l 401 434 l 831 795 q 877 841 866 825 q 884 864 884 852 q 874 883 884 877 q 824 888 864 888 l 795 888 l 810 946 l 1169 946 l 1155 888 q 1090 882 1117 888 q 1040 861 1063 875 q 976 813 1025 852 l 655 556 l 848 172 q 898 91 876 115 q 936 65 913 74 q 1010 57 958 57 l 998 0 l 626 0 l 640 57 l 672 57 q 726 64 715 57 q 742 94 742 73 q 725 145 742 111 l 563 481 l 378 334 l 337 160 q 329 109 329 125 q 338 81 329 94 q 363 62 348 68 q 416 57 378 57 l 441 57 l 429 0 l 56 0 l 68 57 l 93 57 q 163 66 141 57 q 197 99 184 76 q 220 166 210 121 l 359 779 q 369 836 369 822 q 361 866 369 854 q 338 883 353 878 q 285 888 323 888 l 258 888 l 271 946 z "},"L":{"ha":806,"x_min":52,"x_max":875,"o":"m 266 946 l 636 946 l 624 888 l 595 888 q 528 880 547 888 q 497 852 509 872 q 471 774 484 831 l 326 127 q 319 97 319 102 q 329 78 319 84 q 369 71 338 71 l 427 71 q 589 97 521 71 q 707 170 657 122 q 816 322 758 217 l 875 296 l 730 0 l 52 0 l 64 57 l 94 57 q 156 64 140 57 q 190 94 177 75 q 215 162 203 113 l 355 782 q 362 838 362 814 q 354 867 362 856 q 332 883 347 878 q 280 888 318 888 l 253 888 l 266 946 z "},"M":{"ha":1194,"x_min":49,"x_max":1357,"o":"m 261 946 l 556 946 l 634 189 l 1054 946 l 1357 946 l 1343 888 l 1307 888 q 1255 882 1272 888 q 1226 864 1237 876 q 1207 831 1215 852 q 1193 784 1196 798 l 1048 144 q 1044 113 1044 124 q 1065 68 1044 83 q 1122 57 1079 57 l 1156 57 l 1143 0 l 770 0 l 783 57 l 813 57 q 876 65 857 57 q 907 91 894 73 q 928 144 921 109 l 1091 869 l 608 0 l 543 0 l 453 875 l 288 144 q 283 111 283 121 q 291 80 283 95 q 310 63 296 70 q 343 57 324 57 l 396 57 l 384 0 l 49 0 l 63 57 l 102 57 q 174 77 151 57 q 210 156 197 98 l 356 799 q 359 836 359 813 q 345 875 359 861 q 302 889 330 889 l 288 888 l 248 888 l 261 946 z "},"N":{"ha":1000,"x_min":52,"x_max":1186,"o":"m 267 946 l 555 946 l 813 209 l 946 796 q 952 837 952 825 q 932 876 952 863 q 873 884 918 884 l 843 884 l 855 946 l 1186 946 l 1173 884 l 1147 884 q 1079 876 1099 884 q 1047 851 1059 868 q 1024 785 1036 835 l 843 0 l 765 0 l 456 876 l 292 153 q 286 111 286 127 q 294 81 286 94 q 318 62 303 68 q 374 57 332 57 l 397 57 l 384 0 l 52 0 l 64 57 l 94 57 q 159 66 140 57 q 192 96 178 75 q 216 170 205 117 l 357 785 q 364 834 364 814 q 345 876 364 863 q 288 884 330 884 l 254 884 l 267 946 z "},"O":{"ha":1055,"x_min":147,"x_max":1122,"o":"m 722 962 q 1005 858 894 962 q 1122 561 1122 747 q 1044 272 1122 408 q 831 59 965 137 q 544 -16 701 -16 q 337 33 425 -16 q 198 172 250 83 q 147 376 147 261 q 225 668 147 531 q 437 884 304 806 q 722 962 570 962 m 726 890 q 513 826 610 890 q 351 632 416 762 q 286 358 286 502 q 320 196 286 267 q 414 90 355 125 q 550 54 473 54 q 757 119 660 54 q 920 316 854 184 q 985 591 985 448 q 950 749 985 681 q 857 854 916 817 q 726 890 798 890 z "},"P":{"ha":833,"x_min":52,"x_max":972,"o":"m 267 946 l 665 946 q 843 919 783 946 q 938 840 903 892 q 972 718 972 787 q 920 552 972 629 q 780 437 869 475 q 528 404 702 404 l 389 404 l 332 156 q 326 109 326 126 q 334 80 326 92 q 357 62 343 68 q 410 57 372 57 l 436 57 l 424 0 l 52 0 l 64 57 l 94 57 q 175 77 151 57 q 212 156 198 96 l 353 783 q 362 833 362 821 q 352 868 362 854 q 327 886 342 882 q 252 888 315 888 l 267 946 m 495 870 l 404 474 l 508 474 q 677 488 633 474 q 791 571 745 509 q 838 713 838 633 q 808 810 838 772 q 731 861 779 848 q 611 870 700 870 l 495 870 z "},"Q":{"ha":1083,"x_min":161,"x_max":1136,"o":"m 468 -9 q 249 120 336 14 q 161 376 161 227 q 239 668 161 531 q 449 884 317 806 q 732 962 581 962 q 944 912 853 962 q 1085 771 1035 862 q 1136 561 1136 680 q 1063 283 1136 414 q 866 73 990 152 q 591 -16 743 -6 q 585 -66 585 -47 q 617 -137 585 -108 q 704 -167 650 -167 q 884 -117 787 -167 l 911 -167 q 780 -228 849 -206 q 654 -249 711 -249 q 552 -225 600 -249 q 482 -162 505 -201 q 459 -73 459 -123 q 468 -9 459 -43 m 739 890 q 527 826 624 890 q 364 632 429 762 q 299 358 299 502 q 334 196 299 267 q 428 90 368 125 q 564 54 487 54 q 771 119 673 54 q 933 316 868 184 q 999 591 999 448 q 964 749 999 681 q 870 854 929 817 q 739 890 811 890 z "},"R":{"ha":972,"x_min":56,"x_max":1049,"o":"m 271 946 l 740 946 q 922 922 862 946 q 1016 848 982 897 q 1049 732 1049 798 q 1005 589 1049 656 q 887 489 960 522 q 661 452 814 456 l 837 141 q 876 88 852 115 q 913 63 891 71 q 984 57 936 56 l 972 0 l 781 0 l 537 452 l 406 452 l 337 152 q 331 111 331 127 q 342 78 331 93 q 368 60 353 64 q 443 57 378 57 l 429 0 l 56 0 l 69 57 l 90 57 q 161 65 141 57 q 193 91 181 74 q 216 160 205 109 l 359 779 q 368 836 368 816 q 348 877 368 865 q 282 888 328 888 l 257 888 l 271 946 m 500 871 l 418 516 l 604 516 q 789 538 735 516 q 878 612 843 560 q 913 728 913 664 q 891 808 913 777 q 828 856 869 840 q 692 871 787 871 l 500 871 z "},"S":{"ha":889,"x_min":139,"x_max":969,"o":"m 914 946 l 964 946 l 969 646 l 903 646 q 798 818 877 747 q 602 888 720 888 q 483 864 536 888 q 404 802 431 840 q 376 726 376 764 q 394 666 376 694 q 452 612 411 637 q 597 550 494 586 q 803 461 747 497 q 885 378 858 425 q 912 278 912 332 q 865 135 912 205 q 734 24 818 65 q 537 -16 650 -16 q 380 9 448 -16 q 241 97 313 34 l 184 0 l 139 0 l 154 347 l 218 347 q 329 134 243 210 q 536 58 414 58 q 728 120 649 58 q 792 247 792 172 q 767 327 792 292 q 678 393 741 361 q 508 457 643 410 q 332 551 381 503 q 264 705 264 619 q 306 827 264 768 q 429 925 348 887 q 610 962 509 962 q 746 941 685 962 q 869 872 808 920 l 914 946 z "},"T":{"ha":833,"x_min":154,"x_max":1004,"o":"m 968 976 l 1004 695 l 939 682 q 897 804 925 761 q 830 866 869 847 q 711 885 791 885 q 681 879 688 885 q 667 848 673 872 l 510 153 q 505 109 505 126 q 514 78 505 92 q 542 61 524 65 q 615 57 559 57 l 603 0 l 229 0 l 243 57 q 314 61 291 58 q 350 74 337 64 q 370 100 362 83 q 387 144 384 128 l 543 837 q 548 868 548 858 q 541 881 548 877 q 509 885 534 885 q 394 864 441 885 q 295 789 346 842 q 210 673 262 755 l 154 705 l 300 976 l 347 976 l 347 946 l 906 946 l 918 976 l 968 976 z "},"U":{"ha":1000,"x_min":203,"x_max":1200,"o":"m 227 946 l 598 946 l 587 888 l 555 888 q 493 881 511 888 q 462 853 475 873 q 439 791 449 833 l 335 334 q 324 249 324 286 q 350 156 324 198 q 429 89 376 114 q 547 64 481 64 q 700 103 630 64 q 805 209 769 142 q 861 363 842 276 l 960 791 q 968 841 968 826 q 960 868 968 857 q 937 885 951 880 q 883 888 926 888 l 857 888 l 869 946 l 1200 946 l 1188 888 l 1156 888 q 1094 880 1114 888 q 1062 853 1075 871 q 1040 791 1049 834 l 935 334 q 903 227 920 265 q 813 96 871 153 q 682 12 755 39 q 519 -16 609 -16 q 286 61 368 -16 q 203 231 203 139 q 215 338 203 285 l 317 785 q 324 836 324 819 q 315 866 324 853 q 293 884 307 880 q 236 888 279 888 l 215 888 l 227 946 z "},"V":{"ha":945,"x_min":203,"x_max":1156,"o":"m 216 946 l 562 946 l 550 888 l 516 888 q 461 883 476 888 q 437 862 446 877 q 428 826 428 848 q 432 777 428 805 l 528 109 l 903 785 q 928 853 928 830 q 909 882 928 873 q 858 888 897 888 l 824 888 l 837 946 l 1156 946 l 1143 888 q 1081 882 1099 888 q 1046 859 1063 876 q 1002 793 1030 842 l 545 0 l 432 0 l 308 777 q 289 855 298 836 q 264 881 279 873 q 203 888 248 888 l 216 946 z "},"W":{"ha":1333,"x_min":214,"x_max":1535,"o":"m 227 946 l 562 946 l 548 888 l 524 888 q 468 882 484 888 q 443 861 452 876 q 434 823 434 846 q 435 797 434 815 l 488 134 l 795 728 l 788 797 q 775 857 783 842 q 749 880 767 872 q 693 888 732 888 l 705 946 l 1036 946 l 1022 888 l 994 888 q 942 882 956 888 q 919 863 927 876 q 911 824 911 849 q 911 797 911 812 l 964 125 l 1298 797 q 1317 850 1317 834 q 1310 872 1317 863 q 1290 885 1302 881 q 1238 888 1277 888 l 1215 888 l 1227 946 l 1535 946 l 1522 888 q 1461 882 1480 888 q 1430 863 1442 875 q 1390 797 1415 845 l 979 0 l 863 0 l 806 592 l 502 0 l 387 0 l 311 797 q 298 857 307 841 q 272 881 289 873 q 214 888 254 889 l 227 946 z "},"X":{"ha":972,"x_min":3,"x_max":1128,"o":"m 247 946 l 602 946 l 589 888 l 557 888 q 499 880 511 888 q 486 853 486 872 q 497 814 486 842 l 503 800 l 617 571 l 844 806 q 878 845 872 836 q 884 863 884 854 q 873 882 884 876 q 824 888 863 888 l 789 888 l 802 946 l 1128 946 l 1116 888 q 1034 874 1063 888 q 956 812 1004 861 l 656 510 l 844 153 q 885 86 871 101 q 919 64 899 71 q 983 57 939 58 l 969 0 l 614 0 l 628 57 l 656 57 q 708 64 695 57 q 727 95 727 74 q 714 137 727 113 l 708 149 l 567 430 l 275 130 q 246 84 246 100 q 259 64 246 71 q 316 57 271 57 l 342 57 l 330 0 l 3 0 l 16 57 q 90 70 66 58 q 171 130 132 90 l 531 490 l 355 821 q 325 865 338 853 q 293 883 312 878 q 234 888 275 888 l 247 946 z "},"Y":{"ha":917,"x_min":203,"x_max":1127,"o":"m 218 946 l 563 946 l 550 888 l 509 888 q 454 880 467 888 q 441 852 441 871 q 452 810 441 838 l 586 454 l 861 804 q 890 861 890 841 q 878 882 890 875 q 822 888 866 888 l 792 888 l 804 946 l 1127 946 l 1114 888 q 1055 884 1074 889 q 1023 869 1036 879 q 978 823 1004 855 l 624 392 l 571 156 q 565 111 565 126 q 587 66 565 80 q 646 57 602 57 l 675 57 l 663 0 l 290 0 l 303 57 q 380 60 368 58 q 424 88 407 67 q 452 165 440 109 l 498 367 l 319 810 q 293 867 299 860 q 269 883 283 878 q 203 888 254 888 l 218 946 z "},"Z":{"ha":806,"x_min":30,"x_max":954,"o":"m 307 946 l 954 946 l 941 888 l 212 73 l 349 73 q 554 96 482 73 q 686 169 627 119 q 815 328 746 219 l 872 296 l 707 0 l 30 0 l 42 57 l 770 870 l 613 870 q 441 850 505 870 q 330 790 378 831 q 221 654 283 750 l 163 687 l 307 946 z "},"[":{"ha":361,"x_min":45,"x_max":548,"o":"m 345 986 l 548 986 l 532 920 l 425 920 l 155 -257 l 263 -257 l 249 -322 l 45 -322 l 345 986 z "},"\\":{"ha":833,"x_min":97,"x_max":862,"o":"m 189 993 l 862 -168 l 770 -168 l 97 993 l 189 993 z "},"]":{"ha":361,"x_min":-53,"x_max":450,"o":"m 149 -322 l -53 -322 l -38 -256 l 69 -256 l 340 920 l 232 920 l 246 986 l 450 986 l 149 -322 z "},"^":{"ha":833,"x_min":168,"x_max":859,"o":"m 264 404 l 168 404 l 467 962 l 559 962 l 859 404 l 763 404 l 513 852 l 264 404 z "},"_":{"ha":694,"x_min":-8,"x_max":703,"o":"m -8 -104 l 703 -104 l 703 -174 l -8 -174 l -8 -104 z "},"`":{"ha":472,"x_min":293,"x_max":557,"o":"m 539 743 l 384 804 q 293 892 293 841 q 309 935 293 918 q 349 953 326 953 q 384 943 368 953 q 462 877 414 924 l 557 783 l 539 743 z "},"a":{"ha":861,"x_min":120,"x_max":925,"o":"m 753 654 l 838 654 l 723 147 q 717 102 717 121 q 729 66 717 79 q 760 54 741 54 q 804 68 782 54 q 882 141 838 90 l 925 103 q 833 19 859 35 q 728 -12 783 -12 q 664 2 690 -12 q 623 42 638 16 q 608 97 608 68 q 621 180 608 119 q 520 62 568 103 q 423 3 473 22 q 323 -16 374 -16 q 180 45 234 -16 q 120 222 120 113 q 177 448 120 341 q 325 613 233 555 q 515 671 417 671 q 630 649 578 671 q 723 583 682 627 l 753 654 m 700 528 q 620 582 665 563 q 532 601 574 601 q 400 555 465 601 q 290 408 336 509 q 243 204 243 307 q 258 124 243 158 q 299 74 273 91 q 355 57 325 57 q 472 102 410 57 q 612 270 550 157 q 700 528 673 383 z "},"b":{"ha":833,"x_min":139,"x_max":859,"o":"m 471 995 l 353 465 q 419 553 388 521 q 536 642 477 613 q 654 671 595 671 q 801 608 742 671 q 859 449 859 546 q 799 215 859 328 q 648 42 739 101 q 454 -16 556 -16 q 352 2 398 -16 q 254 66 306 20 l 223 0 l 139 0 l 336 880 l 210 880 l 223 938 q 418 995 327 947 l 471 995 m 277 121 q 353 67 314 85 q 434 50 393 50 q 569 97 503 50 q 684 245 635 145 q 733 441 733 346 q 717 530 733 490 q 679 574 705 557 q 621 591 652 591 q 491 538 556 591 q 344 338 404 465 q 277 121 305 254 z "},"c":{"ha":667,"x_min":119,"x_max":744,"o":"m 677 186 l 718 145 q 377 -16 540 -16 q 242 16 300 -16 q 152 109 184 48 q 119 245 119 170 q 177 456 119 354 q 329 614 235 558 q 530 671 424 671 q 684 620 623 671 q 744 504 744 569 q 725 439 744 462 q 676 417 707 417 q 637 435 653 417 q 621 477 621 452 l 621 498 l 622 522 q 595 578 622 554 q 526 602 568 602 q 399 556 463 602 q 290 420 335 511 q 245 235 245 329 q 267 144 245 184 q 325 80 288 103 q 403 58 362 58 q 481 70 438 58 q 566 105 524 82 q 677 186 607 129 z "},"d":{"ha":889,"x_min":127,"x_max":941,"o":"m 930 995 l 744 164 q 732 100 732 115 q 745 68 732 81 q 775 55 757 55 q 805 61 791 55 q 840 82 820 66 q 899 141 848 90 l 941 104 q 864 29 889 47 q 806 -1 838 10 q 742 -12 774 -12 q 680 3 707 -12 q 638 43 654 17 q 623 99 623 70 q 638 183 623 123 q 539 65 587 106 q 440 3 491 23 q 336 -16 390 -16 q 227 11 271 -16 q 156 94 184 37 q 127 223 127 150 q 185 447 127 340 q 336 612 243 553 q 530 671 429 671 q 638 652 589 671 q 730 592 687 633 l 795 880 l 669 880 l 682 938 q 786 959 730 943 q 877 995 842 976 l 930 995 m 716 530 q 634 582 682 563 q 543 601 587 601 q 410 554 475 601 q 298 408 345 507 q 252 203 252 309 q 284 96 252 135 q 364 57 317 57 q 479 98 421 57 q 617 250 561 154 q 716 530 673 346 z "},"e":{"ha":750,"x_min":123,"x_max":789,"o":"m 707 179 l 745 136 q 568 22 660 60 q 387 -16 475 -16 q 196 57 269 -16 q 123 250 123 130 q 183 455 123 358 q 351 612 243 553 q 581 671 458 671 q 734 626 679 671 q 789 520 789 581 q 765 445 789 484 q 684 371 741 405 q 519 315 627 337 q 254 284 411 292 q 250 244 250 258 q 273 149 250 191 q 337 82 296 106 q 425 57 379 57 q 559 88 482 57 q 707 179 636 119 m 262 338 q 485 371 416 355 q 637 435 596 397 q 677 517 677 473 q 647 581 677 555 q 562 607 617 607 q 438 572 503 607 q 328 478 373 538 q 262 338 282 418 z "},"f":{"ha":472,"x_min":-133,"x_max":776,"o":"m 579 654 l 564 584 l 412 584 l 281 6 q 230 -153 264 -73 q 134 -276 197 -233 q -2 -320 72 -320 q -97 -294 -62 -320 q -133 -235 -133 -267 q -117 -197 -133 -213 q -78 -181 -101 -181 q -18 -211 -51 -181 q 16 -238 5 -232 q 39 -244 27 -244 q 107 -209 77 -244 q 161 -58 136 -174 l 301 584 l 175 584 l 190 654 l 317 654 l 332 722 q 435 930 364 866 q 617 995 507 995 q 734 963 692 995 q 776 895 776 932 q 759 855 776 872 q 718 838 741 838 q 689 846 702 838 q 650 880 672 855 q 610 918 626 908 q 576 927 593 927 q 532 914 553 927 q 496 877 511 901 q 462 800 481 853 q 444 730 453 775 l 427 654 l 579 654 z "},"g":{"ha":778,"x_min":60,"x_max":831,"o":"m 831 654 l 694 27 q 615 -169 667 -98 q 482 -280 564 -239 q 298 -320 400 -320 q 124 -276 189 -320 q 60 -185 60 -232 q 76 -143 60 -161 q 113 -125 92 -125 q 139 -131 127 -125 q 166 -149 152 -136 q 199 -190 176 -159 q 232 -229 222 -221 q 272 -249 249 -241 q 321 -256 295 -256 q 432 -224 379 -256 q 523 -132 486 -193 q 586 45 561 -71 l 616 182 q 555 100 585 131 q 437 13 499 42 q 317 -16 374 -16 q 176 44 229 -16 q 115 221 115 113 q 172 447 115 338 q 319 613 229 555 q 509 671 410 671 q 592 660 551 671 q 665 628 633 648 q 715 583 690 613 l 747 654 l 831 654 m 694 530 q 614 584 654 566 q 531 602 573 602 q 398 554 465 602 q 284 407 331 507 q 237 203 237 307 q 269 96 237 135 q 345 58 300 58 q 456 96 401 58 q 598 258 539 156 q 694 530 656 361 z "},"h":{"ha":861,"x_min":137,"x_max":926,"o":"m 469 995 l 351 463 q 450 582 398 536 q 554 649 502 628 q 656 671 606 671 q 765 632 722 671 q 808 543 808 593 q 799 471 808 513 l 728 162 q 720 104 720 125 q 732 68 720 82 q 762 55 744 55 q 810 71 786 55 q 883 143 849 98 l 926 106 q 728 -12 836 -12 q 643 20 677 -12 q 610 94 610 52 q 618 162 610 122 l 690 482 q 696 533 696 511 q 676 577 696 559 q 626 595 656 595 q 535 568 581 595 q 411 451 469 528 q 321 282 354 373 q 273 117 289 191 l 247 0 l 137 0 l 334 881 l 208 881 l 221 938 q 418 995 325 949 l 469 995 z "},"i":{"ha":389,"x_min":135,"x_max":469,"o":"m 393 995 q 441 976 422 995 q 460 925 460 956 q 436 864 460 890 q 378 839 411 839 q 328 860 349 839 q 307 909 307 880 q 332 969 307 944 q 393 995 358 995 m 399 671 l 268 151 q 260 100 260 119 q 271 66 260 79 q 302 54 283 54 q 345 67 324 54 q 425 141 376 87 l 469 103 q 373 19 427 49 q 271 -12 319 -12 q 184 21 219 -12 q 150 96 150 53 q 161 171 150 125 l 259 560 l 135 560 l 147 616 q 242 631 199 619 q 347 671 285 642 l 399 671 z "},"j":{"ha":389,"x_min":-172,"x_max":503,"o":"m 435 995 q 483 976 464 995 q 503 925 503 956 q 478 864 503 890 q 421 839 454 839 q 370 860 391 839 q 349 909 349 880 q 374 969 349 944 q 435 995 400 995 m 435 671 l 275 -45 q 246 -134 268 -74 q 192 -229 224 -194 q 98 -299 147 -277 q -20 -320 48 -320 q -128 -290 -83 -320 q -172 -222 -172 -260 q -156 -181 -172 -197 q -115 -165 -140 -165 q -82 -174 -97 -165 q -48 -206 -68 -182 q -8 -244 -24 -235 q 27 -254 8 -254 q 76 -238 53 -254 q 118 -189 100 -222 q 151 -84 136 -155 l 297 559 l 173 559 l 185 614 q 295 635 262 625 q 387 671 329 644 l 435 671 z "},"k":{"ha":833,"x_min":135,"x_max":906,"o":"m 468 995 l 320 337 q 465 530 389 455 q 613 638 541 605 q 755 671 685 671 q 855 648 822 671 q 888 591 888 625 q 871 551 888 568 q 831 534 854 534 q 805 539 816 534 q 762 566 793 543 q 690 593 722 593 q 604 568 653 593 q 517 504 574 553 l 652 165 q 699 79 678 99 q 743 59 719 59 q 792 75 767 59 q 862 143 817 91 l 906 106 q 805 13 850 38 q 712 -12 760 -12 q 648 1 676 -12 q 602 38 621 14 q 553 124 572 77 l 437 416 q 328 241 368 329 q 242 0 270 115 l 135 0 l 332 881 l 206 881 l 220 938 q 416 995 322 949 l 468 995 z "},"l":{"ha":389,"x_min":151,"x_max":467,"o":"m 456 995 l 269 164 q 259 103 259 118 q 271 67 259 80 q 301 55 282 55 q 345 68 326 55 q 423 142 376 88 l 467 104 q 270 -12 371 -12 q 183 19 216 -12 q 151 96 151 50 q 158 159 151 126 l 320 880 l 195 880 l 208 938 q 318 961 277 949 q 404 995 359 973 l 456 995 z "},"m":{"ha":1222,"x_min":147,"x_max":1287,"o":"m 274 557 l 147 557 l 162 614 q 270 636 229 623 q 353 671 312 649 l 403 671 l 369 513 q 443 603 404 570 q 529 653 482 635 q 625 671 576 671 q 731 633 690 671 q 772 544 772 595 q 770 519 772 536 q 843 605 804 572 q 927 654 882 637 q 1019 671 972 671 q 1126 631 1083 671 q 1170 542 1170 592 q 1160 471 1170 513 l 1089 162 q 1079 98 1079 117 q 1091 68 1079 80 q 1122 56 1103 56 q 1170 71 1148 56 q 1244 142 1192 86 l 1287 106 q 1188 15 1236 42 q 1090 -12 1140 -12 q 1003 20 1036 -12 q 969 94 969 52 q 979 162 969 122 l 1049 471 q 1058 529 1058 509 q 1038 577 1058 558 q 987 596 1017 596 q 915 578 949 596 q 824 500 867 553 q 756 381 781 448 q 694 161 721 286 q 688 132 692 151 l 655 0 l 547 0 l 655 471 q 661 531 661 497 q 642 578 661 560 q 591 596 622 596 q 504 569 550 596 q 419 488 458 541 q 349 350 380 435 q 303 197 318 264 l 259 0 l 147 0 l 274 557 z "},"n":{"ha":861,"x_min":146,"x_max":932,"o":"m 402 671 l 354 458 q 418 546 387 513 q 539 640 477 609 q 659 671 601 671 q 738 653 704 671 q 792 604 772 636 q 812 540 812 572 q 798 452 812 512 l 734 163 q 724 104 724 121 q 737 71 724 83 q 768 58 749 58 q 890 148 815 58 l 932 108 q 828 14 873 39 q 736 -12 784 -12 q 672 3 699 -12 q 630 44 646 17 q 614 100 614 71 q 624 169 614 127 l 690 469 q 699 529 699 508 q 680 576 699 559 q 629 593 661 593 q 552 574 592 593 q 466 509 511 554 q 383 396 420 463 q 314 236 345 329 q 281 108 299 193 l 258 0 l 146 0 l 271 559 l 146 559 l 159 614 q 261 635 224 624 q 354 671 298 646 l 402 671 z "},"o":{"ha":750,"x_min":119,"x_max":775,"o":"m 511 671 q 701 596 626 671 q 775 406 775 521 q 722 190 775 291 q 583 36 669 88 q 393 -16 497 -16 q 249 16 307 -16 q 156 113 192 47 q 119 254 119 178 q 175 464 119 363 q 318 618 230 565 q 511 671 406 671 m 505 605 q 382 564 439 605 q 285 432 326 523 q 244 240 244 341 q 283 102 244 158 q 396 47 322 47 q 513 88 458 47 q 610 222 568 129 q 651 412 651 316 q 631 516 651 470 q 578 583 611 562 q 505 605 545 605 z "},"p":{"ha":833,"x_min":-49,"x_max":865,"o":"m 401 671 l 351 454 q 452 579 401 533 q 556 648 503 625 q 663 671 610 671 q 808 609 751 671 q 865 438 865 547 q 807 211 865 320 q 656 43 750 102 q 463 -16 562 -16 q 271 57 349 -16 l 222 -143 q 215 -195 215 -176 q 223 -222 215 -211 q 249 -239 232 -233 q 301 -245 267 -245 l 343 -245 l 331 -302 l -49 -302 l -36 -245 q 32 -242 13 -246 q 72 -225 58 -237 q 98 -191 87 -214 q 115 -133 106 -174 l 271 558 l 146 558 l 159 615 q 351 671 256 623 l 401 671 m 283 120 q 363 67 320 85 q 446 50 407 50 q 577 97 511 50 q 692 247 644 145 q 740 449 740 348 q 708 553 740 515 q 629 591 676 591 q 541 568 586 591 q 440 479 496 544 q 345 328 385 414 q 283 120 306 241 z "},"q":{"ha":778,"x_min":108,"x_max":826,"o":"m 826 654 l 647 -142 q 639 -195 639 -180 q 646 -220 639 -210 q 671 -240 656 -234 q 721 -245 686 -245 l 749 -245 l 736 -302 l 355 -302 l 367 -245 l 400 -245 q 477 -236 454 -245 q 512 -209 499 -227 q 538 -136 526 -190 l 610 180 q 488 46 555 94 q 308 -16 399 -16 q 164 48 220 -16 q 108 225 108 112 q 166 447 108 340 q 314 612 224 554 q 502 671 404 671 q 616 649 564 671 q 709 583 668 627 l 741 654 l 826 654 m 688 528 q 611 581 658 561 q 523 601 564 601 q 390 553 457 601 q 278 408 323 506 q 232 203 232 310 q 263 95 232 134 q 338 56 294 56 q 450 94 395 56 q 587 248 526 146 q 677 478 648 349 l 688 528 z "},"r":{"ha":555,"x_min":149,"x_max":690,"o":"m 406 671 l 356 458 q 442 579 395 531 q 537 652 488 627 q 608 671 572 671 q 667 650 644 671 q 690 600 690 629 q 671 554 690 574 q 631 534 652 534 q 591 543 617 534 q 549 553 565 553 q 429 469 492 553 q 289 122 343 355 l 260 0 l 149 0 l 275 558 l 149 558 l 163 614 q 269 634 226 622 q 356 671 311 647 l 406 671 z "},"s":{"ha":750,"x_min":102,"x_max":776,"o":"m 428 410 l 548 368 q 614 339 567 361 q 682 298 662 316 q 721 245 707 276 q 736 182 736 214 q 702 85 736 132 q 604 11 669 39 q 444 -16 539 -16 q 259 14 341 -16 q 140 86 177 44 q 102 163 102 129 q 118 202 102 186 q 159 218 134 218 q 186 212 174 218 q 212 193 199 207 q 240 150 220 184 q 263 114 258 120 q 305 79 279 96 q 365 53 332 62 q 441 45 397 45 q 548 61 505 45 q 611 103 590 77 q 631 157 631 130 q 593 225 631 195 q 483 277 555 255 q 470 281 477 279 l 375 315 q 250 390 288 345 q 212 487 212 434 q 243 576 212 533 q 335 645 274 620 q 485 671 395 671 q 710 616 622 671 q 776 522 776 574 q 760 483 776 499 q 722 467 745 467 q 680 482 700 467 q 640 530 667 493 q 574 588 613 569 q 478 607 535 607 q 358 577 401 607 q 316 510 316 547 q 339 456 316 480 q 428 410 362 432 z "},"t":{"ha":472,"x_min":140,"x_max":568,"o":"m 439 884 l 388 654 l 568 654 l 552 585 l 372 585 l 282 186 q 273 119 273 142 q 289 74 273 90 q 330 57 304 57 q 366 64 348 57 q 415 92 391 73 q 478 155 428 102 l 524 117 q 407 12 458 39 q 303 -16 357 -16 q 202 20 242 -16 q 163 106 163 56 q 172 176 163 138 l 264 585 l 140 585 l 152 637 q 250 679 212 653 q 322 753 288 705 q 388 884 356 802 l 439 884 z "},"u":{"ha":861,"x_min":135,"x_max":921,"o":"m 721 654 l 832 654 l 721 163 q 713 98 713 130 q 725 66 713 78 q 755 54 737 54 q 799 70 775 54 q 878 142 841 98 l 921 105 q 820 15 867 41 q 725 -12 774 -12 q 637 19 670 -12 q 604 94 604 50 q 616 183 604 123 q 556 102 585 132 q 437 13 500 43 q 319 -16 375 -16 q 240 0 273 -16 q 187 47 206 16 q 168 109 168 77 q 181 200 168 141 l 260 557 l 135 557 l 148 614 q 240 631 199 619 q 345 671 281 642 l 395 671 l 285 174 q 278 127 278 141 q 296 76 278 95 q 343 56 315 56 q 472 109 406 56 q 609 280 557 175 q 686 497 661 385 l 721 654 z "},"v":{"ha":750,"x_min":137,"x_max":812,"o":"m 397 671 l 287 178 q 279 123 279 143 q 299 75 279 94 q 351 56 320 56 q 446 81 401 56 q 574 190 510 117 q 676 347 637 264 q 715 476 715 430 q 709 514 715 494 q 684 565 703 534 q 669 593 671 587 q 665 615 665 604 q 682 664 665 645 q 727 682 699 682 q 788 650 764 682 q 812 551 812 617 q 765 364 812 471 q 633 160 718 257 q 472 24 549 64 q 320 -16 396 -16 q 210 20 251 -16 q 170 110 170 57 q 178 183 170 142 l 263 557 l 137 557 l 151 614 q 247 632 202 619 q 347 671 292 644 l 397 671 z "},"w":{"ha":1222,"x_min":139,"x_max":1280,"o":"m 400 668 l 292 185 q 283 119 283 146 q 303 73 283 91 q 359 56 323 56 q 415 65 387 56 q 481 100 444 75 q 554 166 519 126 q 620 259 589 205 q 661 355 644 300 l 713 525 l 743 654 l 853 654 l 750 191 q 744 145 744 164 q 768 80 744 105 q 831 55 791 55 q 938 85 881 55 q 1052 181 996 116 q 1143 330 1108 247 q 1179 467 1179 412 q 1170 526 1179 494 q 1151 566 1165 541 q 1136 593 1138 587 q 1133 616 1133 603 q 1150 665 1133 646 q 1196 684 1168 684 q 1256 651 1232 684 q 1280 552 1280 618 q 1235 354 1280 466 q 1112 153 1189 243 q 958 23 1035 63 q 808 -17 880 -17 q 681 28 728 -17 q 635 149 635 74 q 640 191 635 163 q 495 36 573 87 q 327 -16 416 -16 q 214 21 256 -16 q 172 109 172 58 q 182 185 172 134 l 265 555 l 139 555 l 152 612 q 244 628 205 617 q 348 668 283 639 l 400 668 z "},"x":{"ha":750,"x_min":36,"x_max":848,"o":"m 387 671 l 480 404 q 647 618 561 549 q 772 671 711 671 q 828 653 808 671 q 848 610 848 636 q 829 569 848 585 q 779 554 811 554 q 757 555 770 554 q 725 557 737 557 q 658 538 689 557 q 591 473 627 520 l 503 338 l 555 186 q 606 85 582 110 q 654 60 629 60 q 698 73 677 60 q 774 142 713 81 l 818 106 q 719 14 764 40 q 625 -12 673 -12 q 529 19 566 -12 q 463 134 492 50 l 407 290 q 238 45 304 102 q 108 -12 172 -12 q 56 7 77 -12 q 36 50 36 25 q 55 90 36 73 q 100 107 73 107 q 131 104 110 107 q 157 101 146 101 q 195 109 177 101 q 236 138 213 116 q 297 217 260 160 q 382 360 313 239 l 312 559 l 187 559 l 201 614 q 272 635 242 623 q 339 671 302 648 l 387 671 z "},"y":{"ha":833,"x_min":83,"x_max":854,"o":"m 744 654 l 854 654 l 716 33 q 694 -54 701 -31 q 643 -160 674 -113 q 563 -244 612 -206 q 452 -301 513 -281 q 319 -320 392 -320 q 147 -276 211 -320 q 83 -182 83 -231 q 100 -143 83 -161 q 136 -125 117 -125 q 178 -139 158 -125 q 223 -189 199 -153 q 266 -233 244 -221 q 340 -254 300 -254 q 460 -219 404 -254 q 549 -125 516 -184 q 604 33 583 -65 l 640 186 q 545 72 596 117 q 440 6 494 28 q 334 -16 385 -16 q 217 24 258 -16 q 175 113 175 64 q 183 186 175 149 l 267 557 l 142 557 l 156 615 q 244 630 205 619 q 351 671 283 640 l 401 671 l 292 186 q 284 126 284 148 q 306 77 284 98 q 359 56 328 56 q 452 83 407 56 q 569 186 518 121 q 661 351 621 252 q 716 531 692 425 l 744 654 z "},"z":{"ha":722,"x_min":48,"x_max":806,"o":"m 806 654 l 791 593 l 233 70 q 260 73 254 73 q 410 52 284 73 q 509 41 476 41 q 573 55 543 41 q 616 89 604 70 q 633 149 629 108 q 656 212 637 191 q 698 233 675 233 q 742 215 724 233 q 760 170 760 197 q 730 79 760 124 q 647 9 700 35 q 522 -16 593 -16 q 460 -14 492 -16 q 369 -1 441 -12 q 267 14 292 12 q 196 17 232 17 q 48 -4 121 17 l 61 57 l 625 581 q 587 578 600 578 q 459 596 564 578 q 377 605 410 605 q 311 584 337 605 q 272 516 284 562 q 252 467 262 479 q 207 448 235 448 q 163 465 180 448 q 146 515 146 483 q 204 622 146 573 q 353 671 262 671 q 419 667 386 671 q 511 652 438 665 q 603 636 584 638 q 662 633 632 633 q 806 654 728 633 z "},"{":{"ha":500,"x_min":165,"x_max":692,"o":"m 406 -276 l 400 -302 q 317 -279 349 -296 q 232 -201 264 -252 q 200 -90 200 -150 q 245 68 200 -28 q 282 159 271 125 q 288 197 288 178 q 256 278 288 245 q 165 319 225 311 l 171 347 q 284 389 235 355 q 353 474 333 422 q 366 595 366 506 q 391 745 367 685 q 470 857 415 804 q 594 939 524 909 q 692 964 635 957 l 687 938 q 570 887 616 921 q 503 798 524 853 q 488 671 489 761 q 461 520 488 577 q 375 414 435 464 q 224 334 315 364 q 336 253 298 304 q 374 138 374 201 q 331 -8 374 85 q 292 -105 304 -66 q 286 -146 286 -125 q 314 -227 286 -194 q 406 -276 342 -259 z "},"|":{"ha":833,"x_min":465,"x_max":564,"o":"m 465 995 l 564 995 l 564 -320 l 465 -320 l 465 995 z "},"}":{"ha":528,"x_min":-14,"x_max":514,"o":"m 273 938 l 278 964 q 386 927 343 956 q 453 852 428 899 q 478 753 478 805 q 433 595 478 692 q 396 503 408 539 q 391 467 391 485 q 422 388 391 420 q 514 347 454 355 l 507 319 q 395 276 444 311 q 325 191 346 242 q 312 68 313 159 q 288 -82 312 -22 q 208 -195 263 -142 q 84 -277 153 -248 q -14 -302 43 -295 l -8 -276 q 109 -225 62 -259 q 176 -135 155 -191 q 191 -8 190 -98 q 217 144 191 87 q 304 251 243 201 q 454 331 364 301 q 342 412 380 361 q 304 525 304 464 q 348 671 304 578 q 387 768 374 730 q 392 808 392 787 q 365 889 392 857 q 273 938 337 921 z "},"~":{"ha":833,"x_min":205,"x_max":821,"o":"m 762 570 l 821 505 q 773 421 800 452 q 714 376 747 391 q 645 360 682 360 q 590 370 618 360 q 507 410 576 375 l 417 454 q 382 460 400 460 q 330 437 350 460 q 270 338 310 414 l 205 405 q 260 488 233 459 q 319 532 288 517 q 382 547 350 547 q 433 538 406 547 q 532 492 460 529 q 613 453 597 459 q 641 446 630 446 q 701 474 673 446 q 762 570 720 493 z "},"Ä":{"ha":972,"x_min":0,"x_max":985,"o":"m 625 946 l 741 946 l 880 155 q 899 89 889 106 q 925 64 909 71 q 985 57 940 58 l 972 0 l 625 0 l 641 57 l 679 57 q 743 73 725 57 q 762 115 762 88 q 757 161 762 130 l 724 352 l 362 352 l 240 138 q 225 93 225 112 q 239 66 225 76 q 298 57 253 57 l 330 57 l 316 0 l 0 0 l 14 57 q 78 65 59 58 q 112 88 97 73 q 161 161 127 104 l 625 946 m 713 418 l 644 838 l 401 418 l 713 418 m 621 1171 q 670 1152 651 1171 q 689 1103 689 1133 q 659 1037 689 1066 q 590 1008 629 1008 q 542 1027 560 1008 q 524 1077 524 1045 q 553 1142 524 1114 q 621 1171 582 1171 m 842 1171 q 891 1152 872 1171 q 909 1103 909 1133 q 880 1037 909 1066 q 812 1008 850 1008 q 764 1027 782 1008 q 746 1077 746 1045 q 775 1142 746 1114 q 842 1171 804 1171 z "},"Å":{"ha":972,"x_min":0,"x_max":985,"o":"m 625 946 l 741 946 l 880 155 q 899 89 889 106 q 925 64 909 71 q 985 57 940 58 l 972 0 l 625 0 l 641 57 l 679 57 q 743 73 725 57 q 762 115 762 88 q 757 161 762 130 l 724 352 l 362 352 l 240 138 q 225 93 225 112 q 239 66 225 76 q 298 57 253 57 l 330 57 l 316 0 l 0 0 l 14 57 q 78 65 59 58 q 112 88 97 73 q 161 161 127 104 l 625 946 m 713 418 l 644 838 l 401 418 l 713 418 m 736 1196 q 800 1171 776 1196 q 823 1108 823 1147 q 785 1021 823 1059 q 696 983 747 983 q 635 1007 659 983 q 612 1072 612 1031 q 648 1159 612 1122 q 736 1196 684 1196 m 728 1152 q 685 1130 704 1152 q 665 1079 665 1109 q 676 1041 665 1054 q 705 1027 687 1027 q 751 1050 730 1027 q 771 1102 771 1072 q 759 1138 771 1124 q 728 1152 747 1152 z "},"Ç":{"ha":1000,"x_min":165,"x_max":1087,"o":"m 1023 942 l 1075 942 l 1087 628 l 1023 620 q 957 779 994 726 q 863 859 919 831 q 736 887 807 887 q 531 824 628 887 q 371 636 434 760 q 307 376 307 513 q 345 214 307 286 q 450 103 383 142 q 599 64 517 64 q 723 83 659 64 q 839 135 787 102 q 998 264 892 168 l 1040 226 q 803 39 933 104 q 569 -16 694 -16 q 353 34 431 -16 q 219 166 274 84 q 165 379 165 249 q 242 669 165 534 q 451 884 320 805 q 731 962 583 962 q 848 947 790 962 q 926 916 891 937 q 983 871 951 902 l 1023 942 m 583 0 l 564 -51 q 586 -50 572 -51 l 593 -50 q 646 -62 619 -50 q 682 -91 672 -75 q 692 -130 692 -107 q 650 -209 692 -175 q 543 -243 608 -243 q 452 -219 488 -243 q 427 -177 427 -203 q 438 -149 427 -160 q 462 -138 448 -138 q 487 -144 479 -138 q 497 -168 494 -150 q 511 -195 500 -186 q 547 -205 526 -205 q 598 -185 576 -205 q 621 -140 621 -165 q 602 -100 621 -116 q 549 -85 583 -85 q 491 -93 522 -85 l 532 0 l 583 0 z "},"É":{"ha":945,"x_min":54,"x_max":1028,"o":"m 268 946 l 950 946 l 1028 696 l 966 676 q 902 793 938 753 q 822 849 865 833 q 669 869 764 869 l 495 869 l 417 523 l 532 523 q 639 538 604 523 q 697 586 673 553 q 734 683 722 620 l 800 683 l 713 299 l 647 299 q 657 372 657 351 q 642 419 657 398 q 603 450 627 441 q 513 458 579 458 l 403 458 l 326 126 q 321 97 321 104 q 332 76 321 83 q 374 71 340 71 l 526 71 q 707 95 637 71 q 826 164 777 119 q 939 322 876 210 l 998 299 l 854 0 l 54 0 l 67 57 q 156 64 136 58 q 186 86 176 71 q 214 157 204 111 l 357 785 q 365 833 365 820 q 345 877 365 865 q 277 888 324 888 l 256 888 l 268 946 m 585 1004 l 568 1044 l 664 1139 q 743 1204 712 1186 q 779 1215 759 1215 q 818 1197 802 1215 q 833 1156 833 1179 q 814 1109 833 1131 q 741 1066 795 1088 l 585 1004 z "},"Ñ":{"ha":1000,"x_min":52,"x_max":1186,"o":"m 267 946 l 555 946 l 813 209 l 946 796 q 952 837 952 825 q 932 876 952 863 q 873 884 918 884 l 843 884 l 855 946 l 1186 946 l 1173 884 l 1147 884 q 1079 876 1099 884 q 1047 851 1059 868 q 1024 785 1036 835 l 843 0 l 765 0 l 456 876 l 292 153 q 286 111 286 127 q 294 81 286 94 q 318 62 303 68 q 374 57 332 57 l 397 57 l 384 0 l 52 0 l 64 57 l 94 57 q 159 66 140 57 q 192 96 178 75 q 216 170 205 117 l 357 785 q 364 834 364 814 q 345 876 364 863 q 288 884 330 884 l 254 884 l 267 946 m 903 1148 l 942 1148 q 878 1061 916 1090 q 787 1032 839 1032 q 759 1034 771 1032 q 712 1046 749 1036 q 625 1061 652 1061 q 590 1056 605 1061 q 563 1040 574 1050 l 521 1040 q 582 1118 543 1090 q 663 1145 620 1145 q 760 1128 692 1145 q 829 1116 814 1116 q 866 1124 847 1116 q 903 1148 884 1132 z "},"Ö":{"ha":1055,"x_min":147,"x_max":1122,"o":"m 722 962 q 1005 858 894 962 q 1122 561 1122 747 q 1044 272 1122 408 q 831 59 965 137 q 544 -16 701 -16 q 337 33 425 -16 q 198 172 250 83 q 147 376 147 261 q 225 668 147 531 q 437 884 304 806 q 722 962 570 962 m 726 890 q 513 826 610 890 q 351 632 416 762 q 286 358 286 502 q 320 196 286 267 q 414 90 355 125 q 550 54 473 54 q 757 119 660 54 q 920 316 854 184 q 985 591 985 448 q 950 749 985 681 q 857 854 916 817 q 726 890 798 890 m 663 1171 q 712 1152 693 1171 q 731 1103 731 1133 q 701 1037 731 1066 q 632 1008 671 1008 q 584 1027 602 1008 q 566 1077 566 1045 q 595 1142 566 1114 q 663 1171 624 1171 m 884 1171 q 933 1152 914 1171 q 951 1103 951 1133 q 922 1037 951 1066 q 854 1008 892 1008 q 806 1027 824 1008 q 788 1077 788 1045 q 817 1142 788 1114 q 884 1171 846 1171 z "},"Ü":{"ha":1000,"x_min":203,"x_max":1200,"o":"m 227 946 l 598 946 l 587 888 l 555 888 q 493 881 511 888 q 462 853 475 873 q 439 791 449 833 l 335 334 q 324 249 324 286 q 350 156 324 198 q 429 89 376 114 q 547 64 481 64 q 700 103 630 64 q 805 209 769 142 q 861 363 842 276 l 960 791 q 968 841 968 826 q 960 868 968 857 q 937 885 951 880 q 883 888 926 888 l 857 888 l 869 946 l 1200 946 l 1188 888 l 1156 888 q 1094 880 1114 888 q 1062 853 1075 871 q 1040 791 1049 834 l 935 334 q 903 227 920 265 q 813 96 871 153 q 682 12 755 39 q 519 -16 609 -16 q 286 61 368 -16 q 203 231 203 139 q 215 338 203 285 l 317 785 q 324 836 324 819 q 315 866 324 853 q 293 884 307 880 q 236 888 279 888 l 215 888 l 227 946 m 635 1171 q 684 1152 665 1171 q 703 1103 703 1133 q 673 1037 703 1066 q 604 1008 643 1008 q 555 1027 574 1008 q 537 1077 537 1045 q 566 1142 537 1114 q 635 1171 595 1171 m 856 1171 q 904 1152 886 1171 q 923 1103 923 1133 q 893 1037 923 1066 q 825 1008 864 1008 q 778 1027 795 1008 q 760 1077 760 1045 q 788 1142 760 1114 q 856 1171 817 1171 z "},"á":{"ha":861,"x_min":120,"x_max":925,"o":"m 753 654 l 838 654 l 723 147 q 717 102 717 121 q 729 66 717 79 q 760 54 741 54 q 804 68 782 54 q 882 141 838 90 l 925 103 q 833 19 859 35 q 728 -12 783 -12 q 664 2 690 -12 q 623 42 638 16 q 608 97 608 68 q 621 180 608 119 q 520 62 568 103 q 423 3 473 22 q 323 -16 374 -16 q 180 45 234 -16 q 120 222 120 113 q 177 448 120 341 q 325 613 233 555 q 515 671 417 671 q 630 649 578 671 q 723 583 682 627 l 753 654 m 700 528 q 620 582 665 563 q 532 601 574 601 q 400 555 465 601 q 290 408 336 509 q 243 204 243 307 q 258 124 243 158 q 299 74 273 91 q 355 57 325 57 q 472 102 410 57 q 612 270 550 157 q 700 528 673 383 m 502 743 l 485 783 l 581 877 q 660 943 629 924 q 696 953 676 953 q 735 935 719 953 q 751 894 751 918 q 731 848 751 869 q 659 804 712 826 l 502 743 z "},"à":{"ha":861,"x_min":120,"x_max":925,"o":"m 753 654 l 838 654 l 723 147 q 717 102 717 121 q 729 66 717 79 q 760 54 741 54 q 804 68 782 54 q 882 141 838 90 l 925 103 q 833 19 859 35 q 728 -12 783 -12 q 664 2 690 -12 q 623 42 638 16 q 608 97 608 68 q 621 180 608 119 q 520 62 568 103 q 423 3 473 22 q 323 -16 374 -16 q 180 45 234 -16 q 120 222 120 113 q 177 448 120 341 q 325 613 233 555 q 515 671 417 671 q 630 649 578 671 q 723 583 682 627 l 753 654 m 700 528 q 620 582 665 563 q 532 601 574 601 q 400 555 465 601 q 290 408 336 509 q 243 204 243 307 q 258 124 243 158 q 299 74 273 91 q 355 57 325 57 q 472 102 410 57 q 612 270 550 157 q 700 528 673 383 m 706 743 l 551 804 q 460 892 460 841 q 476 935 460 918 q 515 953 492 953 q 551 943 534 953 q 629 877 581 924 l 724 783 l 706 743 z "},"â":{"ha":861,"x_min":120,"x_max":925,"o":"m 753 654 l 838 654 l 723 147 q 717 102 717 121 q 729 66 717 79 q 760 54 741 54 q 804 68 782 54 q 882 141 838 90 l 925 103 q 833 19 859 35 q 728 -12 783 -12 q 664 2 690 -12 q 623 42 638 16 q 608 97 608 68 q 621 180 608 119 q 520 62 568 103 q 423 3 473 22 q 323 -16 374 -16 q 180 45 234 -16 q 120 222 120 113 q 177 448 120 341 q 325 613 233 555 q 515 671 417 671 q 630 649 578 671 q 723 583 682 627 l 753 654 m 700 528 q 620 582 665 563 q 532 601 574 601 q 400 555 465 601 q 290 408 336 509 q 243 204 243 307 q 258 124 243 158 q 299 74 273 91 q 355 57 325 57 q 472 102 410 57 q 612 270 550 157 q 700 528 673 383 m 410 806 l 635 926 l 821 806 l 787 771 l 620 834 l 439 771 l 410 806 z "},"ä":{"ha":861,"x_min":120,"x_max":925,"o":"m 753 654 l 838 654 l 723 147 q 717 102 717 121 q 729 66 717 79 q 760 54 741 54 q 804 68 782 54 q 882 141 838 90 l 925 103 q 833 19 859 35 q 728 -12 783 -12 q 664 2 690 -12 q 623 42 638 16 q 608 97 608 68 q 621 180 608 119 q 520 62 568 103 q 423 3 473 22 q 323 -16 374 -16 q 180 45 234 -16 q 120 222 120 113 q 177 448 120 341 q 325 613 233 555 q 515 671 417 671 q 630 649 578 671 q 723 583 682 627 l 753 654 m 700 528 q 620 582 665 563 q 532 601 574 601 q 400 555 465 601 q 290 408 336 509 q 243 204 243 307 q 258 124 243 158 q 299 74 273 91 q 355 57 325 57 q 472 102 410 57 q 612 270 550 157 q 700 528 673 383 m 525 929 q 574 910 555 929 q 593 862 593 891 q 563 796 593 825 q 494 767 533 767 q 446 785 464 767 q 427 836 427 804 q 456 901 427 873 q 525 929 486 929 m 746 929 q 794 910 776 929 q 813 862 813 891 q 784 796 813 825 q 715 767 754 767 q 668 785 686 767 q 650 836 650 804 q 679 901 650 873 q 746 929 707 929 z "},"ã":{"ha":861,"x_min":120,"x_max":925,"o":"m 753 654 l 838 654 l 723 147 q 717 102 717 121 q 729 66 717 79 q 760 54 741 54 q 804 68 782 54 q 882 141 838 90 l 925 103 q 833 19 859 35 q 728 -12 783 -12 q 664 2 690 -12 q 623 42 638 16 q 608 97 608 68 q 621 180 608 119 q 520 62 568 103 q 423 3 473 22 q 323 -16 374 -16 q 180 45 234 -16 q 120 222 120 113 q 177 448 120 341 q 325 613 233 555 q 515 671 417 671 q 630 649 578 671 q 723 583 682 627 l 753 654 m 700 528 q 620 582 665 563 q 532 601 574 601 q 400 555 465 601 q 290 408 336 509 q 243 204 243 307 q 258 124 243 158 q 299 74 273 91 q 355 57 325 57 q 472 102 410 57 q 612 270 550 157 q 700 528 673 383 m 792 906 l 831 906 q 767 819 806 848 q 676 790 728 790 q 648 792 661 790 q 602 804 639 793 q 514 819 542 819 q 479 814 494 819 q 452 798 464 808 l 410 798 q 471 876 433 848 q 552 903 509 903 q 650 886 581 903 q 718 873 703 873 q 755 882 736 873 q 792 906 774 890 z "},"å":{"ha":861,"x_min":120,"x_max":925,"o":"m 753 654 l 838 654 l 723 147 q 717 102 717 121 q 729 66 717 79 q 760 54 741 54 q 804 68 782 54 q 882 141 838 90 l 925 103 q 833 19 859 35 q 728 -12 783 -12 q 664 2 690 -12 q 623 42 638 16 q 608 97 608 68 q 621 180 608 119 q 520 62 568 103 q 423 3 473 22 q 323 -16 374 -16 q 180 45 234 -16 q 120 222 120 113 q 177 448 120 341 q 325 613 233 555 q 515 671 417 671 q 630 649 578 671 q 723 583 682 627 l 753 654 m 700 528 q 620 582 665 563 q 532 601 574 601 q 400 555 465 601 q 290 408 336 509 q 243 204 243 307 q 258 124 243 158 q 299 74 273 91 q 355 57 325 57 q 472 102 410 57 q 612 270 550 157 q 700 528 673 383 m 640 954 q 703 930 680 954 q 727 867 727 905 q 689 780 727 818 q 600 742 650 742 q 539 766 562 742 q 516 830 516 790 q 552 918 516 881 q 640 954 588 954 m 632 910 q 588 889 608 910 q 569 838 569 867 q 580 799 569 812 q 609 786 591 786 q 654 808 634 786 q 675 861 675 831 q 663 897 675 883 q 632 910 651 910 z "},"ç":{"ha":667,"x_min":119,"x_max":744,"o":"m 677 186 l 718 145 q 377 -16 540 -16 q 242 16 300 -16 q 152 109 184 48 q 119 245 119 170 q 177 456 119 354 q 329 614 235 558 q 530 671 424 671 q 684 620 623 671 q 744 504 744 569 q 725 439 744 462 q 676 417 707 417 q 637 435 653 417 q 621 477 621 452 l 621 498 l 622 522 q 595 578 622 554 q 526 602 568 602 q 399 556 463 602 q 290 420 335 511 q 245 235 245 329 q 267 144 245 184 q 325 80 288 103 q 403 58 362 58 q 481 70 438 58 q 566 105 524 82 q 677 186 607 129 m 383 0 l 363 -51 q 386 -50 372 -51 l 393 -50 q 446 -62 419 -50 q 482 -91 472 -75 q 492 -130 492 -107 q 450 -209 492 -175 q 342 -243 408 -243 q 252 -219 288 -243 q 227 -177 227 -203 q 238 -149 227 -160 q 262 -138 248 -138 q 287 -144 279 -138 q 297 -168 294 -150 q 311 -195 300 -186 q 347 -205 326 -205 q 398 -185 376 -205 q 420 -140 420 -165 q 401 -100 420 -116 q 349 -85 382 -85 q 291 -93 322 -85 l 332 0 l 383 0 z "},"é":{"ha":750,"x_min":123,"x_max":789,"o":"m 707 179 l 745 136 q 568 22 660 60 q 387 -16 475 -16 q 196 57 269 -16 q 123 250 123 130 q 183 455 123 358 q 351 612 243 553 q 581 671 458 671 q 734 626 679 671 q 789 520 789 581 q 765 445 789 484 q 684 371 741 405 q 519 315 627 337 q 254 284 411 292 q 250 244 250 258 q 273 149 250 191 q 337 82 296 106 q 425 57 379 57 q 559 88 482 57 q 707 179 636 119 m 262 338 q 485 371 416 355 q 637 435 596 397 q 677 517 677 473 q 647 581 677 555 q 562 607 617 607 q 438 572 503 607 q 328 478 373 538 q 262 338 282 418 m 446 743 l 429 783 l 526 877 q 604 943 574 924 q 641 953 621 953 q 679 935 663 953 q 695 894 695 918 q 676 848 695 869 q 603 804 656 826 l 446 743 z "},"è":{"ha":750,"x_min":123,"x_max":789,"o":"m 707 179 l 745 136 q 568 22 660 60 q 387 -16 475 -16 q 196 57 269 -16 q 123 250 123 130 q 183 455 123 358 q 351 612 243 553 q 581 671 458 671 q 734 626 679 671 q 789 520 789 581 q 765 445 789 484 q 684 371 741 405 q 519 315 627 337 q 254 284 411 292 q 250 244 250 258 q 273 149 250 191 q 337 82 296 106 q 425 57 379 57 q 559 88 482 57 q 707 179 636 119 m 262 338 q 485 371 416 355 q 637 435 596 397 q 677 517 677 473 q 647 581 677 555 q 562 607 617 607 q 438 572 503 607 q 328 478 373 538 q 262 338 282 418 m 677 743 l 522 804 q 431 892 431 841 q 448 935 431 918 q 487 953 464 953 q 522 943 506 953 q 600 877 552 924 l 696 783 l 677 743 z "},"ê":{"ha":750,"x_min":123,"x_max":789,"o":"m 707 179 l 745 136 q 568 22 660 60 q 387 -16 475 -16 q 196 57 269 -16 q 123 250 123 130 q 183 455 123 358 q 351 612 243 553 q 581 671 458 671 q 734 626 679 671 q 789 520 789 581 q 765 445 789 484 q 684 371 741 405 q 519 315 627 337 q 254 284 411 292 q 250 244 250 258 q 273 149 250 191 q 337 82 296 106 q 425 57 379 57 q 559 88 482 57 q 707 179 636 119 m 262 338 q 485 371 416 355 q 637 435 596 397 q 677 517 677 473 q 647 581 677 555 q 562 607 617 607 q 438 572 503 607 q 328 478 373 538 q 262 338 282 418 m 355 806 l 580 926 l 766 806 l 732 771 l 565 834 l 385 771 l 355 806 z "},"ë":{"ha":750,"x_min":123,"x_max":789,"o":"m 707 179 l 745 136 q 568 22 660 60 q 387 -16 475 -16 q 196 57 269 -16 q 123 250 123 130 q 183 455 123 358 q 351 612 243 553 q 581 671 458 671 q 734 626 679 671 q 789 520 789 581 q 765 445 789 484 q 684 371 741 405 q 519 315 627 337 q 254 284 411 292 q 250 244 250 258 q 273 149 250 191 q 337 82 296 106 q 425 57 379 57 q 559 88 482 57 q 707 179 636 119 m 262 338 q 485 371 416 355 q 637 435 596 397 q 677 517 677 473 q 647 581 677 555 q 562 607 617 607 q 438 572 503 607 q 328 478 373 538 q 262 338 282 418 m 469 929 q 518 910 499 929 q 537 862 537 891 q 507 796 537 825 q 438 767 477 767 q 390 785 408 767 q 372 836 372 804 q 401 901 372 873 q 469 929 430 929 m 690 929 q 739 910 720 929 q 758 862 758 891 q 728 796 758 825 q 660 767 699 767 q 612 785 630 767 q 594 836 594 804 q 623 901 594 873 q 690 929 652 929 z "},"í":{"ha":389,"x_min":135,"x_max":515,"o":"m 399 671 l 268 151 q 260 100 260 119 q 271 66 260 79 q 302 54 283 54 q 345 67 324 54 q 425 141 376 87 l 469 103 q 373 19 427 49 q 271 -12 319 -12 q 184 21 219 -12 q 150 96 150 53 q 161 171 150 125 l 259 560 l 135 560 l 147 616 q 242 631 199 619 q 347 671 285 642 l 399 671 m 266 743 l 249 783 l 345 877 q 424 943 393 924 q 460 953 440 953 q 499 935 483 953 q 515 894 515 918 q 495 848 515 869 q 422 804 476 826 l 266 743 z "},"ì":{"ha":389,"x_min":135,"x_max":469,"o":"m 399 671 l 268 151 q 260 100 260 119 q 271 66 260 79 q 302 54 283 54 q 345 67 324 54 q 425 141 376 87 l 469 103 q 373 19 427 49 q 271 -12 319 -12 q 184 21 219 -12 q 150 96 150 53 q 161 171 150 125 l 259 560 l 135 560 l 147 616 q 242 631 199 619 q 347 671 285 642 l 399 671 m 429 743 l 274 804 q 183 892 183 841 q 199 935 183 918 q 239 953 216 953 q 274 943 258 953 q 352 877 304 924 l 448 783 l 429 743 z "},"î":{"ha":389,"x_min":135,"x_max":571,"o":"m 399 671 l 268 151 q 260 100 260 119 q 271 66 260 79 q 302 54 283 54 q 345 67 324 54 q 425 141 376 87 l 469 103 q 373 19 427 49 q 271 -12 319 -12 q 184 21 219 -12 q 150 96 150 53 q 161 171 150 125 l 259 560 l 135 560 l 147 616 q 242 631 199 619 q 347 671 285 642 l 399 671 m 160 806 l 385 926 l 571 806 l 537 771 l 370 834 l 190 771 l 160 806 z "},"ï":{"ha":389,"x_min":135,"x_max":576,"o":"m 399 671 l 268 151 q 260 100 260 119 q 271 66 260 79 q 302 54 283 54 q 345 67 324 54 q 425 141 376 87 l 469 103 q 373 19 427 49 q 271 -12 319 -12 q 184 21 219 -12 q 150 96 150 53 q 161 171 150 125 l 259 560 l 135 560 l 147 616 q 242 631 199 619 q 347 671 285 642 l 399 671 m 288 929 q 337 910 318 929 q 356 862 356 891 q 326 796 356 825 q 257 767 296 767 q 209 785 227 767 q 191 836 191 804 q 220 901 191 873 q 288 929 249 929 m 509 929 q 558 910 539 929 q 576 862 576 891 q 547 796 576 825 q 479 767 517 767 q 431 785 449 767 q 413 836 413 804 q 442 901 413 873 q 509 929 471 929 z "},"ñ":{"ha":861,"x_min":146,"x_max":932,"o":"m 402 671 l 354 458 q 418 546 387 513 q 539 640 477 609 q 659 671 601 671 q 738 653 704 671 q 792 604 772 636 q 812 540 812 572 q 798 452 812 512 l 734 163 q 724 104 724 121 q 737 71 724 83 q 768 58 749 58 q 890 148 815 58 l 932 108 q 828 14 873 39 q 736 -12 784 -12 q 672 3 699 -12 q 630 44 646 17 q 614 100 614 71 q 624 169 614 127 l 690 469 q 699 529 699 508 q 680 576 699 559 q 629 593 661 593 q 552 574 592 593 q 466 509 511 554 q 383 396 420 463 q 314 236 345 329 q 281 108 299 193 l 258 0 l 146 0 l 271 559 l 146 559 l 159 614 q 261 635 224 624 q 354 671 298 646 l 402 671 m 793 906 l 832 906 q 768 819 806 848 q 677 790 729 790 q 649 792 661 790 q 602 804 640 793 q 515 819 543 819 q 480 814 495 819 q 453 798 465 808 l 411 798 q 472 876 433 848 q 553 903 510 903 q 650 886 582 903 q 719 873 704 873 q 756 882 737 873 q 793 906 774 890 z "},"ó":{"ha":750,"x_min":119,"x_max":775,"o":"m 511 671 q 701 596 626 671 q 775 406 775 521 q 722 190 775 291 q 583 36 669 88 q 393 -16 497 -16 q 249 16 307 -16 q 156 113 192 47 q 119 254 119 178 q 175 464 119 363 q 318 618 230 565 q 511 671 406 671 m 505 605 q 382 564 439 605 q 285 432 326 523 q 244 240 244 341 q 283 102 244 158 q 396 47 322 47 q 513 88 458 47 q 610 222 568 129 q 651 412 651 316 q 631 516 651 470 q 578 583 611 562 q 505 605 545 605 m 447 743 l 430 783 l 526 877 q 605 943 574 924 q 642 953 621 953 q 680 935 664 953 q 696 894 696 918 q 676 848 696 869 q 604 804 657 826 l 447 743 z "},"ò":{"ha":750,"x_min":119,"x_max":775,"o":"m 511 671 q 701 596 626 671 q 775 406 775 521 q 722 190 775 291 q 583 36 669 88 q 393 -16 497 -16 q 249 16 307 -16 q 156 113 192 47 q 119 254 119 178 q 175 464 119 363 q 318 618 230 565 q 511 671 406 671 m 505 605 q 382 564 439 605 q 285 432 326 523 q 244 240 244 341 q 283 102 244 158 q 396 47 322 47 q 513 88 458 47 q 610 222 568 129 q 651 412 651 316 q 631 516 651 470 q 578 583 611 562 q 505 605 545 605 m 678 743 l 523 804 q 432 892 432 841 q 448 935 432 918 q 488 953 465 953 q 523 943 507 953 q 601 877 553 924 l 696 783 l 678 743 z "},"ô":{"ha":750,"x_min":119,"x_max":775,"o":"m 511 671 q 701 596 626 671 q 775 406 775 521 q 722 190 775 291 q 583 36 669 88 q 393 -16 497 -16 q 249 16 307 -16 q 156 113 192 47 q 119 254 119 178 q 175 464 119 363 q 318 618 230 565 q 511 671 406 671 m 505 605 q 382 564 439 605 q 285 432 326 523 q 244 240 244 341 q 283 102 244 158 q 396 47 322 47 q 513 88 458 47 q 610 222 568 129 q 651 412 651 316 q 631 516 651 470 q 578 583 611 562 q 505 605 545 605 m 355 806 l 580 926 l 766 806 l 732 771 l 565 834 l 385 771 l 355 806 z "},"ö":{"ha":750,"x_min":119,"x_max":775,"o":"m 511 671 q 701 596 626 671 q 775 406 775 521 q 722 190 775 291 q 583 36 669 88 q 393 -16 497 -16 q 249 16 307 -16 q 156 113 192 47 q 119 254 119 178 q 175 464 119 363 q 318 618 230 565 q 511 671 406 671 m 505 605 q 382 564 439 605 q 285 432 326 523 q 244 240 244 341 q 283 102 244 158 q 396 47 322 47 q 513 88 458 47 q 610 222 568 129 q 651 412 651 316 q 631 516 651 470 q 578 583 611 562 q 505 605 545 605 m 469 929 q 518 910 499 929 q 537 862 537 891 q 507 796 537 825 q 438 767 477 767 q 390 785 408 767 q 372 836 372 804 q 401 901 372 873 q 469 929 430 929 m 690 929 q 739 910 720 929 q 758 862 758 891 q 728 796 758 825 q 660 767 699 767 q 612 785 630 767 q 594 836 594 804 q 623 901 594 873 q 690 929 652 929 z "},"õ":{"ha":750,"x_min":119,"x_max":777,"o":"m 511 671 q 701 596 626 671 q 775 406 775 521 q 722 190 775 291 q 583 36 669 88 q 393 -16 497 -16 q 249 16 307 -16 q 156 113 192 47 q 119 254 119 178 q 175 464 119 363 q 318 618 230 565 q 511 671 406 671 m 505 605 q 382 564 439 605 q 285 432 326 523 q 244 240 244 341 q 283 102 244 158 q 396 47 322 47 q 513 88 458 47 q 610 222 568 129 q 651 412 651 316 q 631 516 651 470 q 578 583 611 562 q 505 605 545 605 m 737 906 l 777 906 q 712 819 751 848 q 621 790 673 790 q 593 792 606 790 q 547 804 584 793 q 459 819 487 819 q 424 814 439 819 q 397 798 409 808 l 355 798 q 416 876 378 848 q 497 903 454 903 q 595 886 526 903 q 663 873 648 873 q 700 882 682 873 q 737 906 719 890 z "},"ú":{"ha":861,"x_min":135,"x_max":921,"o":"m 721 654 l 832 654 l 721 163 q 713 98 713 130 q 725 66 713 78 q 755 54 737 54 q 799 70 775 54 q 878 142 841 98 l 921 105 q 820 15 867 41 q 725 -12 774 -12 q 637 19 670 -12 q 604 94 604 50 q 616 183 604 123 q 556 102 585 132 q 437 13 500 43 q 319 -16 375 -16 q 240 0 273 -16 q 187 47 206 16 q 168 109 168 77 q 181 200 168 141 l 260 557 l 135 557 l 148 614 q 240 631 199 619 q 345 671 281 642 l 395 671 l 285 174 q 278 127 278 141 q 296 76 278 95 q 343 56 315 56 q 472 109 406 56 q 609 280 557 175 q 686 497 661 385 l 721 654 m 503 743 l 486 783 l 582 877 q 661 943 630 924 q 697 953 677 953 q 735 935 720 953 q 751 894 751 918 q 732 848 751 869 q 659 804 713 826 l 503 743 z "},"ù":{"ha":861,"x_min":135,"x_max":921,"o":"m 721 654 l 832 654 l 721 163 q 713 98 713 130 q 725 66 713 78 q 755 54 737 54 q 799 70 775 54 q 878 142 841 98 l 921 105 q 820 15 867 41 q 725 -12 774 -12 q 637 19 670 -12 q 604 94 604 50 q 616 183 604 123 q 556 102 585 132 q 437 13 500 43 q 319 -16 375 -16 q 240 0 273 -16 q 187 47 206 16 q 168 109 168 77 q 181 200 168 141 l 260 557 l 135 557 l 148 614 q 240 631 199 619 q 345 671 281 642 l 395 671 l 285 174 q 278 127 278 141 q 296 76 278 95 q 343 56 315 56 q 472 109 406 56 q 609 280 557 175 q 686 497 661 385 l 721 654 m 680 743 l 524 804 q 433 892 433 841 q 450 935 433 918 q 489 953 466 953 q 524 943 508 953 q 602 877 554 924 l 698 783 l 680 743 z "},"û":{"ha":861,"x_min":135,"x_max":921,"o":"m 721 654 l 832 654 l 721 163 q 713 98 713 130 q 725 66 713 78 q 755 54 737 54 q 799 70 775 54 q 878 142 841 98 l 921 105 q 820 15 867 41 q 725 -12 774 -12 q 637 19 670 -12 q 604 94 604 50 q 616 183 604 123 q 556 102 585 132 q 437 13 500 43 q 319 -16 375 -16 q 240 0 273 -16 q 187 47 206 16 q 168 109 168 77 q 181 200 168 141 l 260 557 l 135 557 l 148 614 q 240 631 199 619 q 345 671 281 642 l 395 671 l 285 174 q 278 127 278 141 q 296 76 278 95 q 343 56 315 56 q 472 109 406 56 q 609 280 557 175 q 686 497 661 385 l 721 654 m 410 806 l 635 926 l 821 806 l 787 771 l 621 834 l 440 771 l 410 806 z "},"ü":{"ha":861,"x_min":135,"x_max":921,"o":"m 721 654 l 832 654 l 721 163 q 713 98 713 130 q 725 66 713 78 q 755 54 737 54 q 799 70 775 54 q 878 142 841 98 l 921 105 q 820 15 867 41 q 725 -12 774 -12 q 637 19 670 -12 q 604 94 604 50 q 616 183 604 123 q 556 102 585 132 q 437 13 500 43 q 319 -16 375 -16 q 240 0 273 -16 q 187 47 206 16 q 168 109 168 77 q 181 200 168 141 l 260 557 l 135 557 l 148 614 q 240 631 199 619 q 345 671 281 642 l 395 671 l 285 174 q 278 127 278 141 q 296 76 278 95 q 343 56 315 56 q 472 109 406 56 q 609 280 557 175 q 686 497 661 385 l 721 654 m 525 929 q 574 910 555 929 q 593 862 593 891 q 563 796 593 825 q 494 767 533 767 q 446 785 464 767 q 427 836 427 804 q 456 901 427 873 q 525 929 486 929 m 746 929 q 794 910 776 929 q 813 862 813 891 q 784 796 813 825 q 715 767 754 767 q 668 785 686 767 q 650 836 650 804 q 679 901 650 873 q 746 929 707 929 z "},"†":{"ha":861,"x_min":299,"x_max":829,"o":"m 395 -233 l 337 -233 l 399 29 q 431 195 422 131 q 439 319 439 258 q 427 425 439 374 q 505 509 473 469 q 544 567 527 536 q 441 541 505 557 q 347 524 378 524 q 312 535 324 524 q 299 567 299 547 q 320 627 299 601 q 376 654 341 654 q 404 652 389 654 q 462 639 425 648 l 554 611 q 557 702 557 663 q 553 799 557 745 q 550 848 550 836 q 568 924 550 900 q 650 962 598 962 q 708 945 684 962 q 726 913 726 932 q 720 884 726 899 q 667 778 711 861 q 589 611 618 688 q 699 638 631 621 q 779 654 762 654 q 819 642 804 654 q 829 613 829 633 q 818 568 829 590 q 789 535 807 546 q 753 524 772 524 q 667 542 732 524 l 578 567 q 592 491 582 522 q 629 425 603 461 q 538 283 564 341 q 457 32 491 177 l 395 -233 z "},"°":{"ha":555,"x_min":299,"x_max":670,"o":"m 484 962 q 616 908 562 962 q 670 777 670 854 q 616 646 670 700 q 484 591 562 591 q 353 646 408 591 q 299 777 299 700 q 353 908 299 854 q 484 962 408 962 m 484 895 q 399 861 435 895 q 364 777 364 826 q 399 693 364 728 q 484 658 435 658 q 570 693 534 658 q 605 777 605 728 q 570 861 605 826 q 484 895 534 895 z "},"¢":{"ha":861,"x_min":245,"x_max":877,"o":"m 647 958 l 713 958 l 676 795 q 828 734 779 780 q 877 633 877 689 q 860 589 877 606 q 817 572 844 572 q 778 587 793 572 q 748 649 762 602 q 728 699 738 684 q 705 722 718 713 q 663 735 691 730 l 547 226 l 568 225 q 672 254 611 225 q 790 336 734 282 l 831 294 q 736 218 789 250 q 633 170 684 186 q 530 155 583 155 l 491 -17 l 423 -17 l 465 159 q 348 209 396 172 q 272 301 299 245 q 245 429 245 357 q 292 612 245 528 q 420 746 339 697 q 611 800 500 794 l 647 958 m 597 736 q 532 722 560 735 q 450 664 485 702 q 391 559 415 626 q 366 422 366 492 q 381 341 366 378 q 425 274 395 304 q 482 237 446 252 l 597 736 z "},"£":{"ha":861,"x_min":41,"x_max":943,"o":"m 941 684 l 872 684 q 821 832 872 779 q 683 886 769 886 q 523 822 584 886 q 461 648 461 758 q 468 557 461 613 l 722 557 l 707 491 l 477 491 q 486 387 486 435 q 477 275 486 323 q 448 184 467 227 q 669 98 576 98 q 785 158 733 98 q 867 336 825 204 l 930 319 q 806 58 889 147 q 650 -16 734 -16 q 535 11 593 -16 q 408 105 477 37 q 343 33 372 56 q 277 -3 314 9 q 202 -16 240 -16 q 88 29 135 -16 q 41 140 41 75 q 89 257 41 210 q 205 305 136 305 q 380 223 309 305 q 384 288 384 256 q 380 372 384 332 q 363 491 376 412 l 144 491 l 159 557 l 351 557 q 341 661 341 618 q 381 816 341 749 q 498 923 422 884 q 674 962 574 962 q 820 932 760 962 q 911 848 880 903 q 943 722 943 794 q 941 684 943 709 m 363 148 q 275 221 310 202 q 205 240 239 240 q 140 212 168 240 q 113 142 113 184 q 140 73 113 100 q 210 46 168 46 q 290 69 253 46 q 363 148 328 92 z "},"§":{"ha":861,"x_min":0,"x_max":756,"o":"m 283 578 q 212 653 235 613 q 190 740 190 694 q 224 847 190 797 q 328 930 258 897 q 484 962 398 962 q 629 934 564 962 q 726 865 695 906 q 756 782 756 825 q 739 733 756 751 q 694 715 722 715 q 666 722 678 715 q 646 743 653 730 q 631 792 639 755 q 621 829 625 821 q 593 865 612 848 q 550 888 574 881 q 481 899 518 899 q 348 858 397 899 q 298 761 298 817 q 312 705 298 728 q 367 652 332 673 q 503 603 391 640 q 658 513 610 569 q 706 391 706 458 q 656 250 706 320 q 547 148 619 197 q 614 78 593 116 q 635 -5 635 39 q 595 -124 635 -66 q 479 -217 555 -182 q 307 -252 404 -252 q 146 -221 216 -252 q 38 -137 77 -189 q 0 -38 0 -85 q 19 11 0 -10 q 60 33 38 33 q 94 22 79 33 q 117 -3 109 11 q 122 -41 119 -9 q 132 -98 127 -83 q 161 -143 140 -124 q 223 -177 182 -163 q 315 -192 264 -192 q 425 -170 376 -192 q 498 -113 474 -148 q 522 -38 522 -77 q 507 22 522 -4 q 453 74 484 56 q 317 123 421 92 q 148 216 200 157 q 96 346 96 274 q 138 464 96 409 q 283 578 189 532 m 337 549 q 237 475 266 508 q 198 378 198 429 q 217 312 198 344 q 272 258 237 279 q 400 209 307 237 q 495 176 456 192 q 578 255 559 226 q 608 344 608 298 q 574 435 608 395 q 456 505 539 476 l 377 533 q 363 538 369 536 l 337 549 z "},"•":{"ha":639,"x_min":220,"x_max":612,"o":"m 220 477 q 277 621 220 562 q 416 680 334 680 q 555 622 497 680 q 612 478 612 563 q 555 336 612 395 q 416 278 497 278 q 277 336 335 278 q 220 477 220 395 z "},"¶":{"ha":861,"x_min":194,"x_max":833,"o":"m 677 856 l 575 856 l 575 -301 l 511 -301 l 511 425 q 489 425 496 425 q 324 454 389 425 q 227 537 259 484 q 194 662 194 589 q 214 762 194 715 q 269 842 233 808 q 343 891 304 876 q 444 913 382 907 q 551 917 475 917 l 833 917 l 833 868 q 769 856 784 864 q 748 828 755 847 q 741 749 741 808 l 741 -301 l 677 -301 l 677 856 z "},"ß":{"ha":861,"x_min":-142,"x_max":878,"o":"m 149 586 l 164 654 l 290 654 l 304 720 q 368 876 326 821 q 476 963 410 931 q 632 995 543 995 q 798 942 737 995 q 859 813 859 889 q 841 744 859 773 q 804 718 829 726 q 729 707 786 711 q 662 696 680 703 q 606 666 623 686 q 588 620 588 646 q 662 521 588 571 l 727 477 q 840 381 812 418 q 878 255 878 328 q 790 63 878 143 q 562 -16 702 -16 q 379 38 446 -16 q 329 127 329 79 q 345 167 329 151 q 385 184 361 184 q 425 171 408 184 q 460 125 441 158 q 496 77 481 90 q 537 57 511 65 q 593 48 563 48 q 687 72 646 48 q 753 138 729 95 q 778 228 778 181 q 753 312 778 275 q 656 398 728 350 l 606 431 q 519 511 544 472 q 494 593 494 550 q 558 713 494 665 q 749 760 622 761 q 741 794 741 783 q 743 817 741 800 q 745 838 745 827 q 713 905 745 878 q 623 932 680 932 q 528 912 570 932 q 460 855 486 892 q 420 752 435 819 l 253 11 q 192 -132 234 -73 q 90 -222 151 -191 q -35 -253 29 -253 q -112 -229 -83 -253 q -142 -172 -142 -205 q -125 -134 -142 -150 q -83 -118 -109 -118 q -55 -123 -68 -118 q -26 -144 -43 -128 q 7 -168 -5 -162 q 35 -173 19 -173 q 76 -161 58 -173 q 106 -126 95 -149 q 137 -42 129 -81 l 273 586 l 149 586 z "},"®":{"ha":1028,"x_min":60,"x_max":1023,"o":"m 541 941 q 782 876 670 941 q 958 700 894 812 q 1023 460 1023 589 q 958 219 1023 331 q 782 43 894 108 q 541 -21 670 -21 q 301 43 412 -21 q 125 219 189 108 q 60 460 60 331 q 125 700 60 589 q 301 876 189 812 q 541 941 412 941 m 541 899 q 322 840 424 899 q 161 680 220 781 q 102 460 102 578 q 161 240 102 342 q 322 79 220 138 q 541 20 424 20 q 761 79 659 20 q 922 240 863 138 q 981 460 981 342 q 922 680 981 578 q 761 840 863 781 q 541 899 659 899 m 275 755 l 537 755 q 686 712 633 755 q 739 604 739 669 q 701 510 739 547 q 588 453 663 472 l 730 251 q 774 203 754 216 q 812 191 787 193 l 812 169 l 687 169 l 488 444 l 436 444 l 436 234 q 456 201 441 211 q 516 191 472 191 l 516 169 l 267 169 l 267 191 q 315 200 300 191 q 336 228 330 209 q 338 285 338 236 l 338 640 q 336 695 338 688 q 319 722 332 713 q 275 731 307 731 l 275 755 m 436 473 q 550 487 513 473 q 609 530 588 501 q 629 596 629 559 q 591 688 629 651 q 493 726 553 726 q 436 715 467 726 l 436 473 z "},"©":{"ha":1028,"x_min":60,"x_max":1023,"o":"m 541 941 q 782 876 670 941 q 958 700 894 812 q 1023 460 1023 589 q 958 219 1023 331 q 782 43 894 108 q 541 -21 670 -21 q 301 43 412 -21 q 125 219 189 108 q 60 460 60 331 q 125 700 60 589 q 301 876 189 812 q 541 941 412 941 m 541 899 q 322 840 424 899 q 161 680 220 781 q 102 460 102 578 q 161 240 102 342 q 322 79 220 138 q 541 20 424 20 q 761 79 659 20 q 922 240 863 138 q 981 460 981 342 q 922 680 981 578 q 761 840 863 781 q 541 899 659 899 m 779 769 l 793 579 l 766 579 q 722 669 749 636 q 652 720 694 701 q 561 739 610 739 q 447 708 497 739 q 374 625 397 676 q 343 475 343 559 q 370 320 343 380 q 448 228 396 260 q 568 195 500 195 q 650 208 610 195 q 720 243 690 221 q 779 305 750 265 l 804 292 q 709 199 762 231 q 545 155 637 155 q 384 194 455 155 q 272 304 313 234 q 231 456 231 374 q 274 613 231 541 q 394 728 317 686 q 568 770 471 770 q 620 766 600 770 q 694 744 641 762 q 719 739 711 739 q 738 745 730 739 q 752 769 745 751 l 779 769 z "},"™":{"ha":1361,"x_min":-7,"x_max":1311,"o":"m 7 920 l 501 920 l 516 783 l 493 783 q 457 856 486 833 q 361 879 428 879 l 311 879 l 311 486 q 316 428 311 442 q 335 406 322 413 q 382 397 348 398 l 382 372 l 129 372 l 129 397 q 176 407 165 400 q 192 428 186 414 q 197 486 197 441 l 197 879 l 145 879 q 54 858 81 879 q 16 783 26 837 l -7 783 l 7 920 m 757 920 l 942 532 l 1122 920 l 1311 920 l 1311 895 q 1260 887 1272 894 q 1242 865 1248 880 q 1236 803 1236 850 l 1236 486 q 1241 426 1236 439 q 1259 406 1246 413 q 1311 397 1273 399 l 1311 372 l 1041 372 l 1041 397 q 1095 405 1081 397 q 1115 427 1109 412 q 1122 485 1122 441 l 1122 819 l 913 372 l 892 372 l 683 812 l 683 486 q 688 429 683 441 q 707 404 694 412 q 746 397 720 397 l 770 397 l 770 372 l 563 372 l 563 397 q 614 404 602 397 q 633 425 627 411 q 640 486 640 439 l 640 802 q 634 866 640 852 q 614 887 629 880 q 563 895 600 895 l 563 920 l 757 920 z "},"´":{"ha":444,"x_min":277,"x_max":543,"o":"m 294 743 l 277 783 l 373 877 q 452 943 421 924 q 488 953 468 953 q 527 935 511 953 q 543 894 543 918 q 523 848 543 869 q 450 804 504 826 l 294 743 z "},"¨":{"ha":583,"x_min":288,"x_max":674,"o":"m 386 929 q 435 910 416 929 q 454 862 454 891 q 424 796 454 825 q 355 767 394 767 q 307 785 325 767 q 288 836 288 804 q 317 901 288 873 q 386 929 347 929 m 607 929 q 655 910 637 929 q 674 862 674 891 q 645 796 674 825 q 576 767 615 767 q 529 785 547 767 q 511 836 511 804 q 539 901 511 873 q 607 929 568 929 z "},"≠":{"ha":762,"x_min":147,"x_max":808,"o":"m 621 621 l 808 621 l 808 538 l 565 538 l 478 408 l 808 408 l 808 325 l 422 325 l 255 75 l 168 75 l 334 325 l 147 325 l 147 408 l 390 408 l 477 538 l 147 538 l 147 621 l 532 621 l 700 871 l 788 871 l 621 621 z "},"Æ":{"ha":1694,"x_min":0,"x_max":1777,"o":"m 652 946 l 1699 946 l 1777 699 l 1714 678 q 1673 766 1699 729 q 1615 829 1648 803 q 1552 857 1590 847 q 1444 871 1501 871 l 1194 871 l 1116 526 l 1293 526 l 1309 525 q 1391 541 1356 525 q 1444 582 1426 557 q 1484 684 1461 607 l 1550 684 l 1462 300 l 1397 300 q 1407 372 1407 350 q 1393 419 1407 399 q 1355 448 1380 439 q 1274 457 1330 457 l 1101 457 l 1026 130 q 1021 100 1021 108 q 1032 79 1021 86 q 1080 73 1043 73 l 1299 73 q 1437 90 1375 73 q 1540 137 1499 108 q 1613 208 1582 165 q 1689 323 1629 229 l 1748 300 l 1604 0 l 753 0 l 766 57 l 789 57 q 874 76 847 57 q 912 149 901 95 l 981 457 l 537 457 l 294 149 l 281 134 q 257 87 257 106 q 269 64 257 72 q 317 57 280 57 l 357 57 l 346 0 l 0 0 l 13 57 q 76 63 58 58 q 121 92 94 69 q 161 136 137 105 l 714 806 q 741 856 741 839 q 725 881 741 874 q 667 888 708 888 l 638 888 l 652 946 m 865 871 l 592 526 l 997 526 l 1076 871 l 865 871 z "},"Ø":{"ha":1055,"x_min":52,"x_max":1211,"o":"m 1022 840 l 1168 962 l 1211 910 l 1063 787 q 1122 560 1122 690 q 1044 272 1122 408 q 831 59 965 137 q 544 -16 701 -16 q 375 14 448 -16 q 245 109 302 45 l 95 -16 l 52 35 l 204 162 q 147 376 147 254 q 225 668 147 531 q 436 884 304 806 q 720 962 569 962 q 889 931 812 962 q 1022 840 966 900 m 938 770 q 720 890 861 890 q 512 826 610 890 q 350 631 414 761 q 285 358 285 502 q 302 243 285 301 l 938 770 m 967 707 l 330 178 q 421 85 365 117 q 550 54 477 54 q 757 118 660 54 q 919 315 854 183 q 985 589 985 447 q 967 707 985 646 z "},"∞":{"ha":990,"x_min":36,"x_max":954,"o":"m 443 452 q 509 568 477 532 q 586 622 541 604 q 694 640 631 640 q 827 604 768 640 q 920 505 886 568 q 954 357 954 441 q 863 136 954 219 q 717 73 795 73 q 593 121 650 73 q 488 267 554 154 q 425 173 456 205 q 354 125 393 141 q 269 109 315 109 q 103 179 170 109 q 36 359 36 249 q 98 538 36 469 q 244 608 159 608 q 355 571 308 608 q 443 452 395 541 m 508 315 q 607 174 557 212 q 720 136 656 136 q 863 201 811 136 q 915 357 915 266 q 857 522 915 456 q 724 587 798 587 q 647 567 680 587 q 585 500 614 547 q 508 315 566 467 m 423 400 q 343 513 387 481 q 242 545 299 545 q 122 494 170 545 q 73 359 73 444 q 120 216 73 271 q 229 161 168 161 q 336 212 288 161 q 416 377 374 251 l 423 400 z "},"±":{"ha":762,"x_min":147,"x_max":808,"o":"m 808 593 l 808 510 l 519 510 l 519 221 l 436 221 l 436 510 l 147 510 l 147 593 l 436 593 l 436 882 l 519 882 l 519 593 l 808 593 m 808 170 l 808 87 l 147 87 l 147 170 l 808 170 z "},"≤":{"ha":762,"x_min":160,"x_max":771,"o":"m 771 192 l 160 464 l 160 532 l 771 804 l 771 706 l 284 498 l 771 290 l 771 192 m 771 136 l 771 53 l 160 53 l 160 136 l 771 136 z "},"≥":{"ha":762,"x_min":184,"x_max":795,"o":"m 184 804 l 795 532 l 795 464 l 184 192 l 184 290 l 671 498 l 184 706 l 184 804 m 795 136 l 795 53 l 184 53 l 184 136 l 795 136 z "},"¥":{"ha":861,"x_min":104,"x_max":1099,"o":"m 644 450 l 909 450 l 894 380 l 593 380 l 566 254 l 867 254 l 851 183 l 549 183 q 537 111 537 126 q 559 66 537 80 q 618 57 574 57 l 648 57 l 635 0 l 262 0 l 275 57 q 351 60 338 58 q 384 77 369 64 q 407 106 399 89 q 429 183 416 124 l 104 183 l 121 254 l 445 254 l 471 367 l 466 380 l 146 380 l 164 450 l 437 450 l 292 810 q 265 867 271 860 q 242 883 256 878 q 176 888 227 888 l 190 946 l 536 946 l 522 888 l 481 888 q 427 880 439 888 q 414 852 414 871 q 425 810 414 838 l 558 450 l 833 804 q 863 861 863 842 q 850 882 863 875 q 794 888 838 888 l 764 888 l 777 946 l 1099 946 l 1086 888 q 1027 884 1046 889 q 995 869 1009 879 q 950 823 977 855 l 644 450 z "},"µ":{"ha":800,"x_min":20,"x_max":785,"o":"m 272 654 l 387 654 l 290 232 q 278 151 278 180 q 300 85 278 109 q 358 62 322 62 q 445 90 394 62 q 559 170 495 117 l 671 654 l 785 654 l 671 158 q 661 108 661 119 q 670 85 661 93 q 693 77 678 77 q 753 94 713 77 l 745 57 q 643 1 673 13 q 595 -12 612 -12 q 554 6 570 -12 q 539 58 539 24 q 545 109 539 73 q 398 2 448 26 q 303 -21 349 -21 q 238 -7 267 -21 q 194 30 209 7 q 170 100 178 52 q 153 28 157 58 q 147 -58 147 -15 l 149 -143 q 125 -220 149 -193 q 68 -248 101 -248 q 32 -235 45 -248 q 20 -196 20 -222 q 26 -159 20 -180 q 61 -68 32 -138 q 151 173 115 60 q 223 444 186 286 l 272 654 z "},"∂":{"ha":686,"x_min":44,"x_max":675,"o":"m 631 486 q 639 612 639 563 q 575 801 639 733 q 404 868 511 868 q 322 856 359 868 q 257 823 285 844 q 200 760 229 802 l 169 760 q 245 882 209 842 q 329 943 281 922 q 427 964 378 964 q 564 919 505 964 q 650 799 624 874 q 675 624 675 724 q 637 356 675 486 q 538 138 600 227 q 411 15 476 50 q 274 -21 347 -21 q 120 28 182 -21 q 44 206 44 88 q 97 409 44 311 q 238 561 151 507 q 418 616 326 616 q 506 600 465 616 q 582 553 547 585 q 631 486 608 530 m 619 426 q 573 510 601 478 q 505 560 545 542 q 425 578 465 578 q 288 523 351 578 q 196 373 234 476 q 159 178 159 269 q 176 92 159 130 q 223 36 194 54 q 291 18 253 18 q 422 72 350 18 q 553 237 494 125 q 619 426 594 315 z "},"∑":{"ha":990,"x_min":29,"x_max":963,"o":"m 920 -300 l 29 -300 l 29 -275 l 483 336 l 29 938 l 29 963 l 896 963 l 914 734 l 887 734 q 868 816 882 783 q 835 868 854 849 q 788 898 816 887 q 718 908 760 908 l 216 908 l 597 395 l 171 -180 l 726 -180 q 819 -165 770 -180 q 893 -117 867 -150 q 936 -13 919 -83 l 963 -18 l 920 -300 z "},"∏":{"ha":1143,"x_min":31,"x_max":1112,"o":"m 841 910 l 302 910 l 302 -169 q 315 -233 302 -207 q 342 -260 324 -252 q 412 -274 374 -274 l 436 -274 l 436 -300 l 31 -300 l 31 -274 l 55 -274 q 123 -261 94 -274 q 151 -235 143 -252 q 165 -169 165 -206 l 165 833 q 152 897 165 871 q 125 923 142 916 q 55 938 93 938 l 31 938 l 31 963 l 1112 963 l 1112 938 l 1088 938 q 1021 924 1049 938 q 992 899 1000 915 q 979 833 979 869 l 979 -169 q 991 -233 979 -207 q 1018 -260 1001 -252 q 1088 -274 1050 -274 l 1112 -274 l 1112 -300 l 707 -300 l 707 -274 l 731 -274 q 799 -261 770 -274 q 827 -235 819 -252 q 841 -169 841 -206 l 841 910 z "},"":{"ha":762,"x_min":49,"x_max":722,"o":"m 519 505 l 351 505 l 249 154 q 185 12 219 52 q 126 -16 161 -16 q 87 -2 102 -16 q 72 30 72 12 q 76 55 72 43 q 92 90 81 73 q 134 140 97 96 q 189 220 169 182 q 229 326 208 258 l 283 505 l 249 505 q 133 487 170 505 q 73 427 96 469 l 49 427 q 81 494 60 465 q 140 557 108 534 q 215 590 173 581 q 290 597 246 597 l 722 597 l 694 505 l 589 505 l 500 210 q 488 153 488 172 q 509 93 488 115 q 560 71 530 71 q 609 89 586 71 q 653 154 633 107 l 677 154 q 640 50 659 81 q 592 1 621 18 q 533 -16 564 -16 q 451 22 484 -16 q 417 125 417 60 q 432 214 417 170 l 437 229 l 519 505 z "},"∫":{"ha":380,"x_min":0,"x_max":380,"o":"m 136 607 q 143 898 136 732 q 157 1078 149 1024 q 192 1197 169 1149 q 236 1244 205 1225 q 295 1263 267 1263 q 354 1241 328 1263 q 380 1191 380 1219 q 362 1140 380 1160 q 317 1120 344 1120 q 266 1145 294 1120 q 239 1158 250 1158 q 219 1148 227 1158 q 212 1115 212 1139 q 218 1017 212 1087 q 243 567 243 738 q 238 355 243 519 l 231 130 q 210 -10 225 50 q 175 -97 195 -69 q 132 -137 155 -125 q 80 -149 108 -149 q 22 -126 45 -149 q 0 -67 0 -103 q 17 -19 0 -37 q 61 0 35 0 q 109 -22 88 0 q 127 -40 122 -37 q 141 -43 133 -43 q 160 -34 153 -43 q 168 -2 168 -24 q 161 79 168 26 q 143 316 151 166 q 136 607 136 466 z "},"ª":{"ha":611,"x_min":201,"x_max":742,"o":"m 615 952 l 685 952 l 609 642 q 606 616 606 627 q 611 598 606 604 q 625 591 616 591 q 654 603 637 591 q 704 648 671 614 l 742 617 q 678 563 696 573 q 604 544 644 544 q 558 553 578 544 q 528 579 538 563 q 518 616 518 596 q 520 633 518 620 q 444 568 477 587 q 340 541 394 541 q 240 582 279 541 q 201 688 201 622 q 237 823 201 758 q 334 925 273 888 q 453 962 395 962 q 538 950 488 962 q 598 917 569 943 l 615 952 m 578 871 q 531 901 558 890 q 477 911 503 911 q 395 884 435 911 q 327 797 355 856 q 298 678 298 737 q 316 616 298 638 q 362 594 334 594 q 440 624 397 594 q 523 721 484 654 q 578 871 562 787 z "},"º":{"ha":555,"x_min":209,"x_max":652,"o":"m 471 962 q 602 915 551 962 q 652 799 652 868 q 617 669 652 730 q 524 574 583 607 q 391 541 466 541 q 255 592 302 541 q 209 707 209 644 q 245 834 209 772 q 340 929 281 895 q 471 962 399 962 m 467 914 q 352 848 398 914 q 307 699 307 782 q 332 617 307 647 q 397 588 357 588 q 470 613 435 588 q 529 692 504 637 q 555 802 555 747 q 531 883 555 851 q 467 914 508 914 z "},"Ω":{"ha":1067,"x_min":34,"x_max":1014,"o":"m 34 0 l 102 233 l 127 233 q 118 192 118 209 q 142 137 118 158 q 212 116 165 116 l 363 116 l 379 183 q 201 291 269 206 q 133 488 133 375 q 199 709 133 603 q 388 878 266 814 q 650 941 511 941 q 838 898 755 941 q 967 782 921 855 q 1014 631 1014 709 q 961 434 1014 536 q 819 276 913 344 q 631 195 724 209 l 604 116 l 757 116 q 872 149 834 116 q 918 233 901 173 l 943 233 l 876 0 l 517 0 l 604 247 q 720 306 673 261 q 827 472 784 368 q 870 671 870 576 q 807 831 870 768 q 647 894 745 894 q 468 840 551 894 q 335 679 385 785 q 277 430 277 557 q 319 295 277 349 q 429 227 361 240 l 379 0 l 34 0 z "},"æ":{"ha":1222,"x_min":98,"x_max":1244,"o":"m 628 393 l 642 454 q 648 498 648 485 q 609 576 648 546 q 492 606 570 606 q 336 507 366 606 q 311 450 321 459 q 267 429 291 429 q 229 447 245 429 q 214 494 214 465 q 283 610 214 560 q 503 671 370 671 q 620 655 568 671 q 700 618 673 640 q 746 554 727 595 q 894 645 827 620 q 1038 671 961 671 q 1149 651 1104 671 q 1219 597 1194 631 q 1244 528 1244 562 q 1187 410 1244 464 q 1003 327 1130 355 q 726 292 876 298 q 722 246 722 267 q 744 146 722 188 q 808 80 766 105 q 896 56 850 56 q 1025 85 953 56 q 1179 180 1098 115 l 1217 137 q 1136 75 1177 100 q 995 5 1059 27 q 863 -16 930 -16 q 759 0 804 -16 q 680 49 713 17 q 625 132 647 81 q 452 20 553 65 q 299 -16 371 -16 q 153 32 208 -16 q 98 150 98 80 q 122 234 98 193 q 187 300 146 275 q 370 360 248 336 q 628 393 492 385 m 736 346 q 985 388 901 360 q 1106 456 1069 415 q 1134 524 1134 488 q 1103 581 1134 555 q 1025 606 1072 606 q 894 566 959 606 q 782 453 829 526 q 736 346 752 407 m 616 336 q 408 304 493 322 q 281 262 322 286 q 234 216 251 243 q 218 159 218 188 q 245 94 218 117 q 329 64 280 64 q 437 86 376 64 q 576 165 497 109 l 616 336 z "},"ø":{"ha":750,"x_min":58,"x_max":840,"o":"m 707 589 l 802 671 l 840 627 l 741 542 q 776 406 776 479 q 722 189 776 291 q 583 36 669 87 q 389 -16 497 -16 q 189 65 260 -16 l 95 -16 l 58 28 l 156 113 q 119 254 119 179 q 175 464 119 363 q 318 617 230 564 q 509 671 406 671 q 707 589 633 671 m 629 522 q 577 584 610 562 q 503 605 545 605 q 382 564 439 605 q 285 432 326 522 q 245 239 245 341 q 249 193 245 216 l 629 522 m 647 460 l 267 132 q 396 47 306 47 q 513 88 458 47 q 610 222 568 129 q 651 412 651 316 q 647 460 651 433 z "},"¿":{"ha":750,"x_min":139,"x_max":772,"o":"m 676 494 q 628 513 647 494 q 609 562 609 532 q 636 629 609 601 q 703 658 664 658 q 754 640 735 658 q 772 589 772 621 q 745 522 772 549 q 676 494 717 494 m 621 414 l 688 414 l 636 180 q 574 182 594 182 q 390 153 460 182 q 285 69 320 123 q 250 -54 250 15 q 311 -200 250 -146 q 457 -254 373 -254 q 524 -243 494 -254 q 573 -213 553 -232 q 604 -172 582 -205 q 635 -130 625 -138 q 675 -116 653 -116 q 719 -132 701 -116 q 737 -172 737 -149 q 713 -235 737 -208 q 616 -296 683 -272 q 471 -320 550 -320 q 244 -247 339 -320 q 139 -40 139 -165 q 188 115 139 44 q 333 225 237 185 q 587 265 429 265 l 621 414 z "},"¡":{"ha":444,"x_min":90,"x_max":425,"o":"m 328 494 q 280 513 299 494 q 261 562 261 532 q 289 629 261 601 q 355 658 316 658 q 406 640 387 658 q 425 589 425 621 q 397 522 425 549 q 328 494 369 494 m 283 416 l 338 416 l 255 -195 q 239 -269 248 -253 q 205 -306 227 -292 q 161 -320 183 -320 q 110 -301 130 -320 q 90 -254 90 -283 q 93 -226 90 -240 q 105 -182 94 -218 l 283 416 z "},"¬":{"ha":833,"x_min":182,"x_max":844,"o":"m 182 487 l 844 487 l 844 -13 l 764 -13 l 764 408 l 182 408 l 182 487 z "},"√":{"ha":762,"x_min":57,"x_max":762,"o":"m 712 1267 l 762 1267 l 551 -53 l 214 640 l 80 578 l 57 621 l 261 724 l 536 165 l 712 1267 z "},"ƒ":{"ha":861,"x_min":37,"x_max":978,"o":"m 378 654 l 505 654 l 536 766 q 564 841 543 795 q 613 914 584 886 q 704 974 652 953 q 815 995 756 995 q 934 965 890 995 q 978 899 978 935 q 962 857 978 874 q 920 840 945 840 q 889 846 903 840 q 858 870 876 852 q 801 915 824 903 q 769 923 787 923 q 708 893 738 923 q 659 794 677 863 l 620 654 l 769 654 l 753 589 l 602 589 l 455 48 q 383 -129 424 -67 q 286 -220 342 -190 q 163 -250 229 -250 q 71 -225 104 -250 q 37 -170 37 -201 q 55 -129 37 -146 q 96 -113 72 -113 q 124 -118 112 -113 q 157 -142 137 -124 q 191 -169 178 -162 q 214 -175 203 -175 q 272 -142 245 -175 q 326 -9 299 -110 l 488 589 l 359 589 l 378 654 z "},"≈":{"ha":762,"x_min":73,"x_max":689,"o":"m 630 693 l 689 627 q 641 544 668 574 q 582 498 614 514 q 513 483 549 483 q 458 493 486 483 q 375 533 444 498 l 285 576 q 250 583 268 583 q 198 560 218 583 q 138 461 178 537 l 73 528 q 128 611 100 582 q 186 654 155 640 q 250 669 218 669 q 300 661 273 669 q 399 614 328 652 q 481 575 465 582 q 509 569 498 569 q 568 597 541 569 q 630 693 587 616 m 630 448 l 689 382 q 641 299 668 329 q 582 253 614 269 q 513 237 549 237 q 458 248 486 237 q 375 288 444 252 l 285 331 q 250 338 268 338 q 198 315 218 338 q 138 216 178 292 l 73 282 q 128 365 100 336 q 186 409 155 394 q 250 424 218 424 q 300 415 273 424 q 399 370 328 406 q 481 330 465 336 q 509 323 498 323 q 568 351 541 323 q 630 448 587 370 z "},"∆":{"ha":850,"x_min":18,"x_max":831,"o":"m 831 0 l 18 0 l 444 941 l 831 0 m 671 56 l 401 711 l 102 56 l 671 56 z "},"«":{"ha":416,"x_min":104,"x_max":484,"o":"m 315 549 l 202 347 l 221 115 l 164 106 l 104 366 l 269 578 l 315 549 m 435 578 l 484 549 l 368 347 l 388 115 l 331 106 l 271 366 l 435 578 z "},"»":{"ha":416,"x_min":96,"x_max":475,"o":"m 311 106 l 262 136 l 377 338 l 358 571 l 415 578 l 475 319 l 311 106 m 144 106 l 96 136 l 211 338 l 192 571 l 249 578 l 311 319 l 144 106 z "},"…":{"ha":1389,"x_min":160,"x_max":1249,"o":"m 256 148 q 304 129 286 148 q 323 80 323 110 q 296 12 323 41 q 230 -16 268 -16 q 178 2 197 -16 q 160 53 160 20 q 188 120 160 92 q 256 148 216 148 m 719 148 q 768 129 749 148 q 787 80 787 110 q 759 12 787 41 q 692 -16 731 -16 q 642 2 660 -16 q 623 53 623 20 q 651 120 623 92 q 719 148 679 148 m 1182 148 q 1230 129 1211 148 q 1249 80 1249 110 q 1222 12 1249 41 q 1156 -16 1194 -16 q 1104 2 1123 -16 q 1086 53 1086 20 q 1114 120 1086 92 q 1182 148 1141 148 z "}," ":{"ha":861,"x_min":0,"x_max":0,"o":""},"À":{"ha":972,"x_min":0,"x_max":985,"o":"m 625 946 l 741 946 l 880 155 q 899 89 889 106 q 925 64 909 71 q 985 57 940 58 l 972 0 l 625 0 l 641 57 l 679 57 q 743 73 725 57 q 762 115 762 88 q 757 161 762 130 l 724 352 l 362 352 l 240 138 q 225 93 225 112 q 239 66 225 76 q 298 57 253 57 l 330 57 l 316 0 l 0 0 l 14 57 q 78 65 59 58 q 112 88 97 73 q 161 161 127 104 l 625 946 m 713 418 l 644 838 l 401 418 l 713 418 m 789 984 l 633 1046 q 543 1134 543 1082 q 559 1177 543 1159 q 598 1194 575 1194 q 633 1184 617 1194 q 711 1118 663 1166 l 807 1024 l 789 984 z "},"Ã":{"ha":972,"x_min":0,"x_max":985,"o":"m 625 946 l 741 946 l 880 155 q 899 89 889 106 q 925 64 909 71 q 985 57 940 58 l 972 0 l 625 0 l 641 57 l 679 57 q 743 73 725 57 q 762 115 762 88 q 757 161 762 130 l 724 352 l 362 352 l 240 138 q 225 93 225 112 q 239 66 225 76 q 298 57 253 57 l 330 57 l 316 0 l 0 0 l 14 57 q 78 65 59 58 q 112 88 97 73 q 161 161 127 104 l 625 946 m 713 418 l 644 838 l 401 418 l 713 418 m 888 1148 l 928 1148 q 863 1061 902 1090 q 772 1032 825 1032 q 745 1034 757 1032 q 698 1046 735 1036 q 610 1061 638 1061 q 575 1056 591 1061 q 549 1040 560 1050 l 507 1040 q 567 1118 529 1090 q 648 1145 606 1145 q 746 1128 677 1145 q 814 1116 800 1116 q 851 1124 833 1116 q 888 1148 870 1132 z "},"Õ":{"ha":1055,"x_min":147,"x_max":1122,"o":"m 722 962 q 1005 858 894 962 q 1122 561 1122 747 q 1044 272 1122 408 q 831 59 965 137 q 544 -16 701 -16 q 337 33 425 -16 q 198 172 250 83 q 147 376 147 261 q 225 668 147 531 q 437 884 304 806 q 722 962 570 962 m 726 890 q 513 826 610 890 q 351 632 416 762 q 286 358 286 502 q 320 196 286 267 q 414 90 355 125 q 550 54 473 54 q 757 119 660 54 q 920 316 854 184 q 985 591 985 448 q 950 749 985 681 q 857 854 916 817 q 726 890 798 890 m 931 1148 l 970 1148 q 906 1061 945 1090 q 815 1032 867 1032 q 787 1034 800 1032 q 741 1046 778 1036 q 653 1061 681 1061 q 618 1056 633 1061 q 591 1040 603 1050 l 549 1040 q 610 1118 572 1090 q 691 1145 648 1145 q 789 1128 720 1145 q 857 1116 842 1116 q 894 1124 876 1116 q 931 1148 913 1132 z "},"Œ":{"ha":1639,"x_min":154,"x_max":1723,"o":"m 1088 946 l 1644 946 l 1723 696 l 1659 676 q 1596 793 1632 753 q 1516 849 1560 833 q 1364 869 1458 869 l 1189 869 l 1112 523 l 1226 523 q 1333 538 1299 523 q 1391 586 1367 553 q 1428 683 1415 620 l 1494 683 l 1407 299 l 1341 299 q 1352 372 1352 351 q 1336 419 1352 398 q 1297 450 1321 441 q 1207 458 1274 458 l 1097 458 l 1021 126 q 1015 97 1015 104 q 1027 76 1015 83 q 1068 71 1034 71 l 1219 71 q 1401 95 1331 71 q 1520 164 1471 119 q 1633 322 1569 210 l 1692 299 l 1548 0 l 882 2 l 907 119 q 732 13 809 42 q 561 -16 655 -16 q 347 33 436 -16 q 206 175 258 82 q 154 385 154 268 q 234 668 154 530 q 447 884 314 806 q 728 962 579 962 q 914 923 834 962 q 1055 802 994 884 l 1088 946 m 555 53 q 765 118 665 53 q 928 311 865 184 q 991 583 991 437 q 917 808 991 726 q 726 890 843 890 q 520 826 617 890 q 358 629 424 761 q 293 355 293 496 q 378 123 293 205 q 555 53 451 53 z "},"œ":{"ha":1250,"x_min":119,"x_max":1273,"o":"m 1207 180 l 1246 137 q 1069 23 1163 63 q 887 -16 975 -16 q 739 27 800 -16 q 661 122 695 58 q 538 17 605 51 q 388 -16 471 -16 q 206 47 275 -16 q 119 249 119 127 q 173 463 119 362 q 314 617 227 564 q 505 671 401 671 q 610 653 564 671 q 690 602 657 635 q 742 519 722 570 q 803 582 774 559 q 923 648 858 625 q 1061 671 987 671 q 1177 651 1132 671 q 1247 596 1222 631 q 1273 524 1273 560 q 1250 444 1273 482 q 1173 373 1227 406 q 1019 317 1118 339 q 752 286 920 296 q 750 238 750 257 q 773 146 750 188 q 837 80 796 104 q 924 56 878 56 q 1068 92 990 56 q 1207 180 1122 115 m 761 338 q 1163 517 1163 373 q 1133 581 1163 554 q 1054 607 1103 607 q 879 535 962 607 q 761 338 795 463 m 505 606 q 383 564 441 606 q 284 429 325 522 q 243 235 243 336 q 290 96 243 152 q 393 48 330 48 q 512 90 456 48 q 609 224 569 132 q 649 420 649 317 q 607 555 649 505 q 505 606 564 606 z "},"–":{"ha":694,"x_min":62,"x_max":790,"o":"m 790 401 l 772 322 l 62 322 l 79 401 l 790 401 z "},"—":{"ha":1389,"x_min":61,"x_max":1485,"o":"m 1485 401 l 1466 322 l 61 322 l 80 401 l 1485 401 z "},"“":{"ha":611,"x_min":237,"x_max":740,"o":"m 474 995 l 505 946 q 398 874 440 910 q 336 807 355 838 q 319 754 325 789 q 351 758 338 758 q 398 737 378 758 q 417 682 417 716 q 395 626 417 648 q 338 604 372 604 q 266 636 296 604 q 237 719 237 668 q 258 810 237 765 q 331 900 280 854 q 474 995 381 946 m 709 995 l 740 946 q 633 874 675 910 q 571 807 591 838 q 554 754 560 789 q 586 758 573 758 q 633 737 614 758 q 652 682 652 716 q 630 626 652 648 q 572 604 608 604 q 502 636 531 604 q 472 719 472 668 q 494 810 472 765 q 566 900 515 854 q 709 995 616 946 z "},"”":{"ha":611,"x_min":212,"x_max":715,"o":"m 478 604 l 448 650 q 554 723 511 686 q 616 791 596 760 q 633 845 627 810 q 601 842 614 842 q 554 862 573 842 q 535 917 535 883 q 557 973 535 951 q 614 995 580 995 q 686 963 656 995 q 715 880 715 931 q 693 790 715 835 q 621 699 671 745 q 478 604 571 653 m 243 604 l 212 650 q 318 723 276 686 q 380 791 361 760 q 398 845 392 810 q 366 842 378 842 q 319 862 338 842 q 300 917 300 883 q 322 973 300 951 q 379 995 345 995 q 451 963 421 995 q 480 880 480 931 q 458 790 480 835 q 386 699 436 745 q 243 604 336 653 z "},"‘":{"ha":389,"x_min":252,"x_max":519,"o":"m 489 995 l 519 946 q 413 874 455 910 q 351 807 370 838 q 334 754 340 789 q 366 758 353 758 q 413 737 393 758 q 432 682 432 716 q 410 626 432 648 q 353 604 387 604 q 281 636 311 604 q 252 719 252 668 q 273 810 252 765 q 346 900 295 854 q 489 995 396 946 z "},"’":{"ha":389,"x_min":241,"x_max":509,"o":"m 271 604 l 241 650 q 347 723 304 686 q 409 791 389 760 q 427 845 420 810 q 395 842 407 842 q 348 862 367 842 q 328 917 328 883 q 351 973 328 951 q 408 995 373 995 q 479 963 450 995 q 509 880 509 931 q 487 790 509 835 q 414 699 465 745 q 271 604 364 653 z "},"÷":{"ha":762,"x_min":147,"x_max":808,"o":"m 479 765 q 526 746 507 765 q 546 699 546 726 q 526 650 546 670 q 477 629 505 629 q 430 650 450 629 q 410 699 410 670 q 430 746 410 726 q 479 765 450 765 m 808 515 l 808 431 l 147 431 l 147 515 l 808 515 m 477 317 q 525 297 505 317 q 545 250 545 278 q 525 201 545 221 q 476 180 505 180 q 428 201 448 180 q 408 250 408 221 q 428 297 408 278 q 477 317 448 317 z "},"◊":{"ha":686,"x_min":32,"x_max":656,"o":"m 372 964 l 656 481 l 372 0 l 297 0 l 32 481 l 297 964 l 372 964 m 336 899 l 105 481 l 336 64 l 579 481 l 336 899 z "},"ÿ":{"ha":833,"x_min":83,"x_max":854,"o":"m 744 654 l 854 654 l 716 33 q 694 -54 701 -31 q 643 -160 674 -113 q 563 -244 612 -206 q 452 -301 513 -281 q 319 -320 392 -320 q 147 -276 211 -320 q 83 -182 83 -231 q 100 -143 83 -161 q 136 -125 117 -125 q 178 -139 158 -125 q 223 -189 199 -153 q 266 -233 244 -221 q 340 -254 300 -254 q 460 -219 404 -254 q 549 -125 516 -184 q 604 33 583 -65 l 640 186 q 545 72 596 117 q 440 6 494 28 q 334 -16 385 -16 q 217 24 258 -16 q 175 113 175 64 q 183 186 175 149 l 267 557 l 142 557 l 156 615 q 244 630 205 619 q 351 671 283 640 l 401 671 l 292 186 q 284 126 284 148 q 306 77 284 98 q 359 56 328 56 q 452 83 407 56 q 569 186 518 121 q 661 351 621 252 q 716 531 692 425 l 744 654 m 511 929 q 559 910 541 929 q 578 862 578 891 q 549 796 578 825 q 479 767 519 767 q 431 785 450 767 q 413 836 413 804 q 442 901 413 873 q 511 929 471 929 m 732 929 q 780 910 762 929 q 799 862 799 891 q 769 796 799 825 q 701 767 740 767 q 653 785 671 767 q 635 836 635 804 q 664 901 635 873 q 732 929 693 929 z "},"Ÿ":{"ha":917,"x_min":203,"x_max":1127,"o":"m 218 946 l 563 946 l 550 888 l 509 888 q 454 880 467 888 q 441 852 441 871 q 452 810 441 838 l 586 454 l 861 804 q 890 861 890 841 q 878 882 890 875 q 822 888 866 888 l 792 888 l 804 946 l 1127 946 l 1114 888 q 1055 884 1074 889 q 1023 869 1036 879 q 978 823 1004 855 l 624 392 l 571 156 q 565 111 565 126 q 587 66 565 80 q 646 57 602 57 l 675 57 l 663 0 l 290 0 l 303 57 q 380 60 368 58 q 424 88 407 67 q 452 165 440 109 l 498 367 l 319 810 q 293 867 299 860 q 269 883 283 878 q 203 888 254 888 l 218 946 m 593 1171 q 642 1152 623 1171 q 661 1103 661 1133 q 631 1037 661 1066 q 562 1008 602 1008 q 514 1027 532 1008 q 496 1077 496 1045 q 525 1142 496 1114 q 593 1171 554 1171 m 814 1171 q 863 1152 844 1171 q 882 1103 882 1133 q 852 1037 882 1066 q 784 1008 823 1008 q 736 1027 754 1008 q 718 1077 718 1045 q 747 1142 718 1114 q 814 1171 776 1171 z "},"⁄":{"ha":28,"x_min":-323,"x_max":566,"o":"m 566 962 l -251 -8 l -323 -8 l 494 962 l 566 962 z "},"∕":{"ha":28,"x_min":-323,"x_max":566,"o":"m 566 962 l -251 -8 l -323 -8 l 494 962 l 566 962 z "},"€":{"ha":861,"x_min":100,"x_max":928,"o":"m 356 571 l 771 571 l 762 505 l 340 505 q 337 487 339 501 l 331 444 l 331 440 l 754 440 l 745 375 l 328 375 q 389 144 334 225 q 534 64 444 64 q 844 265 694 64 l 886 227 q 500 -17 713 -17 q 273 90 358 -17 q 186 375 187 196 l 100 375 l 110 440 l 189 440 l 189 444 q 197 505 189 477 l 100 505 l 110 571 l 213 571 q 394 858 271 753 q 657 962 516 962 q 838 889 777 962 l 869 946 l 921 946 l 928 647 l 864 642 q 667 888 823 888 q 485 806 567 888 q 356 571 404 724 z "},"‹":{"ha":250,"x_min":104,"x_max":317,"o":"m 269 578 l 317 549 l 202 347 l 221 115 l 164 106 l 104 366 l 269 578 z "},"›":{"ha":250,"x_min":96,"x_max":309,"o":"m 144 106 l 96 136 l 211 338 l 192 571 l 249 578 l 309 319 l 144 106 z "},"":{"ha":889,"x_min":-131,"x_max":967,"o":"m 192 654 l 317 654 l 336 730 q 381 852 355 809 q 450 928 407 895 q 544 978 492 962 q 663 995 595 995 q 787 974 736 995 q 865 917 837 952 q 892 850 892 881 q 876 807 892 825 q 835 789 859 789 q 762 862 791 789 q 738 904 751 891 q 703 925 726 917 q 651 932 680 932 q 548 905 593 932 q 479 833 503 878 q 447 736 462 801 l 427 654 l 752 654 q 806 658 790 654 q 829 668 817 661 l 880 668 l 766 159 q 758 104 758 122 q 770 68 758 81 q 799 56 781 56 q 923 142 846 56 l 967 105 q 862 14 909 39 q 764 -12 814 -12 q 704 2 731 -12 q 663 41 677 16 q 649 96 649 66 q 659 168 649 124 l 752 588 l 412 588 l 287 34 q 255 -90 267 -54 q 192 -220 228 -173 q 104 -293 157 -267 q -6 -320 51 -320 q -97 -294 -63 -320 q -131 -233 -131 -267 q -115 -196 -131 -212 q -76 -180 -98 -180 q -19 -209 -50 -180 q 16 -237 5 -231 q 40 -243 28 -243 q 88 -226 64 -243 q 128 -171 111 -209 q 165 -41 145 -134 l 302 588 l 178 588 l 192 654 z "},"ﬁ":{"ha":889,"x_min":-131,"x_max":967,"o":"m 192 654 l 317 654 l 336 730 q 381 852 355 809 q 450 928 407 895 q 544 978 492 962 q 663 995 595 995 q 787 974 736 995 q 865 917 837 952 q 892 850 892 881 q 876 807 892 825 q 835 789 859 789 q 762 862 791 789 q 738 904 751 891 q 703 925 726 917 q 651 932 680 932 q 548 905 593 932 q 479 833 503 878 q 447 736 462 801 l 427 654 l 752 654 q 806 658 790 654 q 829 668 817 661 l 880 668 l 766 159 q 758 104 758 122 q 770 68 758 81 q 799 56 781 56 q 923 142 846 56 l 967 105 q 862 14 909 39 q 764 -12 814 -12 q 704 2 731 -12 q 663 41 677 16 q 649 96 649 66 q 659 168 649 124 l 752 588 l 412 588 l 287 34 q 255 -90 267 -54 q 192 -220 228 -173 q 104 -293 157 -267 q -6 -320 51 -320 q -97 -294 -63 -320 q -131 -233 -131 -267 q -115 -196 -131 -212 q -76 -180 -98 -180 q -19 -209 -50 -180 q 16 -237 5 -231 q 40 -243 28 -243 q 88 -226 64 -243 q 128 -171 111 -209 q 165 -41 145 -134 l 302 588 l 178 588 l 192 654 z "},"":{"ha":917,"x_min":-132,"x_max":986,"o":"m 975 995 l 789 174 q 778 102 778 123 q 790 66 778 79 q 821 54 802 54 q 862 68 840 54 q 942 140 897 90 l 986 103 q 789 -16 888 -16 q 700 16 731 -16 q 668 94 668 49 q 679 170 668 125 l 838 876 q 810 871 819 871 q 785 876 797 871 q 745 899 779 878 q 696 925 706 922 q 644 932 674 932 q 544 901 591 932 q 475 823 498 870 q 441 712 459 792 l 427 654 l 619 654 l 604 583 l 412 583 l 279 0 q 228 -155 262 -77 q 131 -276 193 -232 q -3 -320 69 -320 q -97 -293 -62 -320 q -132 -234 -132 -267 q -115 -196 -132 -213 q -79 -180 -99 -180 q -20 -209 -52 -180 q 16 -237 4 -232 q 40 -243 27 -243 q 81 -231 64 -243 q 121 -182 106 -213 q 158 -73 146 -128 l 302 583 l 176 583 l 192 654 l 317 654 l 329 706 q 395 871 354 814 q 502 962 435 928 q 644 995 568 995 q 749 986 692 995 q 843 976 812 976 q 923 995 875 976 l 975 995 z "},"ﬂ":{"ha":917,"x_min":-132,"x_max":986,"o":"m 975 995 l 789 174 q 778 102 778 123 q 790 66 778 79 q 821 54 802 54 q 862 68 840 54 q 942 140 897 90 l 986 103 q 789 -16 888 -16 q 700 16 731 -16 q 668 94 668 49 q 679 170 668 125 l 838 876 q 810 871 819 871 q 785 876 797 871 q 745 899 779 878 q 696 925 706 922 q 644 932 674 932 q 544 901 591 932 q 475 823 498 870 q 441 712 459 792 l 427 654 l 619 654 l 604 583 l 412 583 l 279 0 q 228 -155 262 -77 q 131 -276 193 -232 q -3 -320 69 -320 q -97 -293 -62 -320 q -132 -234 -132 -267 q -115 -196 -132 -213 q -79 -180 -99 -180 q -20 -209 -52 -180 q 16 -237 4 -232 q 40 -243 27 -243 q 81 -231 64 -243 q 121 -182 106 -213 q 158 -73 146 -128 l 302 583 l 176 583 l 192 654 l 317 654 l 329 706 q 395 871 354 814 q 502 962 435 928 q 644 995 568 995 q 749 986 692 995 q 843 976 812 976 q 923 995 875 976 l 975 995 z "},"‡":{"ha":861,"x_min":199,"x_max":823,"o":"m 416 372 q 541 549 488 444 q 469 529 509 541 q 380 506 401 510 q 342 503 360 503 q 307 514 319 503 q 295 545 295 526 q 315 605 295 579 q 370 631 336 631 q 503 601 408 631 l 549 587 q 553 709 553 656 q 550 792 553 743 q 548 842 548 831 q 566 923 548 899 q 649 962 595 962 q 705 947 684 962 q 727 913 727 931 q 722 886 727 899 q 665 770 711 858 q 582 587 614 673 q 693 615 631 598 q 772 631 754 631 q 812 621 798 631 q 823 592 823 612 q 801 529 823 557 q 747 501 779 501 q 663 521 725 501 q 572 549 627 532 q 585 443 573 495 q 613 372 594 407 q 552 298 577 337 q 485 177 513 240 l 589 205 q 681 224 660 224 q 713 213 701 224 q 725 180 725 201 q 715 134 725 155 q 690 105 705 113 q 646 94 671 94 q 575 111 629 94 q 477 140 513 130 q 473 80 474 108 q 470 -71 470 -39 q 471 -96 470 -83 q 472 -153 472 -129 q 462 -210 472 -192 q 425 -242 452 -228 q 367 -256 398 -256 q 316 -241 333 -256 q 298 -205 298 -227 q 306 -171 298 -190 q 382 -4 313 -151 q 444 140 416 69 l 391 125 q 243 94 280 94 q 211 105 222 94 q 199 139 199 116 q 221 200 199 176 q 275 223 243 223 q 313 219 295 223 q 391 197 332 216 l 454 177 q 441 294 453 233 q 416 372 433 336 z "},"∙":{"ha":416,"x_min":239,"x_max":402,"o":"m 334 555 q 383 536 364 555 q 402 487 402 517 q 374 419 402 448 q 309 391 347 391 q 257 409 275 391 q 239 460 239 427 q 267 527 239 499 q 334 555 294 555 z "},"‚":{"ha":444,"x_min":66,"x_max":334,"o":"m 97 -237 l 66 -191 q 173 -120 130 -156 q 235 -53 215 -83 q 252 0 246 -35 q 220 -3 233 -3 q 173 18 193 -3 q 154 73 154 39 q 176 131 154 109 q 233 153 199 153 q 305 121 275 153 q 334 39 334 90 q 312 -52 334 -7 q 240 -143 290 -97 q 97 -237 190 -189 z "},"„":{"ha":667,"x_min":33,"x_max":536,"o":"m 298 -237 l 268 -191 q 374 -120 332 -156 q 436 -53 416 -83 q 453 0 448 -35 q 421 -3 434 -3 q 375 18 394 -3 q 355 73 355 39 q 378 131 355 109 q 435 153 400 153 q 506 121 477 153 q 536 39 536 90 q 514 -52 536 -7 q 441 -143 492 -97 q 298 -237 391 -189 m 63 -237 l 33 -191 q 139 -120 96 -156 q 201 -53 181 -83 q 218 0 212 -35 q 186 -3 199 -3 q 139 18 159 -3 q 120 73 120 39 q 142 131 120 109 q 199 153 165 153 q 271 121 241 153 q 300 39 300 90 q 278 -52 300 -7 q 206 -143 256 -97 q 63 -237 156 -189 z "},"‰":{"ha":1639,"x_min":178,"x_max":1676,"o":"m 467 962 q 590 918 541 962 q 639 792 639 873 q 595 620 639 703 q 488 495 552 536 q 350 453 425 453 q 225 500 272 453 q 178 625 178 548 q 219 795 178 715 q 328 919 260 876 q 467 962 396 962 m 463 916 q 375 883 417 916 q 297 766 332 850 q 262 606 262 683 q 288 527 262 556 q 355 497 314 497 q 442 531 399 497 q 518 646 485 566 q 551 810 551 727 q 527 889 551 861 q 463 916 503 916 m 1109 962 l 292 -8 l 220 -8 l 1037 962 l 1109 962 m 976 500 q 1098 456 1049 500 q 1147 330 1147 412 q 1104 158 1147 241 q 997 33 1061 75 q 859 -8 933 -8 q 733 39 781 -8 q 686 163 686 86 q 728 334 686 254 q 837 458 770 415 q 976 500 905 500 m 972 455 q 884 422 926 455 q 806 305 842 389 q 771 144 771 221 q 797 65 771 94 q 864 35 823 35 q 951 70 908 35 q 1027 185 994 104 q 1060 349 1060 265 q 1036 427 1060 399 q 972 455 1012 455 m 1503 500 q 1626 456 1577 500 q 1676 330 1676 412 q 1632 158 1676 241 q 1525 33 1589 75 q 1386 -8 1461 -8 q 1262 39 1309 -8 q 1215 163 1215 86 q 1256 334 1215 254 q 1365 458 1297 415 q 1503 500 1432 500 m 1500 455 q 1412 422 1454 455 q 1334 305 1369 389 q 1299 144 1299 221 q 1325 65 1299 94 q 1392 35 1351 35 q 1479 70 1436 35 q 1555 185 1521 104 q 1588 349 1588 265 q 1564 427 1588 399 q 1500 455 1539 455 z "},"Â":{"ha":972,"x_min":0,"x_max":985,"o":"m 625 946 l 741 946 l 880 155 q 899 89 889 106 q 925 64 909 71 q 985 57 940 58 l 972 0 l 625 0 l 641 57 l 679 57 q 743 73 725 57 q 762 115 762 88 q 757 161 762 130 l 724 352 l 362 352 l 240 138 q 225 93 225 112 q 239 66 225 76 q 298 57 253 57 l 330 57 l 316 0 l 0 0 l 14 57 q 78 65 59 58 q 112 88 97 73 q 161 161 127 104 l 625 946 m 713 418 l 644 838 l 401 418 l 713 418 m 507 1048 l 732 1168 l 918 1048 l 884 1013 l 717 1076 l 536 1013 l 507 1048 z "},"Ê":{"ha":945,"x_min":54,"x_max":1028,"o":"m 268 946 l 950 946 l 1028 696 l 966 676 q 902 793 938 753 q 822 849 865 833 q 669 869 764 869 l 495 869 l 417 523 l 532 523 q 639 538 604 523 q 697 586 673 553 q 734 683 722 620 l 800 683 l 713 299 l 647 299 q 657 372 657 351 q 642 419 657 398 q 603 450 627 441 q 513 458 579 458 l 403 458 l 326 126 q 321 97 321 104 q 332 76 321 83 q 374 71 340 71 l 526 71 q 707 95 637 71 q 826 164 777 119 q 939 322 876 210 l 998 299 l 854 0 l 54 0 l 67 57 q 156 64 136 58 q 186 86 176 71 q 214 157 204 111 l 357 785 q 365 833 365 820 q 345 877 365 865 q 277 888 324 888 l 256 888 l 268 946 m 492 1048 l 718 1168 l 903 1048 l 869 1013 l 703 1076 l 522 1013 l 492 1048 z "},"Á":{"ha":972,"x_min":0,"x_max":985,"o":"m 625 946 l 741 946 l 880 155 q 899 89 889 106 q 925 64 909 71 q 985 57 940 58 l 972 0 l 625 0 l 641 57 l 679 57 q 743 73 725 57 q 762 115 762 88 q 757 161 762 130 l 724 352 l 362 352 l 240 138 q 225 93 225 112 q 239 66 225 76 q 298 57 253 57 l 330 57 l 316 0 l 0 0 l 14 57 q 78 65 59 58 q 112 88 97 73 q 161 161 127 104 l 625 946 m 713 418 l 644 838 l 401 418 l 713 418 m 640 984 l 623 1024 l 719 1118 q 798 1184 767 1166 q 834 1194 814 1194 q 872 1177 857 1194 q 888 1135 888 1159 q 869 1089 888 1111 q 796 1046 850 1067 l 640 984 z "},"Ë":{"ha":945,"x_min":54,"x_max":1028,"o":"m 268 946 l 950 946 l 1028 696 l 966 676 q 902 793 938 753 q 822 849 865 833 q 669 869 764 869 l 495 869 l 417 523 l 532 523 q 639 538 604 523 q 697 586 673 553 q 734 683 722 620 l 800 683 l 713 299 l 647 299 q 657 372 657 351 q 642 419 657 398 q 603 450 627 441 q 513 458 579 458 l 403 458 l 326 126 q 321 97 321 104 q 332 76 321 83 q 374 71 340 71 l 526 71 q 707 95 637 71 q 826 164 777 119 q 939 322 876 210 l 998 299 l 854 0 l 54 0 l 67 57 q 156 64 136 58 q 186 86 176 71 q 214 157 204 111 l 357 785 q 365 833 365 820 q 345 877 365 865 q 277 888 324 888 l 256 888 l 268 946 m 607 1171 q 656 1152 637 1171 q 675 1103 675 1133 q 645 1037 675 1066 q 576 1008 615 1008 q 528 1027 546 1008 q 509 1077 509 1045 q 538 1142 509 1114 q 607 1171 568 1171 m 828 1171 q 877 1152 858 1171 q 895 1103 895 1133 q 866 1037 895 1066 q 798 1008 836 1008 q 750 1027 768 1008 q 732 1077 732 1045 q 761 1142 732 1114 q 828 1171 789 1171 z "},"È":{"ha":945,"x_min":54,"x_max":1028,"o":"m 268 946 l 950 946 l 1028 696 l 966 676 q 902 793 938 753 q 822 849 865 833 q 669 869 764 869 l 495 869 l 417 523 l 532 523 q 639 538 604 523 q 697 586 673 553 q 734 683 722 620 l 800 683 l 713 299 l 647 299 q 657 372 657 351 q 642 419 657 398 q 603 450 627 441 q 513 458 579 458 l 403 458 l 326 126 q 321 97 321 104 q 332 76 321 83 q 374 71 340 71 l 526 71 q 707 95 637 71 q 826 164 777 119 q 939 322 876 210 l 998 299 l 854 0 l 54 0 l 67 57 q 156 64 136 58 q 186 86 176 71 q 214 157 204 111 l 357 785 q 365 833 365 820 q 345 877 365 865 q 277 888 324 888 l 256 888 l 268 946 m 748 984 l 593 1046 q 502 1134 502 1082 q 518 1177 502 1159 q 557 1194 534 1194 q 593 1184 576 1194 q 671 1118 623 1166 l 766 1024 l 748 984 z "},"Í":{"ha":444,"x_min":35,"x_max":623,"o":"m 249 946 l 623 946 l 610 888 l 588 888 q 517 880 537 888 q 484 853 496 871 q 459 782 471 834 l 319 167 q 310 108 310 123 q 332 67 310 82 q 390 57 347 57 l 422 57 l 408 0 l 35 0 l 47 57 l 75 57 q 141 66 120 57 q 173 93 161 75 q 197 159 185 110 l 340 789 q 347 836 347 821 q 339 866 347 854 q 316 883 331 878 q 261 888 301 888 l 237 888 l 249 946 m 334 984 l 317 1024 l 414 1118 q 492 1184 462 1166 q 529 1194 509 1194 q 567 1177 551 1194 q 583 1135 583 1159 q 564 1089 583 1111 q 491 1046 545 1067 l 334 984 z "},"Î":{"ha":444,"x_min":35,"x_max":654,"o":"m 249 946 l 623 946 l 610 888 l 588 888 q 517 880 537 888 q 484 853 496 871 q 459 782 471 834 l 319 167 q 310 108 310 123 q 332 67 310 82 q 390 57 347 57 l 422 57 l 408 0 l 35 0 l 47 57 l 75 57 q 141 66 120 57 q 173 93 161 75 q 197 159 185 110 l 340 789 q 347 836 347 821 q 339 866 347 854 q 316 883 331 878 q 261 888 301 888 l 237 888 l 249 946 m 243 1048 l 468 1168 l 654 1048 l 620 1013 l 453 1076 l 273 1013 l 243 1048 z "},"Ï":{"ha":444,"x_min":35,"x_max":646,"o":"m 249 946 l 623 946 l 610 888 l 588 888 q 517 880 537 888 q 484 853 496 871 q 459 782 471 834 l 319 167 q 310 108 310 123 q 332 67 310 82 q 390 57 347 57 l 422 57 l 408 0 l 35 0 l 47 57 l 75 57 q 141 66 120 57 q 173 93 161 75 q 197 159 185 110 l 340 789 q 347 836 347 821 q 339 866 347 854 q 316 883 331 878 q 261 888 301 888 l 237 888 l 249 946 m 357 1171 q 406 1152 387 1171 q 425 1103 425 1133 q 395 1037 425 1066 q 326 1008 366 1008 q 278 1027 296 1008 q 260 1077 260 1045 q 289 1142 260 1114 q 357 1171 318 1171 m 578 1171 q 627 1152 608 1171 q 646 1103 646 1133 q 616 1037 646 1066 q 548 1008 587 1008 q 500 1027 518 1008 q 482 1077 482 1045 q 511 1142 482 1114 q 578 1171 540 1171 z "},"Ì":{"ha":444,"x_min":35,"x_max":623,"o":"m 249 946 l 623 946 l 610 888 l 588 888 q 517 880 537 888 q 484 853 496 871 q 459 782 471 834 l 319 167 q 310 108 310 123 q 332 67 310 82 q 390 57 347 57 l 422 57 l 408 0 l 35 0 l 47 57 l 75 57 q 141 66 120 57 q 173 93 161 75 q 197 159 185 110 l 340 789 q 347 836 347 821 q 339 866 347 854 q 316 883 331 878 q 261 888 301 888 l 237 888 l 249 946 m 566 984 l 411 1046 q 320 1134 320 1082 q 336 1177 320 1159 q 376 1194 353 1194 q 411 1184 395 1194 q 489 1118 441 1166 l 585 1024 l 566 984 z "},"Ó":{"ha":1055,"x_min":147,"x_max":1122,"o":"m 722 962 q 1005 858 894 962 q 1122 561 1122 747 q 1044 272 1122 408 q 831 59 965 137 q 544 -16 701 -16 q 337 33 425 -16 q 198 172 250 83 q 147 376 147 261 q 225 668 147 531 q 437 884 304 806 q 722 962 570 962 m 726 890 q 513 826 610 890 q 351 632 416 762 q 286 358 286 502 q 320 196 286 267 q 414 90 355 125 q 550 54 473 54 q 757 119 660 54 q 920 316 854 184 q 985 591 985 448 q 950 749 985 681 q 857 854 916 817 q 726 890 798 890 m 641 984 l 624 1024 l 720 1118 q 799 1184 768 1166 q 836 1194 815 1194 q 874 1177 858 1194 q 890 1135 890 1159 q 870 1089 890 1111 q 798 1046 851 1067 l 641 984 z "},"Ô":{"ha":1055,"x_min":147,"x_max":1122,"o":"m 722 962 q 1005 858 894 962 q 1122 561 1122 747 q 1044 272 1122 408 q 831 59 965 137 q 544 -16 701 -16 q 337 33 425 -16 q 198 172 250 83 q 147 376 147 261 q 225 668 147 531 q 437 884 304 806 q 722 962 570 962 m 726 890 q 513 826 610 890 q 351 632 416 762 q 286 358 286 502 q 320 196 286 267 q 414 90 355 125 q 550 54 473 54 q 757 119 660 54 q 920 316 854 184 q 985 591 985 448 q 950 749 985 681 q 857 854 916 817 q 726 890 798 890 m 549 1048 l 774 1168 l 960 1048 l 926 1013 l 759 1076 l 578 1013 l 549 1048 z "},"":{"ha":1097,"x_min":0,"x_max":0,"o":""},"Ò":{"ha":1055,"x_min":147,"x_max":1122,"o":"m 722 962 q 1005 858 894 962 q 1122 561 1122 747 q 1044 272 1122 408 q 831 59 965 137 q 544 -16 701 -16 q 337 33 425 -16 q 198 172 250 83 q 147 376 147 261 q 225 668 147 531 q 437 884 304 806 q 722 962 570 962 m 726 890 q 513 826 610 890 q 351 632 416 762 q 286 358 286 502 q 320 196 286 267 q 414 90 355 125 q 550 54 473 54 q 757 119 660 54 q 920 316 854 184 q 985 591 985 448 q 950 749 985 681 q 857 854 916 817 q 726 890 798 890 m 872 984 l 717 1046 q 626 1134 626 1082 q 642 1177 626 1159 q 682 1194 659 1194 q 717 1184 701 1194 q 795 1118 747 1166 l 890 1024 l 872 984 z "},"Ú":{"ha":1000,"x_min":203,"x_max":1200,"o":"m 227 946 l 598 946 l 587 888 l 555 888 q 493 881 511 888 q 462 853 475 873 q 439 791 449 833 l 335 334 q 324 249 324 286 q 350 156 324 198 q 429 89 376 114 q 547 64 481 64 q 700 103 630 64 q 805 209 769 142 q 861 363 842 276 l 960 791 q 968 841 968 826 q 960 868 968 857 q 937 885 951 880 q 883 888 926 888 l 857 888 l 869 946 l 1200 946 l 1188 888 l 1156 888 q 1094 880 1114 888 q 1062 853 1075 871 q 1040 791 1049 834 l 935 334 q 903 227 920 265 q 813 96 871 153 q 682 12 755 39 q 519 -16 609 -16 q 286 61 368 -16 q 203 231 203 139 q 215 338 203 285 l 317 785 q 324 836 324 819 q 315 866 324 853 q 293 884 307 880 q 236 888 279 888 l 215 888 l 227 946 m 626 984 l 609 1024 l 705 1118 q 784 1184 753 1166 q 821 1194 800 1194 q 859 1177 843 1194 q 875 1135 875 1159 q 856 1089 875 1111 q 783 1046 836 1067 l 626 984 z "},"Û":{"ha":1000,"x_min":203,"x_max":1200,"o":"m 227 946 l 598 946 l 587 888 l 555 888 q 493 881 511 888 q 462 853 475 873 q 439 791 449 833 l 335 334 q 324 249 324 286 q 350 156 324 198 q 429 89 376 114 q 547 64 481 64 q 700 103 630 64 q 805 209 769 142 q 861 363 842 276 l 960 791 q 968 841 968 826 q 960 868 968 857 q 937 885 951 880 q 883 888 926 888 l 857 888 l 869 946 l 1200 946 l 1188 888 l 1156 888 q 1094 880 1114 888 q 1062 853 1075 871 q 1040 791 1049 834 l 935 334 q 903 227 920 265 q 813 96 871 153 q 682 12 755 39 q 519 -16 609 -16 q 286 61 368 -16 q 203 231 203 139 q 215 338 203 285 l 317 785 q 324 836 324 819 q 315 866 324 853 q 293 884 307 880 q 236 888 279 888 l 215 888 l 227 946 m 520 1048 l 745 1168 l 931 1048 l 897 1013 l 730 1076 l 550 1013 l 520 1048 z "},"Ù":{"ha":1000,"x_min":203,"x_max":1200,"o":"m 227 946 l 598 946 l 587 888 l 555 888 q 493 881 511 888 q 462 853 475 873 q 439 791 449 833 l 335 334 q 324 249 324 286 q 350 156 324 198 q 429 89 376 114 q 547 64 481 64 q 700 103 630 64 q 805 209 769 142 q 861 363 842 276 l 960 791 q 968 841 968 826 q 960 868 968 857 q 937 885 951 880 q 883 888 926 888 l 857 888 l 869 946 l 1200 946 l 1188 888 l 1156 888 q 1094 880 1114 888 q 1062 853 1075 871 q 1040 791 1049 834 l 935 334 q 903 227 920 265 q 813 96 871 153 q 682 12 755 39 q 519 -16 609 -16 q 286 61 368 -16 q 203 231 203 139 q 215 338 203 285 l 317 785 q 324 836 324 819 q 315 866 324 853 q 293 884 307 880 q 236 888 279 888 l 215 888 l 227 946 m 844 984 l 688 1046 q 597 1134 597 1082 q 614 1177 597 1159 q 653 1194 630 1194 q 688 1184 672 1194 q 766 1118 718 1166 l 862 1024 l 844 984 z "},"ı":{"ha":389,"x_min":135,"x_max":469,"o":"m 399 671 l 268 151 q 260 100 260 119 q 271 66 260 79 q 302 54 283 54 q 345 67 324 54 q 425 141 376 87 l 469 103 q 373 19 427 49 q 271 -12 319 -12 q 184 21 219 -12 q 150 96 150 53 q 161 171 150 125 l 259 560 l 135 560 l 147 616 q 242 631 199 619 q 347 671 285 642 l 399 671 z "},"ˆ":{"ha":611,"x_min":286,"x_max":696,"o":"m 286 806 l 511 926 l 696 806 l 663 771 l 496 834 l 315 771 l 286 806 z "},"˜":{"ha":611,"x_min":286,"x_max":707,"o":"m 667 906 l 707 906 q 642 819 681 848 q 551 790 604 790 q 524 792 536 790 q 477 804 514 793 q 389 819 417 819 q 354 814 370 819 q 328 798 339 808 l 286 798 q 346 876 308 848 q 427 903 385 903 q 525 886 456 903 q 593 873 578 873 q 630 882 612 873 q 667 906 649 890 z "},"ˉ":{"ha":611,"x_min":290,"x_max":703,"o":"m 330 888 l 703 888 l 659 807 l 290 807 l 330 888 z "},"˘":{"ha":611,"x_min":294,"x_max":715,"o":"m 294 902 l 327 918 q 505 869 404 869 q 684 918 609 869 l 715 902 q 623 809 676 840 q 505 778 569 778 q 390 805 444 778 q 294 902 337 833 z "},"˙":{"ha":361,"x_min":268,"x_max":433,"o":"m 366 929 q 414 910 395 929 q 433 862 433 891 q 404 796 433 825 q 334 767 374 767 q 286 785 304 767 q 268 836 268 804 q 297 901 268 873 q 366 929 326 929 z "},"˚":{"ha":416,"x_min":294,"x_max":505,"o":"m 418 954 q 481 930 457 954 q 505 867 505 905 q 466 780 505 818 q 377 742 428 742 q 317 766 340 742 q 294 830 294 790 q 330 918 294 881 q 418 954 366 954 m 410 910 q 366 889 385 910 q 347 838 347 867 q 357 799 347 812 q 387 786 368 786 q 432 808 412 786 q 452 861 452 831 q 440 897 452 883 q 410 910 429 910 z "},"¸":{"ha":444,"x_min":1,"x_max":267,"o":"m 157 0 l 138 -51 q 160 -50 146 -51 l 168 -50 q 220 -62 193 -50 q 256 -91 246 -75 q 267 -130 267 -107 q 224 -209 267 -175 q 117 -243 182 -243 q 26 -219 62 -243 q 1 -177 1 -203 q 12 -149 1 -160 q 36 -138 22 -138 q 61 -144 54 -138 q 71 -168 68 -150 q 85 -195 74 -186 q 121 -205 100 -205 q 173 -185 151 -205 q 195 -140 195 -165 q 176 -100 195 -116 q 123 -85 157 -85 q 65 -93 96 -85 l 106 0 l 157 0 z "},"˝":{"ha":472,"x_min":257,"x_max":579,"o":"m 288 736 l 257 759 l 288 876 q 325 977 311 958 q 361 995 340 995 q 400 979 384 995 q 416 939 416 962 q 379 859 416 908 l 288 736 m 450 736 l 419 759 l 450 876 q 487 977 472 958 q 524 995 502 995 q 563 979 546 995 q 579 939 579 962 q 541 859 579 909 l 450 736 z "},"˛":{"ha":361,"x_min":5,"x_max":187,"o":"m 127 0 l 187 0 q 151 -30 175 -10 q 106 -69 117 -56 q 84 -105 91 -87 q 77 -137 77 -123 q 95 -174 77 -157 q 134 -191 112 -191 q 176 -180 149 -191 l 168 -231 q 127 -235 142 -235 q 40 -204 75 -235 q 5 -132 5 -174 q 34 -62 5 -94 q 127 0 52 -42 z "},"ˇ":{"ha":611,"x_min":286,"x_max":697,"o":"m 697 888 l 471 770 l 286 888 l 320 925 l 486 861 l 667 925 l 697 888 z "},"Ł":{"ha":806,"x_min":52,"x_max":875,"o":"m 423 561 l 590 646 l 570 561 l 404 477 l 326 127 q 319 97 319 102 q 329 78 319 84 q 369 71 338 71 l 427 71 q 589 97 521 71 q 707 170 657 122 q 816 322 758 217 l 875 296 l 730 0 l 52 0 l 64 57 l 94 57 q 156 64 140 57 q 190 94 177 75 q 215 162 203 113 l 271 409 l 127 336 l 148 421 l 290 493 l 355 782 q 362 838 362 814 q 354 867 362 856 q 332 883 347 878 q 280 888 318 888 l 253 888 l 266 946 l 636 946 l 624 888 l 595 888 q 528 880 547 888 q 497 852 509 872 q 471 774 484 831 l 423 561 z "},"ł":{"ha":472,"x_min":115,"x_max":545,"o":"m 388 503 l 311 164 q 300 103 300 118 q 312 67 300 80 q 343 55 324 55 q 387 68 368 55 q 465 142 418 88 l 509 104 q 312 -12 413 -12 q 224 19 257 -12 q 192 96 192 50 q 199 159 192 126 l 252 389 l 115 275 l 138 370 l 273 484 l 279 509 l 362 880 l 237 880 l 249 938 q 360 961 319 949 q 446 995 401 973 l 498 995 l 409 598 l 545 711 l 524 617 l 388 503 z "},"Š":{"ha":889,"x_min":139,"x_max":969,"o":"m 914 946 l 964 946 l 969 646 l 903 646 q 798 818 877 747 q 602 888 720 888 q 483 864 536 888 q 404 802 431 840 q 376 726 376 764 q 394 666 376 694 q 452 612 411 637 q 597 550 494 586 q 803 461 747 497 q 885 378 858 425 q 912 278 912 332 q 865 135 912 205 q 734 24 818 65 q 537 -16 650 -16 q 380 9 448 -16 q 241 97 313 34 l 184 0 l 139 0 l 154 347 l 218 347 q 329 134 243 210 q 536 58 414 58 q 728 120 649 58 q 792 247 792 172 q 767 327 792 292 q 678 393 741 361 q 508 457 643 410 q 332 551 381 503 q 264 705 264 619 q 306 827 264 768 q 429 925 348 887 q 610 962 509 962 q 746 941 685 962 q 869 872 808 920 l 914 946 m 877 1130 l 651 1012 l 465 1130 l 500 1166 l 666 1103 l 847 1166 l 877 1130 z "},"š":{"ha":750,"x_min":102,"x_max":776,"o":"m 428 410 l 548 368 q 614 339 567 361 q 682 298 662 316 q 721 245 707 276 q 736 182 736 214 q 702 85 736 132 q 604 11 669 39 q 444 -16 539 -16 q 259 14 341 -16 q 140 86 177 44 q 102 163 102 129 q 118 202 102 186 q 159 218 134 218 q 186 212 174 218 q 212 193 199 207 q 240 150 220 184 q 263 114 258 120 q 305 79 279 96 q 365 53 332 62 q 441 45 397 45 q 548 61 505 45 q 611 103 590 77 q 631 157 631 130 q 593 225 631 195 q 483 277 555 255 q 470 281 477 279 l 375 315 q 250 390 288 345 q 212 487 212 434 q 243 576 212 533 q 335 645 274 620 q 485 671 395 671 q 710 616 622 671 q 776 522 776 574 q 760 483 776 499 q 722 467 745 467 q 680 482 700 467 q 640 530 667 493 q 574 588 613 569 q 478 607 535 607 q 358 577 401 607 q 316 510 316 547 q 339 456 316 480 q 428 410 362 432 m 766 888 l 541 770 l 355 888 l 389 925 l 555 861 l 736 925 l 766 888 z "},"Ž":{"ha":806,"x_min":30,"x_max":954,"o":"m 307 946 l 954 946 l 941 888 l 212 73 l 349 73 q 554 96 482 73 q 686 169 627 119 q 815 328 746 219 l 872 296 l 707 0 l 30 0 l 42 57 l 770 870 l 613 870 q 441 850 505 870 q 330 790 378 831 q 221 654 283 750 l 163 687 l 307 946 m 836 1130 l 610 1012 l 424 1130 l 458 1166 l 625 1103 l 806 1166 l 836 1130 z "},"ž":{"ha":722,"x_min":48,"x_max":806,"o":"m 806 654 l 791 593 l 233 70 q 260 73 254 73 q 410 52 284 73 q 509 41 476 41 q 573 55 543 41 q 616 89 604 70 q 633 149 629 108 q 656 212 637 191 q 698 233 675 233 q 742 215 724 233 q 760 170 760 197 q 730 79 760 124 q 647 9 700 35 q 522 -16 593 -16 q 460 -14 492 -16 q 369 -1 441 -12 q 267 14 292 12 q 196 17 232 17 q 48 -4 121 17 l 61 57 l 625 581 q 587 578 600 578 q 459 596 564 578 q 377 605 410 605 q 311 584 337 605 q 272 516 284 562 q 252 467 262 479 q 207 448 235 448 q 163 465 180 448 q 146 515 146 483 q 204 622 146 573 q 353 671 262 671 q 419 667 386 671 q 511 652 438 665 q 603 636 584 638 q 662 633 632 633 q 806 654 728 633 m 753 888 l 528 770 l 342 888 l 376 925 l 543 861 l 724 925 l 753 888 z "},"¦":{"ha":833,"x_min":465,"x_max":564,"o":"m 465 995 l 564 995 l 564 429 l 465 374 l 465 995 m 465 245 l 564 301 l 564 -320 l 465 -320 l 465 245 z "},"Ð":{"ha":1027,"x_min":56,"x_max":1095,"o":"m 280 439 l 156 439 l 170 505 l 295 505 l 359 787 q 367 836 367 821 q 358 866 367 853 q 337 884 349 880 q 283 888 324 888 l 258 888 l 271 946 l 650 946 q 907 901 810 946 q 1042 773 989 862 q 1095 572 1095 684 q 1064 386 1095 479 q 976 216 1032 292 q 852 94 919 139 q 697 28 785 49 q 450 0 583 0 l 56 0 l 68 57 q 144 60 134 58 q 172 73 159 63 q 199 105 190 87 q 219 172 208 122 l 280 439 m 401 439 l 331 132 q 326 98 326 108 q 336 79 326 85 q 382 73 346 73 l 437 73 q 558 79 488 73 q 663 98 627 86 q 767 157 715 115 q 865 269 819 199 q 935 418 910 338 q 959 582 959 498 q 920 740 959 675 q 812 837 880 804 q 618 870 743 870 l 499 870 l 416 505 l 708 505 l 694 439 l 401 439 z "},"ð":{"ha":750,"x_min":119,"x_max":857,"o":"m 843 979 l 857 923 l 676 876 q 758 672 731 774 q 785 477 785 570 q 728 216 785 334 q 583 41 671 98 q 384 -16 494 -16 q 191 62 262 -16 q 119 252 119 141 q 172 463 119 363 q 311 616 224 562 q 490 671 399 671 q 561 659 526 671 q 621 629 595 648 q 665 579 646 610 q 652 711 665 648 q 606 859 640 774 l 408 806 l 393 863 l 579 911 q 522 995 553 954 l 595 995 q 644 928 621 964 l 843 979 m 494 606 q 382 564 439 606 q 284 429 324 521 q 243 240 243 336 q 265 137 243 184 q 319 69 286 91 q 393 47 351 47 q 512 89 456 47 q 609 225 568 131 q 650 420 650 319 q 629 520 650 476 q 573 585 608 564 q 494 606 539 606 z "},"Ý":{"ha":917,"x_min":203,"x_max":1127,"o":"m 218 946 l 563 946 l 550 888 l 509 888 q 454 880 467 888 q 441 852 441 871 q 452 810 441 838 l 586 454 l 861 804 q 890 861 890 841 q 878 882 890 875 q 822 888 866 888 l 792 888 l 804 946 l 1127 946 l 1114 888 q 1055 884 1074 889 q 1023 869 1036 879 q 978 823 1004 855 l 624 392 l 571 156 q 565 111 565 126 q 587 66 565 80 q 646 57 602 57 l 675 57 l 663 0 l 290 0 l 303 57 q 380 60 368 58 q 424 88 407 67 q 452 165 440 109 l 498 367 l 319 810 q 293 867 299 860 q 269 883 283 878 q 203 888 254 888 l 218 946 m 571 984 l 554 1024 l 650 1118 q 729 1184 699 1166 q 766 1194 745 1194 q 804 1177 788 1194 q 820 1135 820 1159 q 801 1089 820 1111 q 728 1046 781 1067 l 571 984 z "},"ý":{"ha":833,"x_min":83,"x_max":854,"o":"m 744 654 l 854 654 l 716 33 q 694 -54 701 -31 q 643 -160 674 -113 q 563 -244 612 -206 q 452 -301 513 -281 q 319 -320 392 -320 q 147 -276 211 -320 q 83 -182 83 -231 q 100 -143 83 -161 q 136 -125 117 -125 q 178 -139 158 -125 q 223 -189 199 -153 q 266 -233 244 -221 q 340 -254 300 -254 q 460 -219 404 -254 q 549 -125 516 -184 q 604 33 583 -65 l 640 186 q 545 72 596 117 q 440 6 494 28 q 334 -16 385 -16 q 217 24 258 -16 q 175 113 175 64 q 183 186 175 149 l 267 557 l 142 557 l 156 615 q 244 630 205 619 q 351 671 283 640 l 401 671 l 292 186 q 284 126 284 148 q 306 77 284 98 q 359 56 328 56 q 452 83 407 56 q 569 186 518 121 q 661 351 621 252 q 716 531 692 425 l 744 654 m 502 743 l 485 783 l 581 877 q 660 943 629 924 q 696 953 676 953 q 735 935 719 953 q 751 894 751 918 q 731 848 751 869 q 659 804 712 826 l 502 743 z "},"Þ":{"ha":833,"x_min":52,"x_max":926,"o":"m 637 946 l 625 888 l 595 888 q 515 870 538 888 q 478 792 492 851 l 467 744 l 620 744 q 798 718 737 744 q 892 638 858 691 q 926 516 926 586 q 875 351 926 428 q 734 235 823 274 q 482 201 656 201 l 343 201 l 332 156 q 326 109 326 127 q 334 80 326 92 q 357 62 343 68 q 410 57 372 57 l 436 57 l 424 0 l 52 0 l 64 57 l 94 57 q 175 77 151 57 q 212 156 198 96 l 353 783 q 362 833 362 821 q 352 868 362 854 q 327 886 342 882 q 252 888 315 888 l 267 946 l 637 946 m 450 669 l 359 273 l 461 273 q 631 286 587 273 q 746 369 700 307 q 792 512 792 431 q 763 608 792 570 q 686 660 733 646 q 566 669 654 669 l 450 669 z "},"þ":{"ha":833,"x_min":-49,"x_max":865,"o":"m 478 995 l 349 454 q 451 579 399 533 q 555 648 502 625 q 662 671 609 671 q 807 609 750 671 q 865 444 865 547 q 807 210 865 321 q 659 41 749 98 q 466 -16 569 -16 q 271 57 349 -16 l 223 -143 q 215 -195 215 -178 q 223 -222 215 -211 q 249 -239 232 -233 q 301 -245 267 -245 l 343 -245 l 331 -302 l -49 -302 l -36 -245 q 32 -242 13 -246 q 73 -225 58 -237 q 98 -190 87 -213 q 115 -133 105 -175 l 349 882 l 223 882 l 237 938 q 428 995 332 945 l 478 995 m 283 120 q 363 67 320 85 q 446 50 407 50 q 577 97 511 50 q 692 247 644 145 q 740 449 740 348 q 708 553 740 515 q 629 591 676 591 q 541 568 586 591 q 440 479 496 544 q 345 328 385 414 q 283 120 306 241 z "},"−":{"ha":833,"x_min":182,"x_max":844,"o":"m 844 515 l 844 431 l 182 431 l 182 515 l 844 515 z "},"×":{"ha":833,"x_min":228,"x_max":798,"o":"m 798 247 l 739 188 l 513 414 l 287 188 l 228 247 l 454 473 l 228 699 l 287 758 l 513 532 l 739 758 l 798 699 l 572 473 l 798 247 z "},"¹":{"ha":517,"x_min":220,"x_max":533,"o":"m 533 962 l 422 542 q 418 524 418 529 q 426 505 418 511 q 463 500 434 500 l 506 500 l 496 462 l 220 462 l 230 500 l 267 500 q 314 503 304 500 q 331 516 324 507 q 345 553 338 526 l 431 882 l 330 882 l 340 920 q 492 962 422 931 l 533 962 z "},"²":{"ha":517,"x_min":127,"x_max":630,"o":"m 272 764 l 218 761 l 217 779 q 278 909 217 855 q 441 962 339 962 q 583 921 536 962 q 630 826 630 880 q 620 777 630 801 q 575 713 606 745 q 468 636 544 682 q 261 520 393 591 l 447 520 q 491 524 481 520 q 504 533 498 526 q 530 580 510 540 l 583 580 l 519 445 l 478 445 l 478 462 l 127 462 l 138 497 l 250 559 q 356 625 277 575 q 472 707 434 674 q 528 776 509 740 q 540 823 540 799 q 508 885 540 859 q 423 911 477 911 q 311 871 352 911 q 272 764 271 831 z "},"³":{"ha":517,"x_min":149,"x_max":625,"o":"m 300 814 l 248 824 q 318 923 262 884 q 454 962 373 962 q 580 928 535 962 q 625 848 625 895 q 597 780 625 808 q 496 724 555 739 q 564 682 540 711 q 587 619 587 653 q 522 504 587 555 q 347 453 457 453 q 201 490 254 453 q 149 567 149 527 q 161 596 149 585 q 194 608 173 608 q 224 598 212 608 q 240 567 235 589 q 257 527 247 539 q 294 502 271 511 q 349 493 317 493 q 456 530 414 493 q 497 616 497 567 q 460 686 497 662 q 369 705 432 705 l 336 705 l 347 747 l 381 747 q 469 759 436 747 q 518 792 502 771 q 534 836 534 814 q 523 873 534 856 q 488 900 511 890 q 433 910 465 910 q 373 899 400 910 q 330 870 347 888 q 300 814 313 852 z "},"½":{"ha":1292,"x_min":220,"x_max":1320,"o":"m 533 962 l 422 542 q 418 524 418 529 q 426 505 418 511 q 463 500 434 500 l 506 500 l 496 462 l 220 462 l 230 500 l 267 500 q 314 503 304 500 q 331 516 324 507 q 345 553 338 526 l 431 882 l 330 882 l 340 920 q 492 962 422 931 l 533 962 m 1198 962 l 380 -8 l 308 -8 l 1125 962 l 1198 962 m 962 302 l 907 300 l 907 318 q 968 448 907 394 q 1131 501 1029 501 q 1273 460 1226 501 q 1320 365 1320 418 q 1310 316 1320 340 q 1264 252 1295 283 q 1158 175 1234 221 q 951 59 1082 130 l 1137 59 q 1181 62 1171 59 q 1194 72 1188 65 q 1220 119 1200 79 l 1272 119 l 1208 -16 l 1168 -16 l 1168 1 l 817 1 l 827 36 l 939 98 q 1045 163 967 114 q 1161 246 1124 213 q 1217 315 1199 279 q 1230 361 1230 338 q 1198 424 1230 398 q 1113 450 1166 450 q 1001 410 1042 450 q 962 302 960 370 z "},"¼":{"ha":1292,"x_min":220,"x_max":1312,"o":"m 533 962 l 422 542 q 418 524 418 529 q 426 505 418 511 q 463 500 434 500 l 506 500 l 496 462 l 220 462 l 230 500 l 267 500 q 314 503 304 500 q 331 516 324 507 q 345 553 338 526 l 431 882 l 330 882 l 340 920 q 492 962 422 931 l 533 962 m 1198 962 l 380 -8 l 308 -8 l 1125 962 l 1198 962 m 1281 492 l 1208 210 l 1312 210 l 1298 159 l 1194 159 l 1152 0 l 1072 0 l 1113 159 l 846 159 l 863 224 l 1204 492 l 1281 492 m 1126 210 l 1178 407 l 926 210 l 1126 210 z "},"¾":{"ha":1292,"x_min":149,"x_max":1312,"o":"m 300 814 l 248 824 q 318 923 262 884 q 454 962 373 962 q 580 928 535 962 q 625 848 625 895 q 597 780 625 808 q 496 724 555 739 q 564 682 540 711 q 587 619 587 653 q 522 504 587 555 q 347 453 457 453 q 201 490 254 453 q 149 567 149 527 q 161 596 149 585 q 194 608 173 608 q 224 598 212 608 q 240 567 235 589 q 257 527 247 539 q 294 502 271 511 q 349 493 317 493 q 456 530 414 493 q 497 616 497 567 q 460 686 497 662 q 369 705 432 705 l 336 705 l 347 747 l 381 747 q 469 759 436 747 q 518 792 502 771 q 534 836 534 814 q 523 873 534 856 q 488 900 511 890 q 433 910 465 910 q 373 899 400 910 q 330 870 347 888 q 300 814 313 852 m 1222 962 l 405 -8 l 332 -8 l 1149 962 l 1222 962 m 1281 492 l 1208 210 l 1312 210 l 1298 159 l 1194 159 l 1152 0 l 1072 0 l 1113 159 l 846 159 l 863 224 l 1204 492 l 1281 492 m 1126 210 l 1178 407 l 926 210 l 1126 210 z "},"₣":{"ha":861,"x_min":51,"x_max":1021,"o":"m 351 247 l 478 247 l 463 176 l 334 176 q 323 112 323 128 q 334 80 323 94 q 361 62 344 66 q 436 57 378 57 l 424 0 l 51 0 l 64 57 l 92 57 q 153 63 136 57 q 182 84 170 70 q 203 123 195 99 q 216 176 205 130 l 90 176 l 107 247 l 232 247 l 354 788 q 361 836 361 821 q 340 878 361 861 q 286 888 325 888 l 252 888 l 265 946 l 941 946 l 1021 697 l 959 677 q 893 794 931 751 q 809 852 855 836 q 666 869 764 869 l 492 869 l 408 507 l 513 507 q 611 517 578 507 q 667 547 644 526 q 703 601 690 568 q 722 668 709 614 l 789 668 l 701 283 l 635 283 l 640 304 q 646 351 646 332 q 632 401 646 381 q 592 431 618 422 q 503 441 567 441 l 395 441 l 351 247 z "},"Ğ":{"ha":1056,"x_min":164,"x_max":1163,"o":"m 1069 941 l 1078 650 l 1012 644 q 911 824 986 760 q 732 888 837 888 q 529 825 625 888 q 371 639 433 762 q 308 381 308 517 q 342 211 308 282 q 438 100 376 140 q 568 60 500 60 q 686 77 625 60 q 793 121 748 94 q 844 166 827 142 q 873 244 861 191 l 893 329 q 899 370 899 357 q 890 398 899 385 q 868 415 882 410 q 815 420 854 420 l 772 420 l 785 477 l 1163 477 l 1151 420 l 1122 420 q 1066 412 1084 420 q 1036 384 1048 403 q 1012 311 1024 364 l 939 0 l 873 0 l 861 85 q 728 11 808 38 q 557 -16 648 -16 q 359 32 441 -16 q 216 176 269 85 q 164 381 164 267 q 242 670 164 534 q 452 884 320 806 q 734 962 583 962 q 868 942 811 962 q 979 876 925 922 l 1019 941 l 1069 941 m 540 1173 l 573 1188 q 751 1140 650 1140 q 930 1188 855 1140 l 961 1173 q 869 1079 922 1110 q 751 1048 815 1048 q 636 1076 690 1048 q 540 1173 583 1103 z "},"ğ":{"ha":778,"x_min":60,"x_max":831,"o":"m 831 654 l 694 27 q 615 -169 667 -98 q 482 -280 564 -239 q 298 -320 400 -320 q 124 -276 189 -320 q 60 -185 60 -232 q 76 -143 60 -161 q 113 -125 92 -125 q 139 -131 127 -125 q 166 -149 152 -136 q 199 -190 176 -159 q 232 -229 222 -221 q 272 -249 249 -241 q 321 -256 295 -256 q 432 -224 379 -256 q 523 -132 486 -193 q 586 45 561 -71 l 616 182 q 555 100 585 131 q 437 13 499 42 q 317 -16 374 -16 q 176 44 229 -16 q 115 221 115 113 q 172 447 115 338 q 319 613 229 555 q 509 671 410 671 q 592 660 551 671 q 665 628 633 648 q 715 583 690 613 l 747 654 l 831 654 m 694 530 q 614 584 654 566 q 531 602 573 602 q 398 554 465 602 q 284 407 331 507 q 237 203 237 307 q 269 96 237 135 q 345 58 300 58 q 456 96 401 58 q 598 258 539 156 q 694 530 656 361 m 361 902 l 394 918 q 572 869 471 869 q 751 918 676 869 l 782 902 q 690 809 743 840 q 572 778 636 778 q 457 805 511 778 q 361 902 404 833 z "},"İ":{"ha":444,"x_min":35,"x_max":623,"o":"m 249 946 l 623 946 l 610 888 l 588 888 q 517 880 537 888 q 484 853 496 871 q 459 782 471 834 l 319 167 q 310 108 310 123 q 332 67 310 82 q 390 57 347 57 l 422 57 l 408 0 l 35 0 l 47 57 l 75 57 q 141 66 120 57 q 173 93 161 75 q 197 159 185 110 l 340 789 q 347 836 347 821 q 339 866 347 854 q 316 883 331 878 q 261 888 301 888 l 237 888 l 249 946 m 480 1199 q 529 1180 510 1199 q 548 1132 548 1161 q 518 1066 548 1095 q 449 1037 488 1037 q 401 1055 419 1037 q 382 1105 382 1074 q 412 1171 382 1143 q 480 1199 441 1199 z "},"Ş":{"ha":889,"x_min":139,"x_max":969,"o":"m 914 946 l 964 946 l 969 646 l 903 646 q 798 818 877 747 q 602 888 720 888 q 483 864 536 888 q 404 802 431 840 q 376 726 376 764 q 394 666 376 694 q 452 612 411 637 q 597 550 494 586 q 803 461 747 497 q 885 378 858 425 q 912 278 912 332 q 865 135 912 205 q 734 24 818 65 q 537 -16 650 -16 q 380 9 448 -16 q 241 97 313 34 l 184 0 l 139 0 l 154 347 l 218 347 q 329 134 243 210 q 536 58 414 58 q 728 120 649 58 q 792 247 792 172 q 767 327 792 292 q 678 393 741 361 q 508 457 643 410 q 332 551 381 503 q 264 705 264 619 q 306 827 264 768 q 429 925 348 887 q 610 962 509 962 q 746 941 685 962 q 869 872 808 920 l 914 946 m 519 0 l 499 -51 q 522 -50 507 -51 l 529 -50 q 581 -62 555 -50 q 618 -91 608 -75 q 628 -130 628 -107 q 586 -209 628 -175 q 478 -243 544 -243 q 388 -219 424 -243 q 363 -177 363 -203 q 373 -149 363 -160 q 397 -138 384 -138 q 422 -144 415 -138 q 433 -168 430 -150 q 446 -195 435 -186 q 482 -205 461 -205 q 534 -185 512 -205 q 556 -140 556 -165 q 537 -100 556 -116 q 485 -85 518 -85 q 427 -93 458 -85 l 467 0 l 519 0 z "},"ş":{"ha":750,"x_min":102,"x_max":776,"o":"m 428 410 l 548 368 q 614 339 567 361 q 682 298 662 316 q 721 245 707 276 q 736 182 736 214 q 702 85 736 132 q 604 11 669 39 q 444 -16 539 -16 q 259 14 341 -16 q 140 86 177 44 q 102 163 102 129 q 118 202 102 186 q 159 218 134 218 q 186 212 174 218 q 212 193 199 207 q 240 150 220 184 q 263 114 258 120 q 305 79 279 96 q 365 53 332 62 q 441 45 397 45 q 548 61 505 45 q 611 103 590 77 q 631 157 631 130 q 593 225 631 195 q 483 277 555 255 q 470 281 477 279 l 375 315 q 250 390 288 345 q 212 487 212 434 q 243 576 212 533 q 335 645 274 620 q 485 671 395 671 q 710 616 622 671 q 776 522 776 574 q 760 483 776 499 q 722 467 745 467 q 680 482 700 467 q 640 530 667 493 q 574 588 613 569 q 478 607 535 607 q 358 577 401 607 q 316 510 316 547 q 339 456 316 480 q 428 410 362 432 m 425 0 l 405 -51 q 427 -50 413 -51 l 435 -50 q 487 -62 460 -50 q 524 -91 513 -75 q 534 -130 534 -107 q 492 -209 534 -175 q 384 -243 450 -243 q 294 -219 330 -243 q 269 -177 269 -203 q 279 -149 269 -160 q 303 -138 290 -138 q 328 -144 321 -138 q 338 -168 336 -150 q 352 -195 341 -186 q 388 -205 367 -205 q 440 -185 418 -205 q 462 -140 462 -165 q 443 -100 462 -116 q 391 -85 424 -85 q 332 -93 363 -85 l 373 0 l 425 0 z "},"Ć":{"ha":1000,"x_min":165,"x_max":1087,"o":"m 1023 942 l 1075 942 l 1087 628 l 1023 620 q 957 779 994 726 q 863 859 919 831 q 736 887 807 887 q 531 824 628 887 q 371 636 434 760 q 307 376 307 513 q 345 214 307 286 q 450 103 383 142 q 599 64 517 64 q 723 83 659 64 q 839 135 787 102 q 998 264 892 168 l 1040 226 q 803 39 933 104 q 569 -16 694 -16 q 353 34 431 -16 q 219 166 274 84 q 165 379 165 249 q 242 669 165 534 q 451 884 320 805 q 731 962 583 962 q 848 947 790 962 q 926 916 891 937 q 983 871 951 902 l 1023 942 m 670 1013 l 653 1053 l 749 1147 q 828 1213 798 1195 q 865 1223 844 1223 q 903 1206 887 1223 q 919 1164 919 1188 q 900 1118 919 1140 q 827 1075 880 1097 l 670 1013 z "},"ć":{"ha":667,"x_min":119,"x_max":744,"o":"m 677 186 l 718 145 q 377 -16 540 -16 q 242 16 300 -16 q 152 109 184 48 q 119 245 119 170 q 177 456 119 354 q 329 614 235 558 q 530 671 424 671 q 684 620 623 671 q 744 504 744 569 q 725 439 744 462 q 676 417 707 417 q 637 435 653 417 q 621 477 621 452 l 621 498 l 622 522 q 595 578 622 554 q 526 602 568 602 q 399 556 463 602 q 290 420 335 511 q 245 235 245 329 q 267 144 245 184 q 325 80 288 103 q 403 58 362 58 q 481 70 438 58 q 566 105 524 82 q 677 186 607 129 m 471 743 l 454 783 l 550 877 q 629 943 598 924 q 665 953 645 953 q 704 935 688 953 q 720 894 720 918 q 700 848 720 869 q 627 804 681 826 l 471 743 z "},"Č":{"ha":1000,"x_min":165,"x_max":1087,"o":"m 1023 942 l 1075 942 l 1087 628 l 1023 620 q 957 779 994 726 q 863 859 919 831 q 736 887 807 887 q 531 824 628 887 q 371 636 434 760 q 307 376 307 513 q 345 214 307 286 q 450 103 383 142 q 599 64 517 64 q 723 83 659 64 q 839 135 787 102 q 998 264 892 168 l 1040 226 q 803 39 933 104 q 569 -16 694 -16 q 353 34 431 -16 q 219 166 274 84 q 165 379 165 249 q 242 669 165 534 q 451 884 320 805 q 731 962 583 962 q 848 947 790 962 q 926 916 891 937 q 983 871 951 902 l 1023 942 m 974 1158 l 748 1040 l 562 1158 l 597 1195 l 763 1131 l 944 1195 l 974 1158 z "},"č":{"ha":667,"x_min":119,"x_max":774,"o":"m 677 186 l 718 145 q 377 -16 540 -16 q 242 16 300 -16 q 152 109 184 48 q 119 245 119 170 q 177 456 119 354 q 329 614 235 558 q 530 671 424 671 q 684 620 623 671 q 744 504 744 569 q 725 439 744 462 q 676 417 707 417 q 637 435 653 417 q 621 477 621 452 l 621 498 l 622 522 q 595 578 622 554 q 526 602 568 602 q 399 556 463 602 q 290 420 335 511 q 245 235 245 329 q 267 144 245 184 q 325 80 288 103 q 403 58 362 58 q 481 70 438 58 q 566 105 524 82 q 677 186 607 129 m 774 888 l 549 770 l 363 888 l 397 925 l 564 861 l 745 925 l 774 888 z "},"đ":{"ha":889,"x_min":127,"x_max":1013,"o":"m 888 805 l 1013 805 l 1000 746 l 874 746 l 744 164 q 732 100 732 115 q 745 68 732 81 q 775 55 757 55 q 805 61 791 55 q 840 82 820 66 q 899 141 848 90 l 941 104 q 864 29 889 47 q 806 -1 838 10 q 742 -12 774 -12 q 680 3 707 -12 q 638 43 654 17 q 623 99 623 70 q 638 183 623 123 q 539 65 587 106 q 440 3 491 23 q 336 -16 390 -16 q 228 10 271 -16 q 156 93 184 37 q 127 220 127 149 q 186 449 127 339 q 334 615 244 559 q 527 671 423 671 q 637 652 588 671 q 730 592 686 633 l 765 746 l 549 746 l 562 805 l 779 805 l 795 880 l 669 880 l 682 938 q 786 959 730 943 q 877 995 842 976 l 930 995 l 888 805 m 716 530 q 634 582 682 563 q 543 601 587 601 q 410 554 475 601 q 298 408 345 507 q 252 203 252 309 q 284 96 252 135 q 364 57 317 57 q 479 98 421 57 q 617 250 561 154 q 716 530 673 346 z "},"¯":{"ha":694,"x_min":-8,"x_max":703,"o":"m -8 1082 l 703 1082 l 703 1013 l -8 1013 l -8 1082 z "},"·":{"ha":361,"x_min":203,"x_max":368,"o":"m 300 578 q 349 559 330 578 q 368 511 368 541 q 338 445 368 474 q 269 416 309 416 q 221 435 239 416 q 203 485 203 453 q 232 550 203 522 q 300 578 261 578 z "},"":{"ha":517,"x_min":157,"x_max":623,"o":"m 592 954 l 519 671 l 623 671 l 609 621 l 505 621 l 463 462 l 382 462 l 424 621 l 157 621 l 174 686 l 515 954 l 592 954 m 437 671 l 489 869 l 237 671 l 437 671 z "},"Ă":{"ha":972,"x_min":0,"x_max":985,"o":"m 625 946 l 741 946 l 880 155 q 899 89 889 106 q 925 64 909 71 q 985 57 940 58 l 972 0 l 625 0 l 641 57 l 679 57 q 743 73 725 57 q 762 115 762 88 q 757 161 762 130 l 724 352 l 362 352 l 240 138 q 225 93 225 112 q 239 66 225 76 q 298 57 253 57 l 330 57 l 316 0 l 0 0 l 14 57 q 78 65 59 58 q 112 88 97 73 q 161 161 127 104 l 625 946 m 713 418 l 644 838 l 401 418 l 713 418 m 490 1144 l 524 1160 q 701 1112 601 1112 q 881 1160 806 1112 l 911 1144 q 819 1051 873 1082 q 702 1020 766 1020 q 587 1047 640 1020 q 490 1144 534 1075 z "},"ă":{"ha":861,"x_min":120,"x_max":925,"o":"m 753 654 l 838 654 l 723 147 q 717 102 717 121 q 729 66 717 79 q 760 54 741 54 q 804 68 782 54 q 882 141 838 90 l 925 103 q 833 19 859 35 q 728 -12 783 -12 q 664 2 690 -12 q 623 42 638 16 q 608 97 608 68 q 621 180 608 119 q 520 62 568 103 q 423 3 473 22 q 323 -16 374 -16 q 180 45 234 -16 q 120 222 120 113 q 177 448 120 341 q 325 613 233 555 q 515 671 417 671 q 630 649 578 671 q 723 583 682 627 l 753 654 m 700 528 q 620 582 665 563 q 532 601 574 601 q 400 555 465 601 q 290 408 336 509 q 243 204 243 307 q 258 124 243 158 q 299 74 273 91 q 355 57 325 57 q 472 102 410 57 q 612 270 550 157 q 700 528 673 383 m 418 902 l 452 918 q 629 869 529 869 q 809 918 734 869 l 840 902 q 747 809 801 840 q 630 778 694 778 q 515 805 568 778 q 418 902 462 833 z "},"Ą":{"ha":972,"x_min":0,"x_max":985,"o":"m 625 946 l 741 946 l 880 155 q 899 89 889 106 q 925 64 909 71 q 985 57 940 58 l 972 0 l 625 0 l 641 57 l 679 57 q 743 73 725 57 q 762 115 762 88 q 757 161 762 130 l 724 352 l 362 352 l 240 138 q 225 93 225 112 q 239 66 225 76 q 298 57 253 57 l 330 57 l 316 0 l 0 0 l 14 57 q 78 65 59 58 q 112 88 97 73 q 161 161 127 104 l 625 946 m 713 418 l 644 838 l 401 418 l 713 418 m 863 0 l 923 0 q 886 -30 911 -10 q 842 -69 852 -56 q 820 -105 827 -87 q 813 -137 813 -123 q 830 -174 813 -157 q 870 -191 848 -191 q 912 -180 884 -191 l 903 -231 q 863 -235 878 -235 q 775 -204 810 -235 q 741 -132 741 -174 q 770 -62 741 -94 q 863 0 788 -42 z "},"ą":{"ha":861,"x_min":120,"x_max":925,"o":"m 753 654 l 838 654 l 723 147 q 717 102 717 121 q 729 66 717 79 q 760 54 741 54 q 804 68 782 54 q 882 141 838 90 l 925 103 q 833 19 859 35 q 728 -12 783 -12 q 664 2 690 -12 q 623 42 638 16 q 608 97 608 68 q 621 180 608 119 q 520 62 568 103 q 423 3 473 22 q 323 -16 374 -16 q 180 45 234 -16 q 120 222 120 113 q 177 448 120 341 q 325 613 233 555 q 515 671 417 671 q 630 649 578 671 q 723 583 682 627 l 753 654 m 700 528 q 620 582 665 563 q 532 601 574 601 q 400 555 465 601 q 290 408 336 509 q 243 204 243 307 q 258 124 243 158 q 299 74 273 91 q 355 57 325 57 q 472 102 410 57 q 612 270 550 157 q 700 528 673 383 m 703 0 l 764 0 q 727 -30 751 -10 q 682 -69 693 -56 q 661 -105 667 -87 q 654 -137 654 -123 q 671 -174 654 -157 q 711 -191 688 -191 q 753 -180 725 -191 l 744 -231 q 704 -235 719 -235 q 616 -204 651 -235 q 581 -132 581 -174 q 610 -62 581 -94 q 703 0 629 -42 z "},"Ď":{"ha":1027,"x_min":56,"x_max":1095,"o":"m 271 946 l 650 946 q 907 901 810 946 q 1042 773 989 862 q 1095 572 1095 684 q 1064 386 1095 479 q 976 216 1032 292 q 852 94 919 139 q 697 28 785 49 q 450 0 583 0 l 56 0 l 68 57 q 144 60 134 58 q 172 73 159 63 q 199 105 190 87 q 219 172 208 122 l 359 787 q 367 836 367 821 q 358 866 367 853 q 337 884 349 880 q 283 888 324 888 l 258 888 l 271 946 m 499 870 l 331 132 q 326 98 326 108 q 336 79 326 85 q 382 73 346 73 l 437 73 q 617 89 529 73 q 714 125 666 98 q 807 198 763 152 q 887 307 851 243 q 941 439 922 370 q 959 576 959 507 q 920 738 959 673 q 812 837 881 803 q 618 870 744 870 l 499 870 m 906 1131 l 680 1013 l 494 1131 l 529 1167 l 695 1103 l 876 1167 l 906 1131 z "},"ď":{"ha":947,"x_min":128,"x_max":1162,"o":"m 930 995 l 745 164 q 733 100 733 115 q 745 68 733 81 q 776 55 758 55 q 806 61 791 55 q 840 82 821 66 q 899 141 848 90 l 941 104 q 864 29 890 47 q 807 -1 839 10 q 743 -12 774 -12 q 681 3 707 -12 q 639 43 654 17 q 624 99 624 70 q 639 183 624 123 q 539 65 587 106 q 441 3 492 23 q 337 -16 391 -16 q 228 11 271 -16 q 156 94 184 37 q 128 223 128 150 q 186 447 128 340 q 337 612 244 553 q 530 671 429 671 q 638 652 589 671 q 730 592 688 633 l 796 880 l 670 880 l 683 938 q 787 959 731 943 q 878 995 843 976 l 930 995 m 717 530 q 635 582 682 563 q 544 601 587 601 q 411 554 476 601 q 299 408 345 507 q 252 203 252 309 q 285 96 252 135 q 365 57 317 57 q 480 98 422 57 q 617 250 562 154 q 717 530 673 346 m 948 652 l 921 693 q 1088 869 1082 784 q 1059 865 1071 865 q 1019 882 1038 865 q 1000 933 1000 899 q 1021 984 1000 966 q 1072 1003 1042 1003 q 1134 976 1107 1003 q 1162 900 1162 948 q 948 652 1162 761 z "},"Đ":{"ha":1027,"x_min":56,"x_max":1095,"o":"m 280 439 l 156 439 l 170 505 l 295 505 l 359 787 q 367 836 367 821 q 358 866 367 853 q 337 884 349 880 q 283 888 324 888 l 258 888 l 271 946 l 650 946 q 907 901 810 946 q 1042 773 989 862 q 1095 572 1095 684 q 1064 386 1095 479 q 976 216 1032 292 q 852 94 919 139 q 697 28 785 49 q 450 0 583 0 l 56 0 l 68 57 q 144 60 134 58 q 172 73 159 63 q 199 105 190 87 q 219 172 208 122 l 280 439 m 401 439 l 331 132 q 326 98 326 108 q 336 79 326 85 q 382 73 346 73 l 437 73 q 558 79 488 73 q 663 98 627 86 q 767 157 715 115 q 865 269 819 199 q 935 418 910 338 q 959 582 959 498 q 920 740 959 675 q 812 837 880 804 q 618 870 743 870 l 499 870 l 416 505 l 708 505 l 694 439 l 401 439 z "},"Ę":{"ha":945,"x_min":54,"x_max":1028,"o":"m 268 946 l 950 946 l 1028 696 l 966 676 q 902 793 938 753 q 822 849 865 833 q 669 869 764 869 l 495 869 l 417 523 l 532 523 q 639 538 604 523 q 697 586 673 553 q 734 683 722 620 l 800 683 l 713 299 l 647 299 q 657 372 657 351 q 642 419 657 398 q 603 450 627 441 q 513 458 579 458 l 403 458 l 326 126 q 321 97 321 104 q 332 76 321 83 q 374 71 340 71 l 526 71 q 707 95 637 71 q 826 164 777 119 q 939 322 876 210 l 998 299 l 854 0 l 54 0 l 67 57 q 156 64 136 58 q 186 86 176 71 q 214 157 204 111 l 357 785 q 365 833 365 820 q 345 877 365 865 q 277 888 324 888 l 256 888 l 268 946 m 737 0 l 798 0 q 761 -30 785 -10 q 716 -69 727 -56 q 694 -105 701 -87 q 688 -137 688 -123 q 705 -174 688 -157 q 745 -191 722 -191 q 787 -180 759 -191 l 778 -231 q 738 -235 753 -235 q 650 -204 685 -235 q 615 -132 615 -174 q 644 -62 615 -94 q 737 0 663 -42 z "},"ę":{"ha":750,"x_min":123,"x_max":789,"o":"m 707 179 l 745 136 q 568 22 660 60 q 387 -16 475 -16 q 196 57 269 -16 q 123 250 123 130 q 183 455 123 358 q 351 612 243 553 q 581 671 458 671 q 734 626 679 671 q 789 520 789 581 q 765 445 789 484 q 684 371 741 405 q 519 315 627 337 q 254 284 411 292 q 250 244 250 258 q 273 149 250 191 q 337 82 296 106 q 425 57 379 57 q 559 88 482 57 q 707 179 636 119 m 262 338 q 485 371 416 355 q 637 435 596 397 q 677 517 677 473 q 647 581 677 555 q 562 607 617 607 q 438 572 503 607 q 328 478 373 538 q 262 338 282 418 m 398 0 l 458 0 q 422 -30 446 -10 q 377 -69 388 -56 q 355 -105 362 -87 q 349 -137 349 -123 q 366 -174 349 -157 q 406 -191 383 -191 q 448 -180 420 -191 l 439 -231 q 399 -235 414 -235 q 311 -204 346 -235 q 276 -132 276 -174 q 305 -62 276 -94 q 398 0 323 -42 z "},"Ě":{"ha":945,"x_min":54,"x_max":1028,"o":"m 268 946 l 950 946 l 1028 696 l 966 676 q 902 793 938 753 q 822 849 865 833 q 669 869 764 869 l 495 869 l 417 523 l 532 523 q 639 538 604 523 q 697 586 673 553 q 734 683 722 620 l 800 683 l 713 299 l 647 299 q 657 372 657 351 q 642 419 657 398 q 603 450 627 441 q 513 458 579 458 l 403 458 l 326 126 q 321 97 321 104 q 332 76 321 83 q 374 71 340 71 l 526 71 q 707 95 637 71 q 826 164 777 119 q 939 322 876 210 l 998 299 l 854 0 l 54 0 l 67 57 q 156 64 136 58 q 186 86 176 71 q 214 157 204 111 l 357 785 q 365 833 365 820 q 345 877 365 865 q 277 888 324 888 l 256 888 l 268 946 m 872 1131 l 646 1013 l 460 1131 l 495 1167 l 661 1103 l 842 1167 l 872 1131 z "},"ě":{"ha":750,"x_min":123,"x_max":789,"o":"m 707 179 l 745 136 q 568 22 660 60 q 387 -16 475 -16 q 196 57 269 -16 q 123 250 123 130 q 183 455 123 358 q 351 612 243 553 q 581 671 458 671 q 734 626 679 671 q 789 520 789 581 q 765 445 789 484 q 684 371 741 405 q 519 315 627 337 q 254 284 411 292 q 250 244 250 258 q 273 149 250 191 q 337 82 296 106 q 425 57 379 57 q 559 88 482 57 q 707 179 636 119 m 262 338 q 485 371 416 355 q 637 435 596 397 q 677 517 677 473 q 647 581 677 555 q 562 607 617 607 q 438 572 503 607 q 328 478 373 538 q 262 338 282 418 m 766 888 l 541 770 l 355 888 l 389 925 l 555 861 l 736 925 l 766 888 z "},"Ĳ":{"ha":1222,"x_min":35,"x_max":1426,"o":"m 249 946 l 623 946 l 610 888 l 588 888 q 498 870 522 888 q 459 782 475 852 l 319 167 q 310 108 310 123 q 390 57 310 57 l 422 57 l 408 0 l 35 0 l 47 57 l 75 57 q 158 77 134 57 q 197 159 182 96 l 340 789 q 347 836 347 821 q 329 878 347 867 q 261 888 310 888 l 237 888 l 249 946 m 1052 946 l 1426 946 l 1413 888 l 1377 888 q 1299 868 1321 888 q 1263 786 1276 848 l 1151 290 q 1093 136 1130 195 q 967 30 1055 76 q 774 -16 878 -16 q 573 47 650 -16 q 496 212 496 111 q 524 305 496 265 q 590 345 551 345 q 632 328 616 345 q 649 285 649 311 q 629 228 649 261 q 608 176 608 194 q 651 93 608 132 q 769 54 694 54 q 930 108 859 54 q 1036 316 1002 162 l 1144 786 q 1152 838 1152 817 q 1132 877 1152 866 q 1067 888 1113 888 l 1040 888 l 1052 946 z "},"ĳ":{"ha":778,"x_min":135,"x_max":892,"o":"m 393 995 q 440 977 419 995 q 460 925 460 958 q 437 865 460 891 q 379 839 413 839 q 328 859 349 839 q 307 909 307 880 q 333 970 307 945 q 393 995 359 995 m 824 995 q 871 977 850 995 q 892 925 892 958 q 867 864 892 889 q 810 839 842 839 q 760 858 783 839 q 737 909 737 877 q 764 970 737 945 q 824 995 791 995 m 399 671 l 268 151 q 260 100 260 119 q 302 54 260 54 q 425 141 346 54 l 469 103 q 380 23 435 57 q 271 -12 326 -12 q 184 21 219 -12 q 150 96 150 53 q 161 171 150 125 l 259 560 l 135 560 l 147 616 q 347 671 239 620 l 399 671 m 825 671 l 664 -45 q 370 -320 602 -320 q 261 -290 305 -320 q 216 -222 216 -260 q 233 -181 216 -197 q 274 -165 250 -165 q 341 -206 307 -165 q 416 -254 380 -254 q 540 -84 503 -254 l 686 559 l 562 559 l 574 614 q 775 671 686 628 l 825 671 z "},"Ĺ":{"ha":806,"x_min":52,"x_max":875,"o":"m 266 946 l 636 946 l 624 888 l 595 888 q 528 880 547 888 q 497 852 509 872 q 471 774 484 831 l 326 127 q 319 97 319 102 q 329 78 319 84 q 369 71 338 71 l 427 71 q 589 97 521 71 q 707 170 657 122 q 816 322 758 217 l 875 296 l 730 0 l 52 0 l 64 57 l 94 57 q 156 64 140 57 q 190 94 177 75 q 215 162 203 113 l 355 782 q 362 838 362 814 q 354 867 362 856 q 332 883 347 878 q 280 888 318 888 l 253 888 l 266 946 m 475 985 l 458 1025 l 554 1119 q 633 1185 602 1166 q 669 1195 649 1195 q 708 1177 692 1195 q 724 1136 724 1160 q 704 1090 724 1112 q 631 1046 685 1068 l 475 985 z "},"ĺ":{"ha":389,"x_min":151,"x_max":539,"o":"m 456 995 l 269 164 q 259 103 259 118 q 271 67 259 80 q 301 55 282 55 q 345 68 326 55 q 423 142 376 88 l 467 104 q 270 -12 371 -12 q 183 19 216 -12 q 151 96 151 50 q 158 159 151 126 l 320 880 l 195 880 l 208 938 q 318 961 277 949 q 404 995 359 973 l 456 995 m 290 1000 l 273 1040 l 370 1134 q 448 1200 418 1181 q 485 1210 465 1210 q 523 1192 507 1210 q 539 1151 539 1175 q 520 1105 539 1126 q 447 1061 500 1083 l 290 1000 z "},"Ľ":{"ha":806,"x_min":52,"x_max":875,"o":"m 266 946 l 636 946 l 624 888 l 595 888 q 528 880 547 888 q 497 852 509 872 q 471 774 484 831 l 326 127 q 319 97 319 102 q 329 78 319 84 q 369 71 338 71 l 427 71 q 589 97 521 71 q 707 170 657 122 q 816 322 758 217 l 875 296 l 730 0 l 52 0 l 64 57 l 94 57 q 156 64 140 57 q 190 94 177 75 q 215 162 203 113 l 355 782 q 362 838 362 814 q 354 867 362 856 q 332 883 347 878 q 280 888 318 888 l 253 888 l 266 946 m 659 611 l 632 652 q 799 828 793 743 q 770 825 782 825 q 730 841 749 825 q 711 892 711 858 q 732 944 711 925 q 783 962 753 962 q 845 935 818 962 q 873 859 873 907 q 659 611 873 720 z "},"ľ":{"ha":473,"x_min":151,"x_max":684,"o":"m 456 995 l 269 164 q 259 103 259 118 q 271 67 259 80 q 301 55 282 55 q 345 68 326 55 q 423 142 376 88 l 467 104 q 270 -12 371 -12 q 183 19 216 -12 q 151 96 151 50 q 158 159 151 126 l 320 880 l 195 880 l 208 938 q 318 961 277 949 q 404 995 359 973 l 456 995 m 470 611 l 443 652 q 610 828 604 743 q 581 825 593 825 q 541 841 559 825 q 522 892 522 858 q 543 944 522 925 q 593 962 564 962 q 656 935 629 962 q 684 859 684 907 q 470 611 684 720 z "},"Ŀ":{"ha":806,"x_min":52,"x_max":875,"o":"m 266 946 l 636 946 l 624 888 l 595 888 q 528 880 547 888 q 497 852 509 872 q 471 774 484 831 l 326 127 q 319 97 319 102 q 329 78 319 84 q 369 71 338 71 l 427 71 q 589 97 521 71 q 707 170 657 122 q 816 322 758 217 l 875 296 l 730 0 l 52 0 l 64 57 l 94 57 q 156 64 140 57 q 190 94 177 75 q 215 162 203 113 l 355 782 q 362 838 362 814 q 354 867 362 856 q 332 883 347 878 q 280 888 318 888 l 253 888 l 266 946 m 630 578 q 679 559 660 578 q 698 511 698 541 q 668 445 698 474 q 599 416 638 416 q 551 435 569 416 q 532 485 532 453 q 562 550 532 522 q 630 578 591 578 z "},"ŀ":{"ha":454,"x_min":151,"x_max":562,"o":"m 456 995 l 269 164 q 259 103 259 118 q 271 67 259 80 q 301 55 282 55 q 345 68 326 55 q 423 142 376 88 l 467 104 q 270 -12 371 -12 q 183 19 216 -12 q 151 96 151 50 q 158 159 151 126 l 320 880 l 195 880 l 208 938 q 318 961 277 949 q 404 995 359 973 l 456 995 m 494 578 q 543 559 524 578 q 562 511 562 541 q 532 445 562 474 q 463 416 503 416 q 415 435 433 416 q 397 485 397 453 q 426 550 397 522 q 494 578 455 578 z "},"Ń":{"ha":1000,"x_min":52,"x_max":1186,"o":"m 267 946 l 555 946 l 813 209 l 946 796 q 952 837 952 825 q 932 876 952 863 q 873 884 918 884 l 843 884 l 855 946 l 1186 946 l 1173 884 l 1147 884 q 1079 876 1099 884 q 1047 851 1059 868 q 1024 785 1036 835 l 843 0 l 765 0 l 456 876 l 292 153 q 286 111 286 127 q 294 81 286 94 q 318 62 303 68 q 374 57 332 57 l 397 57 l 384 0 l 52 0 l 64 57 l 94 57 q 159 66 140 57 q 192 96 178 75 q 216 170 205 117 l 357 785 q 364 834 364 814 q 345 876 364 863 q 288 884 330 884 l 254 884 l 267 946 m 637 985 l 621 1025 l 717 1119 q 795 1185 765 1166 q 832 1195 812 1195 q 870 1177 854 1195 q 886 1136 886 1160 q 867 1090 886 1112 q 794 1046 848 1068 l 637 985 z "},"ń":{"ha":861,"x_min":146,"x_max":932,"o":"m 402 671 l 354 458 q 418 546 387 513 q 539 640 477 609 q 659 671 601 671 q 738 653 704 671 q 792 604 772 636 q 812 540 812 572 q 798 452 812 512 l 734 163 q 724 104 724 121 q 737 71 724 83 q 768 58 749 58 q 890 148 815 58 l 932 108 q 828 14 873 39 q 736 -12 784 -12 q 672 3 699 -12 q 630 44 646 17 q 614 100 614 71 q 624 169 614 127 l 690 469 q 699 529 699 508 q 680 576 699 559 q 629 593 661 593 q 552 574 592 593 q 466 509 511 554 q 383 396 420 463 q 314 236 345 329 q 281 108 299 193 l 258 0 l 146 0 l 271 559 l 146 559 l 159 614 q 261 635 224 624 q 354 671 298 646 l 402 671 m 503 743 l 486 783 l 582 877 q 661 943 630 924 q 697 953 677 953 q 735 935 720 953 q 751 894 751 918 q 732 848 751 869 q 659 804 713 826 l 503 743 z "},"Ň":{"ha":1000,"x_min":52,"x_max":1186,"o":"m 267 946 l 555 946 l 813 209 l 946 796 q 952 837 952 825 q 932 876 952 863 q 873 884 918 884 l 843 884 l 855 946 l 1186 946 l 1173 884 l 1147 884 q 1079 876 1099 884 q 1047 851 1059 868 q 1024 785 1036 835 l 843 0 l 765 0 l 456 876 l 292 153 q 286 111 286 127 q 294 81 286 94 q 318 62 303 68 q 374 57 332 57 l 397 57 l 384 0 l 52 0 l 64 57 l 94 57 q 159 66 140 57 q 192 96 178 75 q 216 170 205 117 l 357 785 q 364 834 364 814 q 345 876 364 863 q 288 884 330 884 l 254 884 l 267 946 m 941 1131 l 715 1013 l 529 1131 l 564 1167 l 730 1103 l 911 1167 l 941 1131 z "},"ň":{"ha":861,"x_min":146,"x_max":932,"o":"m 402 671 l 354 458 q 418 546 387 513 q 539 640 477 609 q 659 671 601 671 q 738 653 704 671 q 792 604 772 636 q 812 540 812 572 q 798 452 812 512 l 734 163 q 724 104 724 121 q 737 71 724 83 q 768 58 749 58 q 890 148 815 58 l 932 108 q 828 14 873 39 q 736 -12 784 -12 q 672 3 699 -12 q 630 44 646 17 q 614 100 614 71 q 624 169 614 127 l 690 469 q 699 529 699 508 q 680 576 699 559 q 629 593 661 593 q 552 574 592 593 q 466 509 511 554 q 383 396 420 463 q 314 236 345 329 q 281 108 299 193 l 258 0 l 146 0 l 271 559 l 146 559 l 159 614 q 261 635 224 624 q 354 671 298 646 l 402 671 m 823 888 l 597 770 l 411 888 l 446 925 l 612 861 l 793 925 l 823 888 z "},"ŉ":{"ha":1054,"x_min":113,"x_max":1125,"o":"m 595 671 l 547 458 q 611 546 580 513 q 732 640 670 609 q 851 671 793 671 q 930 653 897 671 q 985 604 964 636 q 1005 540 1005 572 q 991 452 1005 512 l 926 163 q 917 104 917 121 q 929 71 917 83 q 960 58 942 58 q 1082 148 1008 58 l 1125 108 q 1021 14 1065 39 q 928 -12 977 -12 q 865 3 892 -12 q 823 44 838 17 q 807 100 807 71 q 817 169 807 127 l 883 469 q 892 529 892 508 q 872 576 892 559 q 821 593 853 593 q 744 574 785 593 q 659 509 704 554 q 575 396 613 463 q 507 236 538 329 q 473 108 492 193 l 450 0 l 338 0 l 464 559 l 338 559 l 352 614 q 454 635 417 624 q 547 671 490 646 l 595 671 m 143 604 l 113 650 q 219 723 176 686 q 281 791 261 760 q 298 845 292 810 q 267 842 279 842 q 219 862 239 842 q 200 917 200 883 q 222 973 200 951 q 279 995 245 995 q 351 963 321 995 q 380 880 380 931 q 358 790 380 835 q 286 699 336 745 q 143 604 236 653 z "},"Ő":{"ha":1056,"x_min":147,"x_max":1122,"o":"m 722 962 q 1005 858 894 962 q 1122 561 1122 747 q 1044 272 1122 408 q 831 59 965 137 q 544 -16 701 -16 q 337 33 425 -16 q 198 172 250 83 q 147 376 147 261 q 225 668 147 531 q 437 884 304 806 q 722 962 570 962 m 726 890 q 513 826 610 890 q 351 632 416 762 q 286 358 286 502 q 320 196 286 267 q 414 90 355 125 q 550 54 473 54 q 757 119 660 54 q 920 316 854 184 q 985 591 985 448 q 950 749 985 681 q 857 854 916 817 q 726 890 798 890 m 633 978 l 602 1000 l 633 1118 q 670 1218 656 1200 q 707 1236 685 1236 q 745 1220 729 1236 q 762 1181 762 1204 q 724 1100 762 1149 l 633 978 m 795 978 l 764 1000 l 795 1118 q 832 1218 817 1200 q 869 1236 847 1236 q 908 1220 891 1236 q 924 1181 924 1204 q 886 1100 924 1150 l 795 978 z "},"ő":{"ha":750,"x_min":119,"x_max":775,"o":"m 511 671 q 701 596 626 671 q 775 406 775 521 q 722 190 775 291 q 583 36 669 88 q 393 -16 497 -16 q 249 16 307 -16 q 156 113 192 47 q 119 254 119 178 q 175 464 119 363 q 318 618 230 565 q 511 671 406 671 m 505 605 q 382 564 439 605 q 285 432 326 523 q 244 240 244 341 q 283 102 244 158 q 396 47 322 47 q 513 88 458 47 q 610 222 568 129 q 651 412 651 316 q 631 516 651 470 q 578 583 611 562 q 505 605 545 605 m 439 736 l 408 759 l 439 876 q 476 977 462 958 q 513 995 491 995 q 551 979 535 995 q 568 939 568 962 q 530 859 568 908 l 439 736 m 602 736 l 570 759 l 602 876 q 638 977 623 958 q 675 995 653 995 q 714 979 697 995 q 730 939 730 962 q 692 859 730 909 l 602 736 z "},"Ŕ":{"ha":972,"x_min":56,"x_max":1049,"o":"m 271 946 l 740 946 q 922 922 862 946 q 1016 848 982 897 q 1049 732 1049 798 q 1005 589 1049 656 q 887 489 960 522 q 661 452 814 456 l 837 141 q 876 88 852 115 q 913 63 891 71 q 984 57 936 56 l 972 0 l 781 0 l 537 452 l 406 452 l 337 152 q 331 111 331 127 q 342 78 331 93 q 368 60 353 64 q 443 57 378 57 l 429 0 l 56 0 l 69 57 l 90 57 q 161 65 141 57 q 193 91 181 74 q 216 160 205 109 l 359 779 q 368 836 368 816 q 348 877 368 865 q 282 888 328 888 l 257 888 l 271 946 m 500 871 l 418 516 l 604 516 q 789 538 735 516 q 878 612 843 560 q 913 728 913 664 q 891 808 913 777 q 828 856 869 840 q 692 871 787 871 l 500 871 m 599 985 l 582 1025 l 678 1119 q 757 1185 726 1166 q 793 1195 773 1195 q 832 1177 816 1195 q 848 1136 848 1160 q 828 1090 848 1112 q 755 1046 809 1068 l 599 985 z "},"ŕ":{"ha":555,"x_min":149,"x_max":690,"o":"m 406 671 l 356 458 q 442 579 395 531 q 537 652 488 627 q 608 671 572 671 q 667 650 644 671 q 690 600 690 629 q 671 554 690 574 q 631 534 652 534 q 591 543 617 534 q 549 553 565 553 q 429 469 492 553 q 289 122 343 355 l 260 0 l 149 0 l 275 558 l 149 558 l 163 614 q 269 634 226 622 q 356 671 311 647 l 406 671 m 374 743 l 357 783 l 454 877 q 532 943 502 924 q 569 953 549 953 q 607 935 591 953 q 623 894 623 918 q 604 848 623 869 q 531 804 585 826 l 374 743 z "},"Ř":{"ha":972,"x_min":56,"x_max":1049,"o":"m 271 946 l 740 946 q 922 922 862 946 q 1016 848 982 897 q 1049 732 1049 798 q 1005 589 1049 656 q 887 489 960 522 q 661 452 814 456 l 837 141 q 876 88 852 115 q 913 63 891 71 q 984 57 936 56 l 972 0 l 781 0 l 537 452 l 406 452 l 337 152 q 331 111 331 127 q 342 78 331 93 q 368 60 353 64 q 443 57 378 57 l 429 0 l 56 0 l 69 57 l 90 57 q 161 65 141 57 q 193 91 181 74 q 216 160 205 109 l 359 779 q 368 836 368 816 q 348 877 368 865 q 282 888 328 888 l 257 888 l 271 946 m 500 871 l 418 516 l 604 516 q 789 538 735 516 q 878 612 843 560 q 913 728 913 664 q 891 808 913 777 q 828 856 869 840 q 692 871 787 871 l 500 871 m 878 1131 l 652 1013 l 466 1131 l 500 1167 l 667 1103 l 848 1167 l 878 1131 z "},"ř":{"ha":555,"x_min":149,"x_max":690,"o":"m 406 671 l 356 458 q 442 579 395 531 q 537 652 488 627 q 608 671 572 671 q 667 650 644 671 q 690 600 690 629 q 671 554 690 574 q 631 534 652 534 q 591 543 617 534 q 549 553 565 553 q 429 469 492 553 q 289 122 343 355 l 260 0 l 149 0 l 275 558 l 149 558 l 163 614 q 269 634 226 622 q 356 671 311 647 l 406 671 m 669 888 l 444 770 l 258 888 l 292 925 l 458 861 l 640 925 l 669 888 z "},"Ś":{"ha":889,"x_min":139,"x_max":969,"o":"m 914 946 l 964 946 l 969 646 l 903 646 q 798 818 877 747 q 602 888 720 888 q 483 864 536 888 q 404 802 431 840 q 376 726 376 764 q 394 666 376 694 q 452 612 411 637 q 597 550 494 586 q 803 461 747 497 q 885 378 858 425 q 912 278 912 332 q 865 135 912 205 q 734 24 818 65 q 537 -16 650 -16 q 380 9 448 -16 q 241 97 313 34 l 184 0 l 139 0 l 154 347 l 218 347 q 329 134 243 210 q 536 58 414 58 q 728 120 649 58 q 792 247 792 172 q 767 327 792 292 q 678 393 741 361 q 508 457 643 410 q 332 551 381 503 q 264 705 264 619 q 306 827 264 768 q 429 925 348 887 q 610 962 509 962 q 746 941 685 962 q 869 872 808 920 l 914 946 m 557 985 l 541 1025 l 637 1119 q 715 1185 685 1166 q 752 1195 732 1195 q 790 1177 774 1195 q 806 1136 806 1160 q 787 1090 806 1112 q 714 1046 768 1068 l 557 985 z "},"ś":{"ha":750,"x_min":102,"x_max":776,"o":"m 428 410 l 548 368 q 614 339 567 361 q 682 298 662 316 q 721 245 707 276 q 736 182 736 214 q 702 85 736 132 q 604 11 669 39 q 444 -16 539 -16 q 259 14 341 -16 q 140 86 177 44 q 102 163 102 129 q 118 202 102 186 q 159 218 134 218 q 186 212 174 218 q 212 193 199 207 q 240 150 220 184 q 263 114 258 120 q 305 79 279 96 q 365 53 332 62 q 441 45 397 45 q 548 61 505 45 q 611 103 590 77 q 631 157 631 130 q 593 225 631 195 q 483 277 555 255 q 470 281 477 279 l 375 315 q 250 390 288 345 q 212 487 212 434 q 243 576 212 533 q 335 645 274 620 q 485 671 395 671 q 710 616 622 671 q 776 522 776 574 q 760 483 776 499 q 722 467 745 467 q 680 482 700 467 q 640 530 667 493 q 574 588 613 569 q 478 607 535 607 q 358 577 401 607 q 316 510 316 547 q 339 456 316 480 q 428 410 362 432 m 447 743 l 430 783 l 526 877 q 605 943 574 924 q 642 953 621 953 q 680 935 664 953 q 696 894 696 918 q 676 848 696 869 q 604 804 657 826 l 447 743 z "},"Ţ":{"ha":833,"x_min":154,"x_max":1004,"o":"m 968 976 l 1004 695 l 939 682 q 896 806 925 762 q 827 868 867 850 q 711 885 787 885 q 680 878 688 885 q 667 848 673 871 l 510 153 q 505 109 505 126 q 524 68 505 79 q 615 57 543 57 l 603 0 l 229 0 l 243 57 q 351 74 327 57 q 387 144 375 92 l 543 837 q 548 868 548 858 q 509 885 548 885 q 333 825 399 885 q 210 673 267 766 l 154 705 l 300 976 l 347 976 l 347 946 l 906 946 l 918 976 l 968 976 m 323 -327 l 298 -292 q 403 -177 398 -232 q 377 -180 387 -180 q 340 -166 357 -180 q 323 -123 323 -152 q 342 -81 323 -96 q 387 -66 361 -66 q 447 -90 424 -66 q 469 -149 469 -114 q 323 -327 469 -248 z "},"ţ":{"ha":472,"x_min":140,"x_max":568,"o":"m 439 884 l 388 654 l 568 654 l 552 585 l 372 585 l 282 186 q 273 119 273 142 q 289 73 273 90 q 330 57 306 57 q 391 76 361 57 q 478 155 421 95 l 524 117 q 303 -16 413 -16 q 203 20 243 -16 q 163 106 163 56 q 172 176 163 138 l 264 585 l 140 585 l 152 637 q 388 884 309 670 l 439 884 m 167 -327 l 142 -292 q 247 -177 242 -232 q 221 -180 231 -180 q 184 -165 201 -180 q 168 -123 168 -151 q 186 -81 168 -96 q 231 -66 205 -66 q 289 -88 264 -66 q 313 -149 313 -110 q 167 -327 313 -244 z "},"Ť":{"ha":833,"x_min":154,"x_max":1004,"o":"m 968 976 l 1004 695 l 939 682 q 897 804 925 761 q 830 866 869 847 q 711 885 791 885 q 681 879 688 885 q 667 848 673 872 l 510 153 q 505 109 505 126 q 514 78 505 92 q 542 61 524 65 q 615 57 559 57 l 603 0 l 229 0 l 243 57 q 314 61 291 58 q 350 74 337 64 q 370 100 362 83 q 387 144 384 128 l 543 837 q 548 868 548 858 q 541 881 548 877 q 509 885 534 885 q 394 864 441 885 q 295 789 346 842 q 210 673 262 755 l 154 705 l 300 976 l 347 976 l 347 946 l 906 946 l 918 976 l 968 976 m 857 1131 l 631 1013 l 446 1131 l 480 1167 l 646 1103 l 827 1167 l 857 1131 z "},"ť":{"ha":543,"x_min":140,"x_max":735,"o":"m 533 706 l 507 740 q 665 884 659 815 q 638 882 649 882 q 598 896 616 882 q 581 937 581 911 q 601 979 581 964 q 649 995 621 995 q 710 971 686 995 q 735 910 735 947 q 533 706 735 799 m 439 884 l 388 654 l 568 654 l 552 585 l 372 585 l 282 186 q 273 119 273 142 q 289 73 273 90 q 330 57 306 57 q 391 76 361 57 q 478 155 421 95 l 524 117 q 303 -16 413 -16 q 203 20 243 -16 q 163 106 163 56 q 172 176 163 138 l 264 585 l 140 585 l 152 637 q 388 884 309 670 l 439 884 z "},"Ů":{"ha":1000,"x_min":203,"x_max":1200,"o":"m 227 946 l 598 946 l 587 888 l 555 888 q 493 881 511 888 q 462 853 475 873 q 439 791 449 833 l 335 334 q 324 249 324 286 q 350 156 324 198 q 429 89 376 114 q 547 64 481 64 q 700 103 630 64 q 805 209 769 142 q 861 363 842 276 l 960 791 q 968 841 968 826 q 960 868 968 857 q 937 885 951 880 q 883 888 926 888 l 857 888 l 869 946 l 1200 946 l 1188 888 l 1156 888 q 1094 880 1114 888 q 1062 853 1075 871 q 1040 791 1049 834 l 935 334 q 903 227 920 265 q 813 96 871 153 q 682 12 755 39 q 519 -16 609 -16 q 286 61 368 -16 q 203 231 203 139 q 215 338 203 285 l 317 785 q 324 836 324 819 q 315 866 324 853 q 293 884 307 880 q 236 888 279 888 l 215 888 l 227 946 m 764 1219 q 827 1194 804 1219 q 851 1131 851 1170 q 813 1044 851 1082 q 724 1006 774 1006 q 663 1030 686 1006 q 640 1095 640 1055 q 676 1182 640 1145 q 764 1219 712 1219 m 756 1175 q 712 1153 732 1175 q 693 1102 693 1132 q 704 1064 693 1077 q 733 1050 715 1050 q 779 1073 758 1050 q 799 1125 799 1095 q 787 1161 799 1147 q 756 1175 775 1175 z "},"ů":{"ha":861,"x_min":135,"x_max":921,"o":"m 721 654 l 832 654 l 721 163 q 713 98 713 130 q 725 66 713 78 q 755 54 737 54 q 799 70 775 54 q 878 142 841 98 l 921 105 q 820 15 867 41 q 725 -12 774 -12 q 637 19 670 -12 q 604 94 604 50 q 616 183 604 123 q 556 102 585 132 q 437 13 500 43 q 319 -16 375 -16 q 240 0 273 -16 q 187 47 206 16 q 168 109 168 77 q 181 200 168 141 l 260 557 l 135 557 l 148 614 q 240 631 199 619 q 345 671 281 642 l 395 671 l 285 174 q 278 127 278 141 q 296 76 278 95 q 343 56 315 56 q 472 109 406 56 q 609 280 557 175 q 686 497 661 385 l 721 654 m 605 977 q 668 952 644 977 q 692 889 692 928 q 653 802 692 840 q 564 764 615 764 q 504 788 527 764 q 481 852 481 812 q 517 940 481 903 q 605 977 553 977 m 597 932 q 553 911 572 932 q 534 860 534 890 q 545 822 534 835 q 574 808 555 808 q 619 831 599 808 q 640 883 640 853 q 628 919 640 905 q 597 932 616 932 z "},"Ű":{"ha":1000,"x_min":203,"x_max":1200,"o":"m 227 946 l 598 946 l 587 888 l 555 888 q 493 881 511 888 q 462 853 475 873 q 439 791 449 833 l 335 334 q 324 249 324 286 q 350 156 324 198 q 429 89 376 114 q 547 64 481 64 q 700 103 630 64 q 805 209 769 142 q 861 363 842 276 l 960 791 q 968 841 968 826 q 960 868 968 857 q 937 885 951 880 q 883 888 926 888 l 857 888 l 869 946 l 1200 946 l 1188 888 l 1156 888 q 1094 880 1114 888 q 1062 853 1075 871 q 1040 791 1049 834 l 935 334 q 903 227 920 265 q 813 96 871 153 q 682 12 755 39 q 519 -16 609 -16 q 286 61 368 -16 q 203 231 203 139 q 215 338 203 285 l 317 785 q 324 836 324 819 q 315 866 324 853 q 293 884 307 880 q 236 888 279 888 l 215 888 l 227 946 m 635 1001 l 604 1023 l 635 1141 q 672 1241 657 1223 q 708 1259 686 1259 q 747 1243 730 1259 q 763 1204 763 1227 q 726 1123 763 1173 l 635 1001 m 797 1001 l 766 1023 l 797 1141 q 833 1241 819 1223 q 871 1259 848 1259 q 909 1243 892 1259 q 926 1204 926 1227 q 888 1123 926 1173 l 797 1001 z "},"ű":{"ha":861,"x_min":135,"x_max":921,"o":"m 721 654 l 832 654 l 721 163 q 713 98 713 130 q 725 66 713 78 q 755 54 737 54 q 799 70 775 54 q 878 142 841 98 l 921 105 q 820 15 867 41 q 725 -12 774 -12 q 637 19 670 -12 q 604 94 604 50 q 616 183 604 123 q 556 102 585 132 q 437 13 500 43 q 319 -16 375 -16 q 240 0 273 -16 q 187 47 206 16 q 168 109 168 77 q 181 200 168 141 l 260 557 l 135 557 l 148 614 q 240 631 199 619 q 345 671 281 642 l 395 671 l 285 174 q 278 127 278 141 q 296 76 278 95 q 343 56 315 56 q 472 109 406 56 q 609 280 557 175 q 686 497 661 385 l 721 654 m 475 759 l 444 781 l 475 899 q 512 999 498 981 q 549 1017 527 1017 q 587 1001 571 1017 q 604 962 604 985 q 566 881 604 930 l 475 759 m 637 759 l 606 781 l 637 899 q 674 999 659 981 q 711 1017 689 1017 q 750 1001 733 1017 q 766 962 766 985 q 728 881 766 931 l 637 759 z "},"Ź":{"ha":806,"x_min":30,"x_max":954,"o":"m 307 946 l 954 946 l 941 888 l 212 73 l 349 73 q 554 96 482 73 q 686 169 627 119 q 815 328 746 219 l 872 296 l 707 0 l 30 0 l 42 57 l 770 870 l 613 870 q 441 850 505 870 q 330 790 378 831 q 221 654 283 750 l 163 687 l 307 946 m 516 985 l 499 1025 l 595 1119 q 674 1185 644 1166 q 711 1195 690 1195 q 749 1177 733 1195 q 765 1136 765 1160 q 746 1090 765 1112 q 673 1046 726 1068 l 516 985 z "},"ź":{"ha":722,"x_min":48,"x_max":806,"o":"m 806 654 l 791 593 l 233 70 q 260 73 254 73 q 410 52 284 73 q 509 41 476 41 q 573 55 543 41 q 616 89 604 70 q 633 149 629 108 q 656 212 637 191 q 698 233 675 233 q 742 215 724 233 q 760 170 760 197 q 730 79 760 124 q 647 9 700 35 q 522 -16 593 -16 q 460 -14 492 -16 q 369 -1 441 -12 q 267 14 292 12 q 196 17 232 17 q 48 -4 121 17 l 61 57 l 625 581 q 587 578 600 578 q 459 596 564 578 q 377 605 410 605 q 311 584 337 605 q 272 516 284 562 q 252 467 262 479 q 207 448 235 448 q 163 465 180 448 q 146 515 146 483 q 204 622 146 573 q 353 671 262 671 q 419 667 386 671 q 511 652 438 665 q 603 636 584 638 q 662 633 632 633 q 806 654 728 633 m 433 743 l 416 783 l 513 877 q 591 943 561 924 q 628 953 608 953 q 666 935 650 953 q 682 894 682 918 q 663 848 682 869 q 590 804 644 826 l 433 743 z "},"Ż":{"ha":806,"x_min":30,"x_max":954,"o":"m 307 946 l 954 946 l 941 888 l 212 73 l 349 73 q 554 96 482 73 q 686 169 627 119 q 815 328 746 219 l 872 296 l 707 0 l 30 0 l 42 57 l 770 870 l 613 870 q 441 850 505 870 q 330 790 378 831 q 221 654 283 750 l 163 687 l 307 946 m 637 1171 q 686 1152 667 1171 q 705 1104 705 1133 q 675 1038 705 1067 q 606 1009 645 1009 q 557 1027 576 1009 q 539 1078 539 1046 q 568 1143 539 1115 q 637 1171 597 1171 z "},"ż":{"ha":722,"x_min":48,"x_max":806,"o":"m 806 654 l 791 593 l 233 70 q 260 73 254 73 q 410 52 284 73 q 509 41 476 41 q 573 55 543 41 q 616 89 604 70 q 633 149 629 108 q 656 212 637 191 q 698 233 675 233 q 742 215 724 233 q 760 170 760 197 q 730 79 760 124 q 647 9 700 35 q 522 -16 593 -16 q 460 -14 492 -16 q 369 -1 441 -12 q 267 14 292 12 q 196 17 232 17 q 48 -4 121 17 l 61 57 l 625 581 q 587 578 600 578 q 459 596 564 578 q 377 605 410 605 q 311 584 337 605 q 272 516 284 562 q 252 467 262 479 q 207 448 235 448 q 163 465 180 448 q 146 515 146 483 q 204 622 146 573 q 353 671 262 671 q 419 667 386 671 q 511 652 438 665 q 603 636 584 638 q 662 633 632 633 q 806 654 728 633 m 546 929 q 595 910 576 929 q 614 862 614 891 q 584 796 614 825 q 515 767 554 767 q 467 785 485 767 q 448 836 448 804 q 477 901 448 873 q 546 929 507 929 z "},"":{"ha":897,"x_min":66,"x_max":859,"o":"m 850 920 l 859 709 l 835 709 q 761 834 821 806 q 615 862 701 862 l 342 862 l 342 116 q 372 51 341 75 q 476 24 402 26 l 476 0 l 66 0 l 66 24 q 166 47 134 24 q 197 133 197 70 l 197 791 q 167 871 197 848 q 66 895 137 895 l 66 920 l 850 920 z "},"":{"ha":1080,"x_min":73,"x_max":1006,"o":"m 1006 462 q 869 119 1006 260 q 543 -21 732 -21 q 213 120 353 -21 q 73 460 73 261 q 209 799 73 657 q 539 941 345 941 q 868 801 730 941 q 1006 462 1006 662 m 841 457 q 760 770 841 653 q 537 888 679 888 q 318 773 399 888 q 238 462 238 659 q 321 148 238 264 q 541 31 405 31 q 762 151 682 31 q 841 457 841 270 m 376 621 l 401 621 q 424 541 400 566 q 502 515 448 515 l 577 515 q 654 541 630 515 q 678 621 679 566 l 703 621 l 703 296 l 678 296 q 655 378 679 352 q 577 404 631 404 l 502 404 q 425 378 449 404 q 401 296 400 352 l 376 296 l 376 621 z "},"":{"ha":1080,"x_min":73,"x_max":1007,"o":"m 612 130 q 743 24 621 24 l 743 0 l 337 0 l 337 24 q 467 130 456 24 q 180 226 287 130 q 73 460 73 323 q 186 699 73 608 q 467 790 300 790 q 337 895 458 895 l 337 920 l 743 920 l 743 895 q 612 790 621 895 q 900 694 792 790 q 1007 460 1007 597 q 892 219 1007 309 q 612 130 778 130 m 467 753 q 329 714 389 751 q 244 618 269 678 q 219 452 219 558 q 467 167 219 177 l 467 753 m 612 753 l 612 167 q 784 230 707 167 q 861 468 861 292 q 612 753 861 743 z "},"":{"ha":744,"x_min":56,"x_max":716,"o":"m 532 621 l 644 621 l 576 304 q 542 176 561 231 q 622 62 555 62 q 692 150 679 62 l 716 150 q 679 25 709 70 q 606 -19 648 -19 q 524 127 543 -19 q 294 -19 452 -19 q 119 67 182 -19 q 56 308 56 154 q 126 552 56 465 q 296 640 197 640 q 490 426 431 640 l 532 621 m 477 364 q 309 600 409 600 q 217 526 252 600 q 182 300 182 451 q 215 82 182 141 q 300 24 248 24 q 383 72 346 24 q 453 262 420 121 l 477 364 z "},"":{"ha":657,"x_min":56,"x_max":602,"o":"m 336 579 q 242 670 298 622 q 147 776 164 738 q 130 845 130 814 q 307 963 130 963 q 483 929 412 963 q 553 846 553 895 q 537 806 553 823 q 499 788 522 788 q 426 834 468 788 q 349 905 378 888 q 279 922 320 922 q 199 901 229 922 q 170 848 170 880 q 196 783 170 815 q 329 677 221 751 q 490 554 439 602 q 571 441 541 506 q 602 303 602 377 q 513 78 602 175 q 309 -19 425 -19 q 129 58 203 -19 q 56 267 56 135 q 140 479 56 396 q 336 579 224 563 m 366 547 q 172 280 172 515 q 221 90 172 155 q 333 25 271 25 q 444 90 400 25 q 487 264 487 154 q 464 402 487 345 q 397 510 441 458 q 366 547 371 540 z "},"":{"ha":615,"x_min":56,"x_max":560,"o":"m 219 330 q 85 478 85 382 q 154 595 85 550 q 328 640 222 640 q 477 610 417 640 q 536 535 536 580 q 519 494 536 511 q 477 477 501 477 q 415 528 439 477 q 313 599 381 599 q 226 566 262 599 q 191 469 191 533 q 318 345 191 345 q 350 347 332 345 q 397 352 381 352 q 439 328 439 352 q 397 301 439 301 q 352 307 382 301 q 316 310 329 310 q 182 172 182 310 q 218 64 182 104 q 318 23 254 23 q 425 106 399 23 q 456 168 439 151 q 500 184 472 184 q 541 168 522 184 q 560 124 560 152 q 489 21 560 61 q 323 -19 418 -19 q 139 33 222 -19 q 56 171 56 84 q 219 330 56 277 z "},"":{"ha":812,"x_min":56,"x_max":782,"o":"m 782 621 l 782 522 l 486 522 q 620 407 557 487 q 682 236 682 326 q 590 51 682 121 q 391 -19 498 -19 q 155 81 254 -19 q 56 322 56 182 q 107 496 56 420 q 227 596 159 571 q 400 621 296 621 l 782 621 m 440 522 l 416 522 q 280 503 327 522 q 202 434 233 483 q 172 314 172 385 q 237 110 172 195 q 391 25 302 25 q 515 88 465 25 q 564 249 564 151 q 440 522 564 397 z "},"":{"ha":593,"x_min":44,"x_max":549,"o":"m 549 621 l 549 522 l 346 522 q 321 203 321 304 q 345 120 321 148 q 404 92 368 92 q 481 171 469 92 l 505 171 q 467 40 505 98 q 369 -19 429 -19 q 248 205 248 -19 q 272 522 248 300 l 212 522 q 126 504 157 522 q 68 429 95 486 l 44 429 q 98 551 68 509 q 155 607 127 593 q 233 621 184 621 l 549 621 z "},"":{"ha":777,"x_min":56,"x_max":722,"o":"m 313 640 l 313 615 q 174 336 174 578 q 348 22 174 70 l 348 418 q 357 539 348 500 q 402 609 367 579 q 489 640 438 640 q 595 604 541 640 q 685 496 649 568 q 722 333 722 425 q 646 101 722 203 q 418 -16 571 -2 l 418 -284 l 348 -284 l 348 -16 q 136 90 216 -4 q 56 334 56 183 q 132 554 56 472 q 313 640 208 636 m 418 37 q 621 314 621 68 q 578 498 621 422 q 473 575 536 575 q 432 550 447 575 q 417 441 417 525 l 418 37 z "},"‗":{"ha":694,"x_min":-8,"x_max":703,"o":"m -8 -113 l 703 -113 l 703 -182 l -8 -182 l -8 -113 m -8 -233 l 703 -233 l 703 -302 l -8 -302 l -8 -233 z "},"′":{"ha":278,"x_min":264,"x_max":402,"o":"m 264 614 l 288 851 q 363 962 298 962 q 402 922 402 962 q 385 853 402 899 l 292 614 l 264 614 z "},"″":{"ha":500,"x_min":265,"x_max":623,"o":"m 486 614 l 509 851 q 584 962 519 962 q 623 922 623 962 q 606 853 623 899 l 514 614 l 486 614 m 265 614 l 288 851 q 363 962 298 962 q 403 922 403 962 q 385 853 403 899 l 293 614 l 265 614 z "},"‼":{"ha":807,"x_min":155,"x_max":852,"o":"m 296 226 l 241 226 l 324 837 q 338 907 331 887 q 369 944 346 926 q 418 962 393 962 q 468 945 446 962 q 490 895 490 927 q 474 824 490 872 l 296 226 m 659 226 l 604 226 l 687 837 q 701 907 694 887 q 732 944 708 926 q 781 962 755 962 q 830 945 808 962 q 852 895 852 927 q 837 824 852 872 l 659 226 m 251 148 q 300 129 281 148 q 319 80 319 110 q 292 13 319 43 q 225 -16 265 -16 q 155 53 155 -16 q 184 121 155 94 q 251 148 212 148 m 614 148 q 663 129 644 148 q 682 80 682 110 q 654 13 682 43 q 587 -16 627 -16 q 518 53 518 -16 q 545 119 518 91 q 614 148 572 148 z "},"ⁿ":{"ha":611,"x_min":193,"x_max":723,"o":"m 378 800 l 355 704 q 536 800 438 800 q 616 774 587 800 q 644 718 644 748 q 635 663 644 701 l 592 490 q 587 456 587 467 q 606 433 587 433 q 685 491 633 433 l 723 458 q 586 382 654 382 q 522 404 544 382 q 499 455 499 425 q 505 496 499 469 l 549 677 q 554 711 554 699 q 516 745 554 745 q 393 670 455 745 q 298 456 330 595 l 282 389 l 193 389 l 275 724 l 193 724 l 204 766 q 336 800 276 774 l 378 800 z "},"₧":{"ha":1937,"x_min":0,"x_max":1912,"o":"m 926 640 q 1151 884 1073 674 l 1202 884 l 1151 654 l 1497 654 q 1623 671 1554 671 q 1825 627 1737 671 q 1912 522 1912 584 q 1896 483 1912 499 q 1857 467 1880 467 q 1819 480 1835 467 q 1776 530 1802 493 q 1616 607 1723 607 q 1496 578 1541 607 q 1452 510 1452 549 q 1564 410 1452 448 l 1683 368 q 1872 182 1872 303 q 1796 43 1872 103 q 1577 -16 1721 -16 q 1395 14 1478 -16 q 1268 95 1312 44 q 1066 -16 1168 -16 q 966 19 1006 -16 q 926 106 926 55 q 935 176 926 138 l 1027 585 l 905 585 q 803 469 868 514 q 655 413 737 423 q 492 404 573 404 l 337 404 l 281 156 q 274 109 274 126 q 293 69 274 81 q 359 57 313 57 l 385 57 l 372 0 l 0 0 l 13 57 l 42 57 q 121 76 97 57 q 160 156 146 94 l 302 783 q 311 833 311 821 q 293 877 311 865 q 226 888 275 888 l 201 888 l 215 946 l 630 946 q 793 925 733 946 q 895 851 852 905 q 937 720 937 797 q 926 640 937 680 m 444 870 l 353 474 l 473 474 q 654 491 597 474 q 756 571 710 509 q 802 714 802 633 q 773 810 802 772 q 704 859 743 848 q 576 870 665 870 l 444 870 m 1239 153 q 1238 163 1238 159 q 1253 201 1238 185 q 1294 218 1268 218 q 1336 203 1320 218 q 1376 150 1353 189 q 1468 64 1415 84 q 1579 45 1521 45 q 1723 80 1678 45 q 1767 159 1767 115 q 1618 277 1767 229 q 1605 281 1609 280 l 1511 315 q 1347 488 1347 372 q 1385 585 1347 539 l 1135 585 l 1045 186 q 1036 118 1036 142 q 1052 73 1036 90 q 1093 57 1067 57 q 1239 153 1152 57 z "},"℅":{"ha":1204,"x_min":227,"x_max":1192,"o":"m 593 669 l 627 637 q 400 534 510 534 q 273 581 320 534 q 227 697 227 628 q 307 882 227 802 q 498 962 387 962 q 601 930 559 962 q 643 856 643 899 q 591 798 643 798 q 559 811 571 798 q 548 840 548 825 l 548 853 q 549 867 549 867 q 534 898 549 885 q 495 911 519 911 q 377 842 430 911 q 324 692 324 772 q 352 617 324 646 q 416 588 379 588 q 593 669 492 588 m 1151 962 l 334 -8 l 262 -8 l 1078 962 l 1151 962 m 1014 418 q 1142 370 1093 418 q 1192 252 1192 321 q 1122 69 1192 149 q 935 -10 1052 -10 q 801 42 847 -10 q 755 159 755 94 q 827 338 755 258 q 1014 418 900 418 m 1010 369 q 896 301 941 369 q 852 151 852 233 q 874 70 852 103 q 940 37 897 37 q 1052 109 1008 37 q 1095 255 1095 180 q 1073 337 1095 305 q 1010 369 1050 369 z "},"ℓ":{"ha":632,"x_min":132,"x_max":700,"o":"m 132 330 l 285 438 l 339 667 q 437 899 379 834 q 574 963 496 963 q 664 930 627 963 q 700 844 700 897 q 606 661 700 754 q 397 488 513 567 l 331 209 q 320 141 320 164 q 347 64 320 92 q 412 37 373 37 q 505 80 456 37 q 591 204 554 124 l 617 195 q 375 -16 521 -16 q 269 26 314 -16 q 223 151 223 68 q 234 227 223 184 l 275 392 l 149 305 l 132 330 m 410 532 q 605 708 549 637 q 661 837 661 779 q 589 909 661 909 q 463 753 500 909 l 410 532 z "},"←":{"ha":1389,"x_min":54,"x_max":1335,"o":"m 334 594 l 385 594 q 253 385 330 479 l 1335 385 l 1335 316 l 253 316 q 387 106 322 247 l 334 106 q 54 338 183 278 l 54 368 q 334 594 174 416 z "},"↑":{"ha":694,"x_min":104,"x_max":591,"o":"m 104 712 q 330 992 281 872 l 361 992 q 591 711 420 862 l 591 659 q 382 792 451 724 l 382 -291 l 313 -291 l 313 792 q 104 660 219 715 l 104 712 z "},"→":{"ha":1389,"x_min":54,"x_max":1335,"o":"m 1055 594 q 1335 368 1215 416 l 1335 338 q 1054 106 1205 278 l 1002 106 q 1135 316 1066 247 l 54 316 l 54 385 l 1135 385 q 1003 594 1058 479 l 1055 594 z "},"↓":{"ha":694,"x_min":104,"x_max":591,"o":"m 104 -11 l 104 41 q 313 -92 219 -14 l 313 992 l 382 992 l 382 -92 q 591 42 451 -22 l 591 -10 q 361 -291 420 -161 l 330 -291 q 104 -11 281 -172 z "},"↔":{"ha":1389,"x_min":54,"x_max":1335,"o":"m 1335 366 l 1335 336 q 1059 107 1212 282 l 1005 107 q 1137 318 1052 224 l 252 318 q 383 107 336 224 l 329 107 q 54 336 177 282 l 54 366 q 329 595 177 420 l 383 595 q 252 385 336 479 l 1137 385 q 1005 595 1052 479 l 1059 595 q 1335 366 1212 420 z "},"↕":{"ha":694,"x_min":103,"x_max":591,"o":"m 332 992 l 362 992 q 591 716 416 869 l 591 662 q 380 794 475 709 l 380 -92 q 591 40 475 -6 l 591 -14 q 362 -290 416 -166 l 332 -290 q 103 -14 278 -166 l 103 40 q 314 -92 219 -6 l 314 794 q 103 662 219 709 l 103 716 q 332 992 278 869 z "},"↨":{"ha":694,"x_min":103,"x_max":591,"o":"m 332 992 l 362 992 q 591 716 416 869 l 591 662 q 380 794 475 709 l 380 -92 q 591 40 475 -6 l 591 -14 q 362 -290 416 -166 l 332 -290 q 103 -14 278 -166 l 103 40 q 314 -92 219 -6 l 314 794 q 103 662 219 709 l 103 716 q 332 992 278 869 m 104 -354 l 591 -354 l 591 -420 l 104 -420 l 104 -354 z "},"∟":{"ha":1360,"x_min":245,"x_max":1114,"o":"m 245 867 l 313 867 l 313 68 l 1114 68 l 1114 0 l 245 0 l 245 867 z "},"∩":{"ha":818,"x_min":87,"x_max":731,"o":"m 162 0 l 87 0 l 87 421 l 89 583 q 101 724 90 661 q 141 839 113 787 q 213 931 169 890 q 308 991 257 971 q 409 1012 358 1012 q 562 965 489 1012 q 673 847 634 919 q 722 695 713 776 q 731 421 731 615 l 731 0 l 656 0 l 656 426 q 650 662 656 591 q 614 791 643 734 q 528 886 586 848 q 409 923 470 923 q 291 886 348 923 q 205 793 233 848 q 170 664 177 737 q 162 426 162 591 l 162 0 z "},"≡":{"ha":833,"x_min":86,"x_max":747,"o":"m 747 678 l 747 595 l 86 595 l 86 678 l 747 678 m 747 515 l 747 431 l 86 431 l 86 515 l 747 515 m 747 351 l 747 267 l 86 267 l 86 351 l 747 351 z "},"□":{"ha":839,"x_min":165,"x_max":805,"o":"m 165 640 l 805 640 l 805 0 l 165 0 l 165 640 m 216 589 l 216 52 l 753 52 l 753 589 l 216 589 z "},"▪":{"ha":492,"x_min":187,"x_max":501,"o":"m 501 616 l 501 302 l 187 302 l 187 616 l 501 616 z "},"▫":{"ha":492,"x_min":187,"x_max":501,"o":"m 501 616 l 501 302 l 187 302 l 187 616 l 501 616 m 450 565 l 239 564 l 239 353 l 450 353 l 450 565 z "},"●":{"ha":839,"x_min":203,"x_max":800,"o":"m 502 690 q 712 603 625 690 q 800 392 800 515 q 713 181 800 269 q 502 93 625 93 q 291 181 378 93 q 203 392 203 269 q 292 605 203 520 q 502 690 381 690 z "},"◦":{"ha":492,"x_min":191,"x_max":531,"o":"m 361 629 q 480 581 429 629 q 531 459 531 532 q 481 339 531 389 q 361 289 431 289 q 240 339 290 289 q 191 459 191 389 q 241 579 191 530 q 361 629 291 629 m 361 578 q 277 544 313 578 q 242 459 242 510 q 277 375 242 410 q 361 340 312 340 q 445 375 410 340 q 479 459 479 410 q 444 544 479 509 q 361 578 409 578 z "},"":{"ha":417,"x_min":53,"x_max":294,"o":"m 80 -433 l 53 -392 q 220 -216 214 -301 q 191 -220 203 -220 q 151 -203 170 -220 q 132 -152 132 -186 q 153 -101 132 -119 q 203 -82 174 -82 q 266 -110 239 -82 q 294 -185 294 -137 q 80 -433 294 -324 z "},"Ā":{"ha":972,"x_min":0,"x_max":985,"o":"m 625 946 l 741 946 l 880 155 q 899 89 889 106 q 925 64 909 71 q 985 57 940 58 l 972 0 l 625 0 l 641 57 l 679 57 q 743 73 725 57 q 762 115 762 88 q 757 161 762 130 l 724 352 l 362 352 l 240 138 q 225 93 225 112 q 239 66 225 76 q 298 57 253 57 l 330 57 l 316 0 l 0 0 l 14 57 q 78 65 59 58 q 112 88 97 73 q 161 161 127 104 l 625 946 m 713 418 l 644 838 l 401 418 l 713 418 m 532 1130 l 904 1130 l 860 1048 l 491 1048 l 532 1130 z "},"ā":{"ha":861,"x_min":120,"x_max":925,"o":"m 753 654 l 838 654 l 723 147 q 717 102 717 121 q 729 66 717 79 q 760 54 741 54 q 804 68 782 54 q 882 141 838 90 l 925 103 q 833 19 859 35 q 728 -12 783 -12 q 664 2 690 -12 q 623 42 638 16 q 608 97 608 68 q 621 180 608 119 q 520 62 568 103 q 423 3 473 22 q 323 -16 374 -16 q 180 45 234 -16 q 120 222 120 113 q 177 448 120 341 q 325 613 233 555 q 515 671 417 671 q 630 649 578 671 q 723 583 682 627 l 753 654 m 700 528 q 620 582 665 563 q 532 601 574 601 q 400 555 465 601 q 290 408 336 509 q 243 204 243 307 q 258 124 243 158 q 299 74 273 91 q 355 57 325 57 q 472 102 410 57 q 612 270 550 157 q 700 528 673 383 m 426 888 l 798 888 l 754 807 l 385 807 l 426 888 z "},"Ĉ":{"ha":1000,"x_min":165,"x_max":1087,"o":"m 1023 942 l 1075 942 l 1087 628 l 1023 620 q 957 779 994 726 q 863 859 919 831 q 736 887 807 887 q 531 824 628 887 q 371 636 434 760 q 307 376 307 513 q 345 214 307 286 q 450 103 383 142 q 599 64 517 64 q 723 83 659 64 q 839 135 787 102 q 998 264 892 168 l 1040 226 q 803 39 933 104 q 569 -16 694 -16 q 353 34 431 -16 q 219 166 274 84 q 165 379 165 249 q 242 669 165 534 q 451 884 320 805 q 731 962 583 962 q 848 947 790 962 q 926 916 891 937 q 983 871 951 902 l 1023 942 m 545 1048 l 770 1167 l 956 1048 l 922 1013 l 755 1076 l 575 1013 l 545 1048 z "},"ĉ":{"ha":667,"x_min":119,"x_max":744,"o":"m 677 186 l 718 145 q 377 -16 540 -16 q 242 16 300 -16 q 152 109 184 48 q 119 245 119 170 q 177 456 119 354 q 329 614 235 558 q 530 671 424 671 q 684 620 623 671 q 744 504 744 569 q 725 439 744 462 q 676 417 707 417 q 637 435 653 417 q 621 477 621 452 l 621 498 l 622 522 q 595 578 622 554 q 526 602 568 602 q 399 556 463 602 q 290 420 335 511 q 245 235 245 329 q 267 144 245 184 q 325 80 288 103 q 403 58 362 58 q 481 70 438 58 q 566 105 524 82 q 677 186 607 129 m 326 806 l 551 926 l 737 806 l 703 771 l 536 834 l 356 771 l 326 806 z "},"Ċ":{"ha":1000,"x_min":165,"x_max":1087,"o":"m 1023 942 l 1075 942 l 1087 628 l 1023 620 q 957 779 994 726 q 863 859 919 831 q 736 887 807 887 q 531 824 628 887 q 371 636 434 760 q 307 376 307 513 q 345 214 307 286 q 450 103 383 142 q 599 64 517 64 q 723 83 659 64 q 839 135 787 102 q 998 264 892 168 l 1040 226 q 803 39 933 104 q 569 -16 694 -16 q 353 34 431 -16 q 219 166 274 84 q 165 379 165 249 q 242 669 165 534 q 451 884 320 805 q 731 962 583 962 q 848 947 790 962 q 926 916 891 937 q 983 871 951 902 l 1023 942 m 779 1171 q 828 1152 809 1171 q 847 1104 847 1133 q 817 1038 847 1067 q 748 1009 787 1009 q 700 1027 718 1009 q 682 1078 682 1046 q 711 1143 682 1115 q 779 1171 740 1171 z "},"ċ":{"ha":667,"x_min":119,"x_max":744,"o":"m 677 186 l 718 145 q 377 -16 540 -16 q 242 16 300 -16 q 152 109 184 48 q 119 245 119 170 q 177 456 119 354 q 329 614 235 558 q 530 671 424 671 q 684 620 623 671 q 744 504 744 569 q 725 439 744 462 q 676 417 707 417 q 637 435 653 417 q 621 477 621 452 l 621 498 l 622 522 q 595 578 622 554 q 526 602 568 602 q 399 556 463 602 q 290 420 335 511 q 245 235 245 329 q 267 144 245 184 q 325 80 288 103 q 403 58 362 58 q 481 70 438 58 q 566 105 524 82 q 677 186 607 129 m 577 929 q 626 910 607 929 q 645 862 645 891 q 615 796 645 825 q 546 767 585 767 q 498 785 516 767 q 479 836 479 804 q 509 901 479 873 q 577 929 538 929 z "},"Ē":{"ha":945,"x_min":54,"x_max":1028,"o":"m 268 946 l 950 946 l 1028 696 l 966 676 q 902 793 938 753 q 822 849 865 833 q 669 869 764 869 l 495 869 l 417 523 l 532 523 q 639 538 604 523 q 697 586 673 553 q 734 683 722 620 l 800 683 l 713 299 l 647 299 q 657 372 657 351 q 642 419 657 398 q 603 450 627 441 q 513 458 579 458 l 403 458 l 326 126 q 321 97 321 104 q 332 76 321 83 q 374 71 340 71 l 526 71 q 707 95 637 71 q 826 164 777 119 q 939 322 876 210 l 998 299 l 854 0 l 54 0 l 67 57 q 156 64 136 58 q 186 86 176 71 q 214 157 204 111 l 357 785 q 365 833 365 820 q 345 877 365 865 q 277 888 324 888 l 256 888 l 268 946 m 507 1130 l 879 1130 l 835 1048 l 466 1048 l 507 1130 z "},"ē":{"ha":750,"x_min":123,"x_max":789,"o":"m 707 179 l 745 136 q 568 22 660 60 q 387 -16 475 -16 q 196 57 269 -16 q 123 250 123 130 q 183 455 123 358 q 351 612 243 553 q 581 671 458 671 q 734 626 679 671 q 789 520 789 581 q 765 445 789 484 q 684 371 741 405 q 519 315 627 337 q 254 284 411 292 q 250 244 250 258 q 273 149 250 191 q 337 82 296 106 q 425 57 379 57 q 559 88 482 57 q 707 179 636 119 m 262 338 q 485 371 416 355 q 637 435 596 397 q 677 517 677 473 q 647 581 677 555 q 562 607 617 607 q 438 572 503 607 q 328 478 373 538 q 262 338 282 418 m 410 888 l 783 888 l 739 807 l 370 807 l 410 888 z "},"Ĕ":{"ha":945,"x_min":54,"x_max":1028,"o":"m 268 946 l 950 946 l 1028 696 l 966 676 q 902 793 938 753 q 822 849 865 833 q 669 869 764 869 l 495 869 l 417 523 l 532 523 q 639 538 604 523 q 697 586 673 553 q 734 683 722 620 l 800 683 l 713 299 l 647 299 q 657 372 657 351 q 642 419 657 398 q 603 450 627 441 q 513 458 579 458 l 403 458 l 326 126 q 321 97 321 104 q 332 76 321 83 q 374 71 340 71 l 526 71 q 707 95 637 71 q 826 164 777 119 q 939 322 876 210 l 998 299 l 854 0 l 54 0 l 67 57 q 156 64 136 58 q 186 86 176 71 q 214 157 204 111 l 357 785 q 365 833 365 820 q 345 877 365 865 q 277 888 324 888 l 256 888 l 268 946 m 482 1144 l 515 1160 q 693 1112 593 1112 q 873 1160 798 1112 l 903 1144 q 811 1051 865 1082 q 694 1020 758 1020 q 579 1047 632 1020 q 482 1144 526 1075 z "},"ĕ":{"ha":750,"x_min":123,"x_max":789,"o":"m 707 179 l 745 136 q 568 22 660 60 q 387 -16 475 -16 q 196 57 269 -16 q 123 250 123 130 q 183 455 123 358 q 351 612 243 553 q 581 671 458 671 q 734 626 679 671 q 789 520 789 581 q 765 445 789 484 q 684 371 741 405 q 519 315 627 337 q 254 284 411 292 q 250 244 250 258 q 273 149 250 191 q 337 82 296 106 q 425 57 379 57 q 559 88 482 57 q 707 179 636 119 m 262 338 q 485 371 416 355 q 637 435 596 397 q 677 517 677 473 q 647 581 677 555 q 562 607 617 607 q 438 572 503 607 q 328 478 373 538 q 262 338 282 418 m 342 902 l 376 918 q 553 869 453 869 q 733 918 658 869 l 764 902 q 671 809 725 840 q 554 778 618 778 q 439 805 492 778 q 342 902 386 833 z "},"Ė":{"ha":945,"x_min":54,"x_max":1028,"o":"m 268 946 l 950 946 l 1028 696 l 966 676 q 902 793 938 753 q 822 849 865 833 q 669 869 764 869 l 495 869 l 417 523 l 532 523 q 639 538 604 523 q 697 586 673 553 q 734 683 722 620 l 800 683 l 713 299 l 647 299 q 657 372 657 351 q 642 419 657 398 q 603 450 627 441 q 513 458 579 458 l 403 458 l 326 126 q 321 97 321 104 q 332 76 321 83 q 374 71 340 71 l 526 71 q 707 95 637 71 q 826 164 777 119 q 939 322 876 210 l 998 299 l 854 0 l 54 0 l 67 57 q 156 64 136 58 q 186 86 176 71 q 214 157 204 111 l 357 785 q 365 833 365 820 q 345 877 365 865 q 277 888 324 888 l 256 888 l 268 946 m 677 1171 q 726 1152 707 1171 q 745 1104 745 1133 q 715 1038 745 1067 q 646 1009 686 1009 q 598 1027 616 1009 q 580 1078 580 1046 q 609 1143 580 1115 q 677 1171 638 1171 z "},"ė":{"ha":750,"x_min":123,"x_max":789,"o":"m 707 179 l 745 136 q 568 22 660 60 q 387 -16 475 -16 q 196 57 269 -16 q 123 250 123 130 q 183 455 123 358 q 351 612 243 553 q 581 671 458 671 q 734 626 679 671 q 789 520 789 581 q 765 445 789 484 q 684 371 741 405 q 519 315 627 337 q 254 284 411 292 q 250 244 250 258 q 273 149 250 191 q 337 82 296 106 q 425 57 379 57 q 559 88 482 57 q 707 179 636 119 m 262 338 q 485 371 416 355 q 637 435 596 397 q 677 517 677 473 q 647 581 677 555 q 562 607 617 607 q 438 572 503 607 q 328 478 373 538 q 262 338 282 418 m 602 929 q 650 910 631 929 q 669 862 669 891 q 640 796 669 825 q 570 767 610 767 q 522 785 541 767 q 504 836 504 804 q 533 901 504 873 q 602 929 562 929 z "},"Ĝ":{"ha":1056,"x_min":164,"x_max":1163,"o":"m 1069 941 l 1078 650 l 1012 644 q 911 824 986 760 q 732 888 837 888 q 529 825 625 888 q 371 639 433 762 q 308 381 308 517 q 342 211 308 282 q 438 100 376 140 q 568 60 500 60 q 686 77 625 60 q 793 121 748 94 q 844 166 827 142 q 873 244 861 191 l 893 329 q 899 370 899 357 q 890 398 899 385 q 868 415 882 410 q 815 420 854 420 l 772 420 l 785 477 l 1163 477 l 1151 420 l 1122 420 q 1066 412 1084 420 q 1036 384 1048 403 q 1012 311 1024 364 l 939 0 l 873 0 l 861 85 q 728 11 808 38 q 557 -16 648 -16 q 359 32 441 -16 q 216 176 269 85 q 164 381 164 267 q 242 670 164 534 q 452 884 320 806 q 734 962 583 962 q 868 942 811 962 q 979 876 925 922 l 1019 941 l 1069 941 m 541 1048 l 766 1168 l 951 1048 l 918 1013 l 751 1076 l 570 1013 l 541 1048 z "},"ĝ":{"ha":778,"x_min":60,"x_max":831,"o":"m 831 654 l 694 27 q 615 -169 667 -98 q 482 -280 564 -239 q 298 -320 400 -320 q 124 -276 189 -320 q 60 -185 60 -232 q 76 -143 60 -161 q 113 -125 92 -125 q 139 -131 127 -125 q 166 -149 152 -136 q 199 -190 176 -159 q 232 -229 222 -221 q 272 -249 249 -241 q 321 -256 295 -256 q 432 -224 379 -256 q 523 -132 486 -193 q 586 45 561 -71 l 616 182 q 555 100 585 131 q 437 13 499 42 q 317 -16 374 -16 q 176 44 229 -16 q 115 221 115 113 q 172 447 115 338 q 319 613 229 555 q 509 671 410 671 q 592 660 551 671 q 665 628 633 648 q 715 583 690 613 l 747 654 l 831 654 m 694 530 q 614 584 654 566 q 531 602 573 602 q 398 554 465 602 q 284 407 331 507 q 237 203 237 307 q 269 96 237 135 q 345 58 300 58 q 456 96 401 58 q 598 258 539 156 q 694 530 656 361 m 357 806 l 583 926 l 768 806 l 734 771 l 568 834 l 387 771 l 357 806 z "}}}
